<?xml version="1.0" encoding="UTF-8" standalone="no"?>
<!-- Created with Inkscape (http://www.inkscape.org/) -->

<svg
   xmlns:dc="http://purl.org/dc/elements/1.1/"
   xmlns:cc="http://creativecommons.org/ns#"
   xmlns:rdf="http://www.w3.org/1999/02/22-rdf-syntax-ns#"
   xmlns:svg="http://www.w3.org/2000/svg"
   xmlns="http://www.w3.org/2000/svg"
   xmlns:sodipodi="http://sodipodi.sourceforge.net/DTD/sodipodi-0.dtd"
   xmlns:inkscape="http://www.inkscape.org/namespaces/inkscape"
   id="svg2"
   version="1.1"
   inkscape:version="0.48.2 r9819"
   width="1778.1328"
   height="2422.8569"
   sodipodi:docname="Lizard_1400173_Nevit.svg">
  <metadata
     id="metadata8">
    <rdf:RDF>
      <cc:Work
         rdf:about="">
        <dc:format>image/svg+xml</dc:format>
        <dc:type
           rdf:resource="http://purl.org/dc/dcmitype/StillImage" />
        <dc:title></dc:title>
      </cc:Work>
    </rdf:RDF>
  </metadata>
  <defs
     id="defs6" />
  <sodipodi:namedview
     pagecolor="#ffffff"
     bordercolor="#666666"
     borderopacity="1"
     objecttolerance="10"
     gridtolerance="10"
     guidetolerance="10"
     inkscape:pageopacity="0"
     inkscape:pageshadow="2"
     inkscape:window-width="1440"
     inkscape:window-height="838"
     id="namedview4"
     showgrid="false"
     fit-margin-top="0"
     fit-margin-left="0"
     fit-margin-right="0"
     fit-margin-bottom="0"
     inkscape:zoom="0.18065413"
     inkscape:cx="945.07875"
     inkscape:cy="1274.9332"
     inkscape:window-x="-8"
     inkscape:window-y="-8"
     inkscape:window-maximized="1"
     inkscape:current-layer="svg2" />
  <path
     style="fill:#000000"
     d="m 1773.2246,597.06086 c -1.0177,0.6478 -2.3027,1.0093 -2.8553,0.8033 -0.5527,-0.2061 -1.5561,0.3297 -2.23,1.1906 -2.325,2.9702 -10.1556,-0.6666 -11.402,-5.2955 -0.1231,-0.4571 -3.5512,-3.7791 -7.618,-7.3823 -4.0668,-3.6031 -19.8271,-21.2311 -35.0229,-39.1734 -16.5722,-19.5672 -51.6604,-58.6644 -87.6804,-97.6982 -55.3164,-59.9443 -61.6051,-66.4349 -79.7497,-82.3081 -10.8338,-9.4777 -20.2203,-17.7936 -20.8588,-18.4801 -4.8769,-5.2425 -37.4404,-31.7592 -50.7789,-41.3496 -9.0267,-6.4901 -16.4237,-12.2009 -16.4381,-12.6905 -0.014,-0.4897 -0.433,-0.8092 -0.9304,-0.7101 -0.4972,0.099 -5.3899,-3.0918 -10.8724,-7.0911 -5.4826,-3.9992 -9.2545,-7.2539 -8.3819,-7.2327 0.8725,0.021 0.4226,-0.2398 -1,-0.58 -1.4225,-0.3402 -5.7007,-3.0349 -9.5072,-5.9883 -3.8063,-2.9533 -7.5223,-5.6881 -8.2577,-6.0775 -3.2327,-1.7115 -27.4761,-19.6052 -27.9957,-20.6633 -0.317,-0.6455 -1.4731,-1.5079 -2.569,-1.9165 -1.096,-0.4085 -5.9556,-3.6356 -10.799,-7.1713 -6.7246,-4.9087 -17.26,-10.7742 -44.5643,-24.8104 -19.6668,-10.1101 -35.8793,-18.7003 -36.0278,-19.0892 -0.1485,-0.389 -3.5858,-2.0686 -7.6385,-3.7327 -4.0527,-1.6641 -7.6093,-3.5527 -7.9037,-4.197 -0.2943,-0.6442 -1.1245,-1.1657 -1.8448,-1.1588 -0.7201,0.01 -4.4842,-1.6556 -8.3648,-3.6936 -9.8184,-5.1577 -76.3085,-24.2042 -91.8586,-26.3135 -5.7874,-0.7851 -11.0619,-1.9035 -11.7211,-2.4854 -0.6592,-0.5819 -1.6173,-0.7706 -2.1292,-0.4194 -0.5119,0.3512 -3.4357,0.2724 -6.4972,-0.1752 -3.0615,-0.4475 -18.5508,-2.5306 -34.4207,-4.6293 -28.6013,-3.7821 -37.9513,-4.4933 -38.5337,-2.9309 -0.166,0.4452 -1.1094,0.5086 -2.0962,0.1407 -0.987,-0.3679 -3.0983,-0.1794 -4.6919,0.419 -1.5937,0.5983 -11.3991,2.4032 -21.79,4.0109 -16.2574,2.5153 -21.1768,3.8052 -35.27,9.2485 -9.0261,3.4861 -16.7292,5.8726 -17.161,5.3167 -0.4382,-0.5641 -0.6779,-0.4785 -0.5438,0.194 0.1319,0.6615 -5.62338,3.4251 -12.78958,6.1412 -11.6733,4.4244 -14.1374,5.8254 -23.6773,13.4624 -5.8564,4.6883 -12.5674,9.3342 -14.9132,10.3243 -2.6976,1.1386 -4.9218,2.9532 -6.052,4.9376 -0.9827,1.7255 -5.8574,6.366 -10.8327,10.3121 -6.7515,5.3549 -12.8951,11.6873 -24.2223,24.9661 l -15.1763,17.7914 -10.709,24.163 c -15.6831,35.3861 -26.2927,56.6928 -28.4436,57.1215 -0.5547,0.1106 -1.5437,1.6364 -2.1976,3.3907 -0.654,1.7542 -2.8299,5.0147 -4.8354,7.2454 -2.7833,3.0959 -4.47,6.2653 -7.1264,13.3912 l -3.48,9.3355 2.7108,1.0105 c 1.5452,0.576 3.168,0.4926 3.7741,-0.1939 2.428,-2.7504 8.3148,2.4257 6.9433,6.1049 -1.0114,2.7132 -4.2529,6.242 -6.2974,6.8555 -2.9994,0.9001 -8.7961,10.2423 -13.9701,22.5148 l -5.0137,11.8925 5.912,1.4729 c 3.7573,0.9361 5.9991,1.91 6.151,2.672 0.1315,0.6596 -0.2591,1.0136 -0.868,0.7866 -0.8161,-0.3042 -0.957,0.017 -0.536,1.2227 0.7747,2.2191 -8.0565,22.8202 -11.1107,25.9187 -4.2177,4.2788 -5.0363,5.9961 -5.1801,10.8679 -0.078,2.6574 -0.65,6.1925 -1.27,7.8557 -0.6423,1.7229 -0.6505,6.6399 -0.019,11.4281 0.6094,4.6222 0.8328,9.1762 0.4964,10.12 -0.3363,0.9437 -0.2386,2.5322 0.2173,3.53 0.4559,0.9978 0.8011,4.0937 0.767,6.8799 -0.034,2.7861 0.024,6.611 0.1289,8.4997 0.1049,1.8888 -0.1392,4.3191 -0.5424,5.4007 -0.4032,1.0817 -0.3607,2.1055 0.095,2.2752 0.4552,0.1697 0.7339,1.2341 0.6192,2.3653 -0.1355,1.3368 -0.6698,1.8848 -1.5263,1.5655 -0.7248,-0.2702 -1.4819,-0.051 -1.6824,0.4868 -0.2005,0.5379 0.401,1.1224 1.3368,1.2987 1.3689,0.258 1.7006,4.6745 1.6969,22.5959 0,12.2513 -0.2623,22.4798 -0.5772,22.7301 -0.315,0.2502 -0.2151,1.1617 0.2219,2.0255 0.6262,1.2381 1.039,1.2225 1.9499,-0.074 1.4778,-2.1027 4.0457,-1.1844 3.9177,1.4007 -0.054,1.0884 0.5421,3.5334 1.3244,5.4334 1.0114,2.4566 1.0242,3.6365 0.044,4.0842 -0.758,0.3464 -1.6018,1.2295 -1.875,1.9625 -0.3806,1.0211 -0.1044,1.1959 1.1807,0.7472 2.1576,-0.7533 3.3915,2.2174 1.7114,4.1205 -0.7615,0.8627 -0.6561,1.4915 0.3102,1.8517 0.9614,0.3584 1.2164,1.8261 0.7434,4.2792 -1.7387,9.0163 -1.5398,9.6383 5.2446,16.3928 3.4958,3.4806 5.9458,6.5158 5.4444,6.745 -1.1273,0.515 5.2843,5.4568 8.8172,6.7959 1.4252,0.5419 5.2405,3.8342 8.4773,7.3196 5.0732,5.4629 7.8781,7.4672 20.3356,14.5315 l 14.4505,8.1944 14.1073,16.8302 c 17.6315,21.0349 36.254,41.5513 48.4912,53.423 5.1729,5.0184 9.7102,9.5948 10.0828,10.1698 0.3726,0.5751 2.0507,2.1298 3.7289,3.4548 1.6784,1.3251 4.1762,3.9922 5.5508,5.9268 1.3745,1.9347 3.4262,4.0684 4.5592,4.7418 1.1331,0.6733 7.6831,6.6735 14.5557,13.3338 11.30808,10.9588 13.59378,12.7239 24.05348,18.5741 6.3569,3.5555 12.3056,7.3126 13.2195,8.3491 0.9139,1.0365 1.5607,1.3788 1.4375,0.7607 -0.1388,-0.6967 1.2994,-0.3519 3.7831,0.9067 3.3609,1.7033 4.2049,1.7813 5.2332,0.4836 0.6745,-0.851 1.8996,-2.2567 2.7227,-3.1238 0.823,-0.8672 3.1489,-5.523 5.1686,-10.3463 2.8513,-6.8098 4.4397,-9.4342 7.107,-11.7424 1.8891,-1.6349 3.703,-3.6919 4.0307,-4.571 0.3277,-0.8791 1.0744,-1.6937 1.6592,-1.8103 2.0936,-0.4173 8.9277,-12.2755 12.3214,-21.3793 2.0602,-5.5266 4.7118,-10.918 6.5659,-13.3501 1.7105,-2.2437 4.3548,-7.4049 5.8763,-11.4692 2.7223,-7.2714 6.709,-12.4869 11.8419,-15.4905 0.9446,-0.5527 3.8916,-3.5362 6.549,-6.6301 2.6573,-3.0938 5.5342,-6.3236 6.393,-7.1774 4.7233,-4.6959 8.5688,-10.7706 12.0252,-18.9962 l 3.8771,-9.2269 -9.8778,-21.4853 c -5.4329,-11.817 -11.3554,-23.9638 -13.161,-26.993 -1.8057,-3.0291 -4.9531,-8.7573 -6.9943,-12.7292 -7.4778,-14.5509 -18.1652,-34.504 -19.9794,-37.301 -1.025,-1.5805 -1.6482,-3.4515 -1.3848,-4.1581 0.2634,-0.7065 0.03,-1.1951 -0.5196,-1.0856 -0.8709,0.1736 -12.604,-19.5603 -15.8371,-26.6364 -0.6434,-1.4081 -1.5914,-2.7174 -2.1068,-2.9096 -0.5154,-0.1921 -0.7579,-0.8298 -0.5389,-1.4173 0.2189,-0.5873 -0.098,-1.8211 -0.7047,-2.7416 -1.2086,-1.8342 -1.2908,-7.7401 -0.1878,-13.4919 0.5412,-2.8227 1.0973,-3.6857 2.3828,-3.698 0.9223,-0.01 1.514,0.4208 1.3149,0.9547 -0.21,0.5633 0.5726,1.0169 1.8647,1.081 1.3996,0.069 2.3424,0.6914 2.5385,1.6748 0.1715,0.8604 0.7307,1.7206 1.2427,1.9114 0.512,0.1909 1.2369,1.4217 1.6111,2.7351 0.6304,2.2124 0.7722,2.2848 1.9274,0.9853 2.0164,-2.2685 3.0088,-1.0232 1.815,2.2774 -0.9389,2.596 -0.8498,2.8962 0.5912,1.9928 2.3435,-1.4693 6.9643,-0.513 8.389,1.7359 1.5887,2.5077 4.2967,3.4414 6.9356,2.3912 1.515,-0.6029 4.9545,-0.018 11.2672,1.9154 8.351,2.558 9.2617,3.042 11.2505,5.9792 1.3983,2.0648 2.9869,3.2875 4.4891,3.4548 4.6404,0.5168 8.4584,4.4616 10.5285,10.8781 1.0844,3.3613 1.6989,6.8433 1.3655,7.7377 -0.3334,0.8943 0.3804,4.7769 1.5862,8.628 1.2058,3.851 2.0685,7.3341 1.9171,7.7403 -0.8043,2.1575 5.2698,15.8697 12.731,28.74 4.6557,8.031 8.3002,15.0439 8.0988,15.5841 -0.2013,0.5401 0,0.8171 0.4366,0.6154 0.4415,-0.2018 3.31,3.965 6.3743,9.2594 3.8058,6.5753 8.1096,12.2115 13.5794,17.7835 7.6802,7.8235 8.2149,8.1928 13.0695,9.0231 2.7839,0.4762 5.4023,1.3042 5.8185,1.84 0.4162,0.5359 0.6487,0.4321 0.5167,-0.2303 -0.1424,-0.7144 1.2796,-0.9416 3.4945,-0.5582 2.054,0.3554 6.7432,0.1195 10.4202,-0.5241 3.8625,-0.6762 8.8362,-0.7007 11.7783,-0.058 l 5.0926,1.1124 3.4038,-5.1264 c 1.872,-2.8194 4.4176,-6.6365 5.6567,-8.4824 1.4909,-2.2211 4.1116,-4.1423 7.7491,-5.6806 3.0228,-1.2783 6.2634,-3.4649 7.2012,-4.859 0.9377,-1.3941 2.2957,-2.8949 3.0176,-3.3352 0.7218,-0.4403 3.6129,-5.846 6.4246,-12.0126 2.8116,-6.1665 6.7535,-14.7422 8.7599,-19.0571 4.5787,-9.8472 4.7567,-11.5991 1.8185,-17.9087 -1.8778,-4.0324 -2.1237,-5.8121 -1.1644,-8.4237 1.9034,-5.1803 7.2371,-8.2833 12.9231,-7.5175 4.9055,0.6607 13.5528,-4.2757 17.1372,-9.783 2.8963,-4.4498 4.9265,-5.8404 12.6241,-8.6469 1.3931,-0.5079 2.9545,-0.7663 3.4698,-0.5741 0.5154,0.1921 1.1728,-0.2832 1.461,-1.0563 0.2882,-0.773 1.1564,-1.1697 1.9295,-0.8815 0.773,0.2881 1.5627,0.1022 1.7548,-0.4131 0.1921,-0.5154 0.9817,-0.7013 1.7548,-0.4131 1.1705,0.4364 0.7111,2.3867 -2.7482,11.6665 -4.135,11.0926 -4.1443,11.1491 -2.0384,12.5981 1.52,1.0461 2.421,3.6642 3.2018,9.3041 0.5976,4.3167 1.7317,8.3648 2.5202,8.9958 2.7812,2.2257 3.2315,4.9478 1.5552,9.4 -1.9862,5.2768 -3.0026,6.1479 -6.6891,5.7374 -1.5548,-0.1732 -4.8505,0.8065 -7.3237,2.1771 -3.5596,1.9726 -5.0207,3.5504 -7.011,7.571 -1.3829,2.7936 -2.9899,5.1871 -3.5709,5.319 -0.9637,0.2186 -2.3036,2.2841 -7.2994,11.2528 -0.9476,1.7012 -2.2538,3.4113 -2.9027,3.8002 -0.6488,0.389 -2.4589,3.8852 -4.0221,7.7696 -2.7142,6.7439 -2.9619,7.0503 -5.4917,6.7926 -2.5706,-0.2617 -2.5982,-0.2248 -0.9326,1.2435 1.6175,1.4258 1.5015,2.0379 -2.0097,10.6084 -10.274,25.0778 -12.1724,31.0266 -10.143,31.7831 0.4329,0.1614 1.5317,1.7716 2.4416,3.5782 1.4886,2.9557 2.4342,3.5755 9.4381,6.1864 8.0336,2.9947 8.6378,3.0547 21.5089,2.1382 9.9043,-0.7052 15.3326,-0.4648 16.2527,0.7197 0.4045,0.5206 0.9589,0.3467 1.229,-0.3778 0.531,-1.4244 13.739,-0.976 17.9788,0.6105 3.1474,1.1733 19.3424,2.9929 20.8881,2.3417 0.6615,-0.2787 6.9774,1.6459 14.0352,4.2769 14.4965,5.404 13.755,4.6743 16.5663,16.302 0.9643,3.988 2.2567,6.473 4.0585,7.8038 1.4541,1.0739 2.5165,2.294 2.3608,2.7114 -0.1556,0.4176 1.0102,1.4771 2.5908,2.3547 7.4733,4.1493 9.5823,5.0815 9.3973,4.1532 -0.3187,-1.5985 2.3557,-1.6968 7.2973,-0.2685 4.527,1.3086 4.5648,1.3532 3.5195,4.1573 -0.6427,1.7242 -1.8334,2.9558 -3.0396,3.1439 -1.7948,0.28 -1.859,0.419 -0.6769,1.4656 1.0771,0.9536 0.9719,1.4866 -0.6001,3.0413 -1.0484,1.0369 -2.2486,1.7613 -2.6669,1.6099 -0.417,-0.1554 -0.6505,0.2785 -0.5156,0.9552 0.1351,0.6776 -0.7254,1.1321 -1.9149,1.0115 -1.1881,-0.1204 -2.299,0.1535 -2.4687,0.6087 -0.1697,0.4553 -1.6804,0.3207 -3.357,-0.2989 -1.6784,-0.615 -5.5434,-0.8755 -8.5927,-0.5684 -4.6262,0.4657 -6.95,0.04 -14.0351,-2.5737 -4.6699,-1.7227 -8.7623,-3.7258 -9.094,-4.4518 -0.7672,-1.6792 -22.5295,-9.8054 -35.4809,-13.2488 -6.1195,-1.6271 -12.4754,-2.5729 -17.1892,-2.558 -4.1137,0.013 -9.0465,0.029 -10.9618,0.035 -1.9152,0.01 -3.3316,0.341 -3.1474,0.7441 0.3612,0.7904 -9.5832,1.1382 -10.5597,0.3693 -0.3241,-0.255 -0.5874,0.1314 -0.5854,0.8589 0,1.3629 -6.0227,2.8113 -8.247,1.9822 -0.6884,-0.2566 -1.6224,-0.01 -2.0758,0.5557 -0.4533,0.5622 -1.6337,0.7225 -2.6229,0.3563 -0.9886,-0.3685 -1.8888,-0.1286 -1.9989,0.5283 -0.1101,0.6569 -1.1337,1.1482 -2.2746,1.0916 -1.1409,-0.056 -2.2702,0.4225 -2.5095,1.0644 -0.8542,2.2915 2.9915,7.9393 7.3927,10.8565 2.4566,1.6283 4.2185,3.3434 3.9153,3.8115 -0.3032,0.468 1.0255,1.622 2.9525,2.5644 1.927,0.9425 4.0386,2.7452 4.6926,4.0062 0.6949,1.3401 2.5745,2.7648 4.5242,3.4293 2.0597,0.7016 3.3409,1.7115 3.3498,2.6394 0.01,0.8737 1.3219,1.9901 3.1384,2.6672 1.7182,0.6405 3.2177,1.6347 3.3322,2.2092 0.1145,0.5746 1.0696,1.132 2.1223,1.2387 1.3424,0.1361 1.8454,0.8711 1.6842,2.461 -0.1873,1.8481 0.2592,2.3213 2.4172,2.5617 1.913,0.213 2.6514,0.7696 2.6634,2.0073 0.011,1.158 0.7663,1.7961 2.3324,1.9705 1.5903,0.1772 2.3213,0.8152 2.333,2.036 0.013,1.3086 0.396,1.6049 1.4525,1.1222 1.8404,-0.8409 5.9812,3.4756 5.2405,5.4627 -0.2796,0.75 0.4561,2.0273 1.6348,2.8384 1.1788,0.8111 2.442,2.6119 2.8072,4.0017 0.5604,2.1321 0.88,2.3606 2.0462,1.4622 1.024,-0.7887 1.159,0.046 0.5213,3.2207 -0.4735,2.3568 -0.3857,4.7047 0.1953,5.2175 0.7146,0.6309 0.5255,1.79 -0.5843,3.5831 -1.5427,2.4928 -1.4853,2.668 0.964,2.9408 1.7504,0.1949 2.4486,0.6661 2.129,1.4369 -2.4356,5.8758 -2.3058,6.3344 2.2758,8.0423 2.8265,1.0537 4.7954,2.4386 5.5583,3.9097 0.8078,1.5575 1.2343,1.8431 1.3484,0.9028 0.092,-0.7564 0.8319,-1.3697 1.6449,-1.3629 0.9052,0.01 1.0715,0.328 0.4291,0.827 -0.6522,0.5065 -0.3056,1.0917 0.9159,1.5471 1.5842,0.5905 1.7265,1.2122 0.7345,3.2086 -1.5906,3.2017 0.9108,4.3617 2.9333,1.3603 1.3087,-1.9422 1.423,-1.9472 1.2818,-0.056 -0.085,1.1422 -0.1272,2.8424 -0.093,3.7783 0.054,1.4901 -0.9056,1.2819 -7.7226,-1.675 -7.1035,-3.0811 -8.2494,-3.3049 -13.0962,-2.5584 -2.9214,0.45 -6.1075,0.5215 -7.0803,0.1589 -0.9728,-0.3626 -2.8579,-0.465 -4.1891,-0.2275 -1.9363,0.3454 -2.4178,0.1659 -2.4079,-0.8977 0.01,-0.7311 -0.3608,-1.4685 -0.817,-1.6386 -0.4564,-0.1701 -0.8222,0.4624 -0.8131,1.4055 0.01,0.943 -0.7113,1.8678 -1.6001,2.0552 -2.2542,0.4749 -2.7656,0.1869 -3.8389,-2.162 -0.6549,-1.4335 -1.394,-1.8993 -2.4382,-1.5367 -0.824,0.2863 -2.5485,0.1171 -3.8321,-0.376 -1.2835,-0.4934 -3.3139,-0.934 -4.5117,-0.9799 -1.5854,-0.061 -2.6999,-1.13 -4.0967,-3.9307 -1.1389,-2.2838 -2.2581,-3.4902 -2.7539,-2.9684 -0.5274,0.5549 -1.106,0.075 -1.57,-1.3026 -0.4041,-1.1999 -1.1354,-2.2177 -1.625,-2.2619 -1.4899,-0.1347 -4.5935,-3.0297 -4.2464,-3.9609 0.1791,-0.4806 -0.3292,-1.118 -1.1298,-1.4164 -0.8006,-0.2985 -2.464,-2.2229 -3.6964,-4.2765 -1.4249,-2.3744 -3.4653,-4.2395 -5.6038,-5.1224 -3.1801,-1.3128 -4.8328,-3.8681 -3.2814,-5.0732 0.3887,-0.3019 0.1778,-1.7067 -0.4687,-3.1216 -0.6712,-1.469 -1.5657,-2.2694 -2.0851,-1.8659 -1.5082,1.1714 -2.2024,-0.7261 -0.9289,-2.5382 0.8828,-1.2559 0.7264,-1.8626 -0.6078,-2.3599 -0.9877,-0.3682 -2.4252,-0.382 -3.1942,-0.031 -1.0071,0.4601 -1.4684,0.2882 -1.6482,-0.6144 -0.1375,-0.6893 -1.304,-1.6463 -2.5924,-2.1265 -1.2884,-0.4803 -2.0093,-1.1322 -1.602,-1.4485 0.4074,-0.3165 0.5435,-1.3463 0.3014,-2.2889 -0.3338,-1.3022 -0.6582,-1.475 -1.3512,-0.7196 -1.2781,1.3933 -3.363,0.4099 -3.3822,-1.5953 -0.01,-0.9209 -0.5159,-1.5748 -1.1268,-1.4531 -0.6108,0.1218 -1.1034,0.9779 -1.0945,1.9023 0.012,1.2274 -0.4275,1.4073 -1.6291,0.6664 -1.1428,-0.7049 -1.3282,-1.703 -0.607,-3.2695 0.571,-1.2401 0.5727,-1.6364 0,-0.8806 -0.5783,0.7685 -2.5568,1.1107 -4.489,0.7762 l -3.4549,-0.5979 -2.2818,5.7712 c -3.783,9.5684 -3.9759,10.3015 -3.9733,15.1017 0,3.6043 -0.4911,5.306 -2.2324,7.7056 -1.2291,1.6938 -4.4863,9.1123 -7.2381,16.4855 -3.2426,8.6986 -5.2566,13.0797 -5.7244,12.4774 -0.3967,-0.5106 -1.0448,-0.06 -1.4404,1.0009 -0.4064,1.0903 -0.108,2.1572 0.6863,2.4533 0.7731,0.2881 1.1454,1.2217 0.8275,2.0747 -0.5144,1.3798 -0.7189,1.2791 -1.8562,-0.914 -0.9799,-1.8893 -1.7352,-2.3692 -3.2358,-2.0557 -1.0766,0.2249 -2.1632,0.9603 -2.4144,1.6343 -0.2512,0.6739 -1.0493,1.2045 -1.7736,1.1791 -0.8599,-0.03 -0.961,-1.1478 -0.2912,-3.2213 1.8887,-5.8472 1.9959,-6.3522 1.5556,-7.3278 -0.77,-1.7065 0.078,-2.513 1.4078,-1.339 0.9501,0.8387 1.3641,0.6358 1.585,-0.7767 0.1791,-1.1456 -0.3859,-2.0415 -1.4096,-2.2353 -1.933,-0.3657 -1.6906,-1.7348 0.6767,-3.822 1.2841,-1.132 1.2926,-1.7791 0.042,-3.1976 -0.9325,-1.0576 -1.1441,-2.2585 -0.5221,-2.9629 0.5751,-0.6516 0.5862,-1.093 0.025,-0.981 -0.5618,0.1119 -2.2321,-0.5459 -3.7119,-1.4616 -1.9901,-1.2316 -2.5009,-2.185 -1.9624,-3.6616 0.3989,-1.0987 0.7438,-3.9116 0.7629,-6.2524 0.031,-3.8103 -0.1109,-4.0588 -1.3578,-2.3738 -2.1473,2.9018 -2.7821,1.816 -1.4005,-2.3957 1.3418,-4.0907 0.6807,-9.2406 -1.0169,-7.9219 -1.6038,1.2457 -3.4954,0.016 -3.2777,-2.1309 0.1407,-1.3889 0.5326,-1.6865 1.3143,-0.9967 0.6445,0.5689 1.3344,0.3907 1.6375,-0.4225 0.6157,-1.6516 -0.9989,-3.2688 -4.6055,-4.6132 -1.4241,-0.5309 -3.038,-2.093 -3.5866,-3.4715 -0.5485,-1.3784 -1.4991,-2.6932 -2.1124,-2.9219 -0.6133,-0.2286 -1.5692,-1.5567 -2.1243,-2.9515 -0.6883,-1.7296 -1.4277,-2.3446 -2.3258,-1.9342 -0.7242,0.3309 -3.9731,-0.3887 -7.2199,-1.599 l -5.9032,-2.2005 -2.657,7.1277 c -2.341,6.2798 -9.2673,20.1406 -20.8565,41.7369 -5.0992,9.5024 -8.6538,17.3261 -15.5495,34.2244 -3.3265,8.1515 -6.7411,16.2435 -7.5882,17.9821 -3.6458,7.4835 -7.8086,16.4882 -11.573,25.0344 -2.2209,5.0419 -5.3712,11.5515 -7.0007,14.4659 -3.2665,5.8418 -10.8655,20.5141 -13.2038,25.4938 -0.8209,1.7484 -3.555,6.4922 -6.0758,10.5417 -3.783,6.0775 -6.1579,8.5945 -13.6044,14.4176 -4.9618,3.8799 -9.913,7.317 -11.0028,7.6379 -1.0896,0.3207 -2.2171,1.2157 -2.5052,1.9888 -0.2882,0.773 -0.9516,1.2643 -1.4743,1.0918 -1.9787,-0.6533 -8.866,0.5206 -12.8558,2.1913 -4.808,2.0132 -13.7065,1.5993 -23.9269,-1.1129 -5.9359,-1.5752 -39.16318,-16.3928 -57.79828,-25.7749 l -4.7175,-2.3751 -2.3258,6.2391 -2.3258,6.2391 3.4239,7.8542 c 2.7583,6.3269 4.6942,9.0538 9.9565,14.0245 5.3655,5.0682 8.6572,9.7682 18.4274,26.3116 11.16118,18.89894 14.00278,24.86734 13.49958,28.35384 -0.115,0.7963 -0.037,1.7522 0.1735,2.1241 0.2103,0.3719 1.1916,6.5007 2.1805,13.6195 0.9889,7.1189 1.9661,13.9665 2.1715,15.217 0.2054,1.2505 1.9081,12.8514 3.7838,25.7797 2.7768,19.1392 5.4226,31.03 14.2418,64.0061 10.5187,39.3308 10.9305,41.3538 14.2605,70.0599 3.3333,28.7335 4.2241,43.583 2.6861,44.7776 -0.4137,0.3214 -0.4153,0.8709 0,1.2216 1.602,1.3625 -0.011,93.3249 -1.7173,97.9021 -0.1921,0.5154 -0.1689,1.2444 0.052,1.6201 0.5975,1.0181 -1.4379,51.9694 -2.2089,55.2949 -0.3653,1.5757 -0.6529,3.5894 -0.6391,4.475 0.1059,6.8005 -5.5494,41.3015 -9.8092,59.843 -4.9469,21.5316 -20.5801,101.6516 -20.831,106.7577 -0.1117,2.2756 0.3302,2.1807 7.384,-1.5853 6.581,-3.5136 8.92,-4.1084 19.0363,-4.8403 l 11.5334,-0.8345 8.6793,3.9978 8.6794,3.998 8.7582,20.3211 c 7.4424,17.2683 9.2898,22.8573 12.2973,37.2041 1.9466,9.2856 3.1041,17.2468 2.5721,17.6915 -0.5319,0.4447 -0.5272,0.6345 0.01,0.4218 1.1072,-0.438 10.0115,36.9112 9.9703,41.8207 -0.015,1.7554 0.3152,3.7994 0.7332,4.5422 1.8537,3.294 3.8238,40.0105 2.7302,50.8832 -0.6266,6.2311 -1.0418,11.5432 -0.9223,11.8046 0.1195,0.2614 2.7355,0.5791 5.8134,0.7058 5.4777,0.2258 5.8948,0.023 19.7018,-9.6002 l 14.1058,-9.8308 18.2677,-28.7942 c 26.7529,-42.1685 27.3489,-42.8696 34.3601,-40.4083 1.8166,0.6378 4.5818,0.9499 6.1447,0.6937 1.563,-0.2563 3.3744,-0.2844 4.0254,-0.062 2.2259,0.7582 -0.8588,5.9472 -6.4384,10.8299 -4.7155,4.1267 -5.8832,5.7622 -7.8163,10.9478 -2.194,5.8855 -2.1878,6.4197 0.1783,15.4413 1.3481,5.1396 3.2744,10.2787 4.2807,11.4201 1.5097,1.7124 1.5635,2.7891 0.3075,6.1585 -1.3815,3.7059 -11.3372,17.2256 -13.1367,17.8394 -1.4782,0.5042 -10.4381,12.7065 -11.0035,14.9853 -0.3554,1.4325 -2.1939,3.2917 -4.7739,4.8279 -2.3078,1.3741 -4.4592,3.2047 -4.7811,4.068 -0.4197,1.1261 -1.0799,1.2221 -2.3354,0.3398 -1.5669,-1.1013 -1.8531,-0.8578 -2.7342,2.3247 -0.821,2.9656 -1.2837,3.4438 -2.7828,2.8887 -2.1731,-0.7994 -3.861,0.8986 -2.0579,2.0736 1.0983,0.7157 0.7548,1.4581 -2.4411,5.2752 -2.0454,2.4433 -4.3116,6.0317 -5.0357,7.9743 -1.5162,4.0673 -0.2986,5.3928 6.8934,7.5037 3.8038,1.1165 4.587,0.9516 7.4346,-1.5648 1.7506,-1.5469 3.7336,-2.6087 4.4066,-2.3594 1.9451,0.7251 10.4398,-0.1131 12.3562,-1.2137 0.9604,-0.5514 2.2261,-0.8371 2.8125,-0.6349 0.5863,0.2026 2.8054,-0.4463 4.9312,-1.4412 2.1257,-0.995 5.1055,-1.6097 6.6217,-1.3658 1.5163,0.2438 3.4563,0.042 4.3114,-0.4495 0.855,-0.4909 2.1191,-0.6823 2.8089,-0.4251 2.2397,0.8349 6.5596,-2.0896 7.732,-5.2347 0.6202,-1.6637 1.0126,-5.389 0.872,-8.2782 -0.2874,-5.9087 1.5135,-14.7322 2.9015,-14.2148 0.4935,0.184 3.1165,-0.5538 5.8289,-1.6394 6.1425,-2.4585 7.585,-2.4884 21.9746,-0.4544 14.3473,2.0278 21.5281,3.8367 21.861,5.5068 0.3427,1.7193 -9.7105,6.1448 -12.0109,5.2872 -1.0307,-0.3842 -2.0991,-0.095 -2.3742,0.6432 -0.2751,0.738 -2.2326,1.8022 -4.3501,2.3651 -6.9604,1.85 -10.9005,4.191 -11.9947,7.1261 -1.0405,2.7915 -0.5377,3.6924 1.6316,2.9237 1.8957,-0.6717 8.1414,-0.1629 13.5743,1.1058 l 5.0615,1.1819 -0.4218,5.6962 c -0.6935,9.3668 -3.9168,15.824 -12.2064,24.4536 -1.2455,1.2966 -3.1152,3.6991 -4.1549,5.3391 -1.0497,1.6557 -3.8163,3.8277 -6.2217,4.8844 -3.5512,1.5602 -5.0652,1.6293 -8.4061,0.3839 -3.3334,-1.2426 -10.3869,-0.9335 -38.767,1.6989 -19.0808,1.7698 -35.375,3.4386 -36.2092,3.7083 -1.7859,0.5774 -7.333,14.6752 -7.3076,18.572 0.014,2.1089 2.0235,4.054 12.7446,12.3337 7.0006,5.4065 13.4288,10.5278 14.2847,11.3808 0.856,0.853 3.3884,3.0041 5.6277,4.7803 7.2676,5.765 17.3673,18.4939 15.9946,20.1586 -0.5119,0.6208 0.1906,2.0687 1.6831,3.4691 1.4089,1.322 3.1771,3.8756 3.9294,5.6747 0.7524,1.7992 1.9059,3.4717 2.5635,3.7169 0.6576,0.2451 1.3196,1.247 1.471,2.2264 0.1514,0.9794 1.94,2.6689 3.9744,3.7545 3.0664,1.6361 4.0087,2.9327 5.5084,7.579 0.995,3.0829 3.1276,8.331 4.739,11.6624 1.6114,3.3314 2.7564,6.5225 2.5443,7.0914 -0.2694,0.7228 -5.2278,-0.846 -16.4673,-5.2103 -13.8294,-5.3699 -16.5941,-6.1734 -19.7396,-5.7366 -2.0994,0.2915 -3.9334,1.2472 -4.3046,2.2432 -0.8572,2.2993 -4.0749,3.5054 -4.1234,1.5455 -0.022,-0.8848 -0.2839,-0.8044 -0.7198,0.2208 -0.7161,1.6865 -4.156,1.0921 -4.5297,-0.7826 -0.1139,-0.5714 -1.5894,-1.5203 -3.2789,-2.1089 -3.6608,-1.2752 -21.8875,-20.2243 -20.7774,-21.6009 0.401,-0.4974 0.3874,-1.3441 -0.03,-1.8817 -0.4175,-0.5376 -0.9217,-0.5415 -1.1203,-0.01 -0.1986,0.5327 -2.8988,-1.564 -6.0004,-4.6594 -3.1017,-3.0954 -6.6794,-6.3437 -7.9506,-7.2183 -1.2712,-0.8747 -2.4518,-2.6285 -2.6237,-3.8975 -0.2497,-1.8448 -0.664,-2.1844 -2.0671,-1.6945 -1.1446,0.3996 -1.6256,0.2661 -1.3834,-0.3838 0.2043,-0.5481 0.8675,-1.0954 1.4737,-1.2162 0.6433,-0.1282 1.1011,-1.2056 1.0998,-2.5879 0,-1.6528 -0.6624,-2.5088 -2.1875,-2.8337 -1.2018,-0.256 -2.4273,-1.3256 -2.7234,-2.3768 -0.2961,-1.0513 -2.1099,-2.6634 -4.0309,-3.5826 -1.9209,-0.9191 -3.6439,-2.3895 -3.8291,-3.2674 -0.2672,-1.2676 -0.4634,-1.2646 -0.9531,0.014 -0.3407,0.8852 -2.1255,1.793 -3.9696,2.0162 l -3.3529,0.4057 -3.8077,10.2144 c -3.3326,8.94 -4.0321,10.1916 -5.6072,10.0316 -1.7138,-0.1741 -1.7234,-0.1485 -0.2002,0.5372 1.4248,0.6414 1.1586,1.9021 -2.4402,11.5561 l -4.0395,10.8362 1.9347,3.4226 c 1.064,1.8824 2.4929,6.5863 3.1754,10.453 0.9748,5.5234 0.8552,8.3736 -0.5578,13.2968 -0.9892,3.4466 -1.6031,6.8739 -1.3641,7.6163 0.2995,0.9304 -0.1768,0.9804 -1.533,0.161 -2.1187,-1.2803 -3.0392,-0.6269 -11.7805,8.3625 -2.4088,2.4772 -4.7754,4.3564 -5.2591,4.1761 -0.4838,-0.1804 -1.4145,0.4332 -2.0683,1.3634 -2.4006,3.4158 -3.231,0.9082 -1.3607,-4.1091 4.0045,-10.7423 3.1109,-13.3732 -6.8621,-20.2028 -5.2195,-3.5744 -5.923,-4.7445 -5.3011,-8.8178 0.2697,-1.7665 0.2223,-4.4766 -0.1053,-6.0223 -0.4209,-1.9861 0.521,-6.1736 3.2117,-14.2774 2.3927,-7.206 3.6885,-12.6629 3.4872,-14.6853 -0.1763,-1.7701 -0.1484,-3.6807 0.062,-4.2458 0.2103,-0.5652 0.1219,-4.0805 -0.1962,-7.8118 -0.5872,-6.8862 -1.3398,-8.0927 -6.5306,-10.4699 -4.0781,-1.8676 -14.7534,2.5111 -21.981,9.0161 -5.7744,5.1971 -14.4104,9.6316 -16.9287,8.6928 -0.8437,-0.3145 -2.0739,-0.3476 -2.7337,-0.073 -1.5736,0.6538 -20.53538,-4.3252 -30.18448,-7.9258 -7.1571,-2.6712 -7.8181,-2.7346 -11.5798,-1.118 -2.4951,1.0724 -4.9752,1.3471 -6.6215,0.7334 -1.4477,-0.5397 -3.1634,-0.78 -3.8127,-0.534 -1.0721,0.4061 -8.906,0.062 -10.2845,-0.4522 -1.6748,-0.6244 4.6854,-4.9997 12.3182,-8.474 4.7803,-2.1758 8.921,-4.5718 9.2015,-5.3242 0.7241,-1.9424 4.3142,-5.3866 5.2508,-5.0374 0.4326,0.1612 1.0707,-0.469 1.418,-1.4005 0.4106,-1.1015 2.2451,-1.7685 5.2468,-1.9076 9.9825,-0.4626 14.0369,-1.1596 15.1708,-2.6082 0.6506,-0.8312 1.9346,-1.2311 2.8532,-0.8887 3.032,1.1303 10.90288,-1.8872 17.87608,-6.8532 3.7769,-2.6897 7.1176,-5.5623 7.4237,-6.3834 0.3061,-0.8212 1.1003,-1.4739 1.7648,-1.4506 0.8331,0.029 1.2047,-1.9317 1.1965,-6.3131 -0.01,-3.4955 0.4915,-8.0888 1.1068,-10.2073 1.9415,-6.685 2.4117,-11.374 1.1862,-11.8309 -0.6512,-0.2427 -0.9509,-1.8921 -0.6658,-3.6653 0.2851,-1.7732 0.071,-4.3743 -0.4755,-5.7802 -0.5467,-1.4059 -0.7877,-7.1492 -0.5355,-12.7628 0.2521,-5.6136 0.3086,-11.1154 0.1256,-12.2262 -0.1831,-1.1109 -0.349,-4.6009 -0.3687,-7.7556 -0.045,-7.2004 -2.8699,-13.4901 -6.7,-14.9178 -1.7918,-0.668 -2.6227,-1.5224 -2.3061,-2.3716 0.2721,-0.73 0.033,-1.6996 -0.5309,-2.1545 -0.5641,-0.4549 -1.2048,-0.3466 -1.4239,0.2411 -0.2498,0.6702 -1.2062,0.069 -2.5677,-1.6126 -1.1932,-1.4743 -2.5117,-2.5243 -2.9299,-2.3332 -0.4182,0.1911 -2.2306,3.0546 -4.0275,6.3635 -1.79688,3.3088 -3.79848,6.3356 -4.44808,6.7262 -0.6494,0.3907 -3.2284,3.3088 -5.7311,6.4847 -8.6862,11.0233 -18.0312,22.1185 -21.4655,25.4858 -1.8991,1.862 -4.2909,4.5723 -5.3151,6.0228 -1.024,1.4506 -3.8763,5.4884 -6.3383,8.9729 -7.0911,10.0366 -12.4279,16.644 -14.927,18.4812 -1.2707,0.9342 -2.6248,2.542 -3.0091,3.5729 -0.3843,1.031 -2.5008,2.8436 -4.7033,4.0281 -2.2024,1.1846 -4.1671,2.59 -4.3659,3.1232 -0.1987,0.5332 -0.73,0.9922 -1.1806,1.0199 -0.9396,0.058 -6.0535,6.2877 -10.2853,12.5299 -2.7978,4.1273 -2.8698,4.5556 -2.3128,13.7811 0.3161,5.2368 1.768,13.7021 3.2264,18.8119 1.4585,5.1098 2.3158,10.2175 1.9053,11.3505 -0.4106,1.133 -0.4544,2.4359 -0.098,2.8952 0.3569,0.4593 0.3663,3.1503 0.021,5.98 -0.3452,2.8297 -0.4429,7.1198 -0.2171,9.5336 0.2257,2.4138 0.1908,5.7548 -0.078,7.4244 -0.2684,1.6696 -0.2054,3.3995 0.14,3.8442 0.3453,0.4446 0.1185,2.175 -0.5041,3.8453 -0.6226,1.6702 -0.833,3.6914 -0.4674,4.4915 0.8755,1.9162 0.2502,18.5483 -0.9603,25.5425 -0.5248,3.0327 -0.7897,6.0556 -0.5885,6.7176 1.7272,5.6829 -8.0067,37.8951 -30.3225,100.3463 -11.578,32.4011 -12.1204,33.6981 -15.9283,38.0852 -2.1682,2.498 -4.2463,4.4285 -4.618,4.2899 -0.3715,-0.1385 -2.3948,1.8687 -4.4961,4.4605 -3.751,4.6267 -7.6789,7.9449 -13.509,11.4124 -1.6151,0.9606 -5.5036,3.9605 -8.6413,6.6664 -6.2454,5.3862 -12.9155,8.6035 -15.6915,7.5687 -1.4025,-0.5228 -2.7172,0.6158 -6.2456,5.4092 -2.458,3.3392 -7.5,9.9841 -11.2044,14.7664 l -6.7355,8.695 -0.4712,7.8285 c -0.4036,6.7043 -1.2403,9.8941 -5.8272,22.2126 -3.804,10.2045 -6.0521,15.1014 -7.7525,16.8536 -1.3179,1.3584 -4.286,4.8869 -6.5955,7.8413 -9.8652,12.6193 -11.1182,15.0073 -19.0732,36.3472 -7.2718,19.5073 -7.9061,20.8459 -12.5024,26.3816 -2.6631,3.2074 -5.3636,7.231 -6.0012,8.9413 -0.6376,1.7104 -1.6441,3.3852 -2.2368,3.7219 -1.4786,0.84 -5.1881,5.6725 -7.6115,9.9159 -3.7674,6.5963 -10.2537,13.9307 -11.4142,12.9063 -0.6758,-0.5966 -1.3338,-0.2824 -1.7507,0.8357 -0.3673,0.9854 -2.1672,2.0595 -3.9999,2.3868 -3.4146,0.6099 -4.3913,1.6027 -16.6242,16.8992 -2.8025,3.5044 -5.4881,6.2252 -5.9681,6.0463 -0.4798,-0.1789 -1.0238,0.081 -1.2087,0.5766 -0.8432,2.2618 -8.4066,10.0087 -10.7009,10.9603 -1.4044,0.5826 -3.1765,2.4227 -3.938,4.0891 -0.9511,2.0814 -2.1234,3.0843 -3.7444,3.2037 -1.2978,0.096 -2.4775,0.4899 -2.6215,0.8762 -0.5329,1.4296 -8.2335,6.2173 -9.3771,5.8301 -0.6515,-0.2206 -1.3959,0.1661 -1.6543,0.8592 -0.2584,0.6932 -1.5844,1.7039 -2.9465,2.246 -1.3622,0.5421 -2.3864,1.4387 -2.276,1.9925 0.1104,0.5539 -0.5295,1.014 -1.4219,1.0226 -0.8925,0.01 -2.6364,1.2804 -3.8754,2.8265 -1.3414,1.6737 -2.5705,2.4018 -3.0383,1.7996 -0.4899,-0.6307 -0.7796,-0.3864 -0.7696,0.6493 0.01,1.0339 -1.7761,2.5488 -4.7322,4.0139 -2.6115,1.2943 -4.8718,2.6231 -5.0228,2.9528 -0.1507,0.3299 -5.0038,1.6909 -10.7838,3.0249 -6.5301,1.507 -11.6504,3.3732 -13.5235,4.929 -3.2239,2.6779 -3.2238,2.6778 -9.2294,5.9632 -2.1774,1.1912 -4.4291,2.7531 -5.0036,3.4709 -0.5745,0.7177 -3.3897,1.4857 -6.256,1.7067 -2.8664,0.2209 -8.9202,0.6882 -13.4531,1.0385 -4.5329,0.3502 -11.0334,0.3962 -14.4456,0.1022 -3.4122,-0.294 -8.8669,-0.6092 -12.1216,-0.7003 -7.564,-0.2118 -14.823,-2.9817 -20.4591,-7.8068 -2.4473,-2.0952 -7.3172,-6.1014 -10.8219,-8.9027 -3.5048,-2.8014 -6.2469,-5.43 -6.0935,-5.8413 0.1533,-0.4114 -3.1696,-5.016 -7.3843,-10.2325 -8.5709,-10.6081 -8.3191,-10.0138 -18.3407,-43.3008 l -6.7546,-22.4357 -2.1998,-37.0342 c -1.8276,-30.7693 -1.9953,-43.6213 -0.991,-75.9728 1.6049,-51.696 1.6646,-51.0183 -5.442,-61.6855 -5.0162,-7.5296 -5.9812,-9.9345 -8.3074,-20.706 -3.3675,-15.5936 -2.9917,-20.3335 2.8564,-36.0214 2.6341,-7.0663 5.0242,-15.2204 5.6217,-19.1788 0.5716,-3.7873 2.5524,-13.6634 4.4019,-21.9467 2.7415,-12.2785 3.3978,-17.7775 3.5531,-29.768 l 0.1904,-14.7074 7.2152,-19.3552 c 4.6391,-12.4449 9.2815,-27.0474 13.0029,-40.9003 4.4805,-16.678 7.0748,-24.5608 11.4846,-34.8954 l 5.6966,-13.3506 23.5163,-24.8518 c 31.5298,-33.3204 54.1474,-56.3265 58.5295,-59.535 1.9807,-1.4502 3.6897,-2.874 3.7978,-3.164 0.1081,-0.2899 6.5601,-6.0559 14.3378,-12.8132 7.7777,-6.7573 15.5699,-14.1829 17.3159,-16.5013 l 3.1747,-4.2154 -4.2181,-10.8555 c -2.3201,-5.9706 -6.2592,-16.419 -8.7538,-23.2186 -7.0912,-19.3293 -13.8526,-27.4234 -73.7674,-88.3087 l -23.6854,-24.0691 -12.6025,-5.122 c -6.9313,-2.817 -12.3037,-4.7373 -11.9387,-4.2674 0.3652,0.4701 -4.649,0.6481 -11.1427,0.3956 l -11.8065,-0.4591 -15.3568,7.0408 c -8.4462,3.8725 -15.7119,6.6168 -16.146,6.0986 -0.434,-0.5183 -0.613,-0.4978 -0.3978,0.045 0.2153,0.5432 -1.8308,2.2822 -4.5469,3.8645 -3.7229,2.1689 -5.042,2.4971 -5.3594,1.3336 -0.3208,-1.1754 -0.4416,-1.1556 -0.5069,0.083 -0.071,1.3362 -14.3785,11.3974 -21.8192,15.3429 -0.9412,0.4991 -3.7014,2.2437 -6.1338,3.8769 -3.1733,2.1306 -4.5069,2.5463 -4.7211,1.4716 -0.2318,-1.1628 -0.564,-1.1972 -1.4853,-0.1535 -0.6527,0.7393 -1.0981,1.7886 -0.9898,2.3317 0.1082,0.5432 -3.4479,3.2608 -7.9025,6.0392 l -8.0993,5.0517 10.5088,4.6718 c 6.3667,2.8304 14.4302,7.3335 20.4579,11.4248 6.1695,4.1876 12.9376,7.9527 17.8155,9.9109 9.2499,3.7133 10.1679,4.3695 8.6153,6.1575 -0.9601,1.106 -0.8448,1.2358 0.6504,0.7324 2.2585,-0.7603 5.5624,1.3958 7.32,4.7771 0.7372,1.4184 1.6422,2.1847 2.0279,1.7172 0.4758,-0.5768 1.9106,-0.02 4.529,1.7577 4.744,3.2208 5.3548,4.2904 2.9332,5.1359 -1.573,0.5492 -1.7967,0.4041 -1.3257,-0.8596 0.3117,-0.8361 0.1901,-1.6606 -0.27,-1.8321 -1.2625,-0.4707 -3.4208,2.363 -2.4165,3.1727 0.4807,0.3877 -1.571,1.8939 -4.5596,3.3472 -2.9885,1.4532 -5.7061,2.2915 -6.0392,1.8628 -0.333,-0.4287 -0.8505,-0.1221 -1.15,0.6813 -0.3687,0.9892 -1.4269,1.1319 -3.2775,0.442 -1.5031,-0.5603 -3.0435,-0.6336 -3.423,-0.1629 -0.3796,0.4708 -2.1699,0.508 -3.9786,0.083 -1.8086,-0.4252 -4.0492,-0.2718 -4.9791,0.3409 -2.1298,1.4033 -11.0577,-0.6078 -10.4101,-2.345 0.3288,-0.8819 0.024,-1.0291 -1.2271,-0.5924 -1.0806,0.3773 -7.7305,-1.6208 -18.9546,-5.6952 -15.0867,-5.4765 -17.8241,-6.2117 -21.4811,-5.7692 -2.3051,0.2789 -4.4055,1.0822 -4.6675,1.7851 -0.262,0.7028 -1.4604,1.4111 -2.663,1.574 -1.5995,0.2165 -2.7069,1.4576 -4.1244,4.6224 -1.7877,3.9912 -1.7574,4.6724 0.3904,8.7931 1.2805,2.4567 1.9878,4.7311 1.5718,5.0542 -0.4159,0.3231 0.2112,2.0163 1.3936,3.7626 1.8437,2.7228 1.8865,3.2158 0.3008,3.4609 -2.6307,0.4067 -1.8499,2.5846 1.0421,2.9066 1.8502,0.2061 2.1773,0.5477 1.3845,1.4458 -1.5438,1.7487 -0.8856,3.8268 1.0031,3.1674 1.9675,-0.687 2.5295,0.569 1.4957,3.3424 -0.4483,1.2025 -0.2812,2.3853 0.3712,2.6285 1.3744,0.5124 4.2391,12.1091 3.1179,12.6213 -0.4127,0.1886 -0.1292,1.2451 0.63,2.3477 0.7591,1.1026 1.0748,2.8242 0.7015,3.8257 -0.3733,1.0015 -0.2642,1.9754 0.2424,2.1643 1.4065,0.5243 2.3586,11.3268 1.0218,11.5933 -2.2676,0.452 -2.1541,2.7453 0.1475,2.9786 1.8373,0.1863 2.0016,0.4851 0.9324,1.6962 -0.7138,0.8085 -1.0098,1.8559 -0.6579,2.3275 0.3519,0.4717 0.5847,1.8689 0.5172,3.105 -0.098,1.7997 -1.8144,3.0733 -8.6147,6.3936 -4.6706,2.2804 -8.6528,4.5437 -8.8494,5.0294 -0.1966,0.4858 0.4829,2.801 1.5099,5.1451 1.4194,3.2395 1.5017,4.3348 0.343,4.5658 -1.2156,0.2423 -1.2668,0.5314 -0.2527,1.4266 0.6995,0.6175 1.0128,1.8177 0.6962,2.667 -0.4037,1.0829 0.039,1.6065 1.481,1.7527 1.5256,0.1547 1.8848,0.6698 1.3909,1.9948 -0.3663,0.9825 -1.0876,1.6291 -1.6029,1.437 -1.8221,-0.6792 -2.689,4.1684 -0.9842,5.5029 0.9088,0.7114 1.3679,2.0565 1.0202,2.9892 -0.5468,1.4668 -1.2084,1.4059 -4.901,-0.4514 -2.3479,-1.181 -4.2779,-2.4737 -4.2889,-2.8726 -0.011,-0.399 -1.1276,-3.5076 -2.4813,-6.9082 -1.531,-3.8458 -2.0619,-6.6929 -1.4047,-7.5326 0.7375,-0.9423 0.3914,-1.8076 -1.1462,-2.8657 -1.349,-0.9283 -2.2544,-2.7684 -2.336,-4.7477 -0.073,-1.7776 -0.5593,-3.0373 -1.0802,-2.7993 -0.5208,0.238 -0.3794,-0.2103 0.3143,-0.996 0.8905,-1.0086 0.7917,-1.7585 -0.3358,-2.5509 -1.6691,-1.1731 -3.4444,-9.0007 -2.5721,-11.3408 0.2776,-0.7446 -0.04,-1.8351 -0.7067,-2.4233 -0.6663,-0.5882 -1.2896,-2.4327 -1.3851,-4.099 -0.096,-1.6662 -0.375,-3.3447 -0.621,-3.7299 -0.2461,-0.3852 -2.2489,-10.2566 -4.4509,-21.9364 -2.2019,-11.6798 -4.7972,-22.7325 -5.7673,-24.5615 -5.8699,-11.0673 -6.1026,-11.3525 -10.3931,-12.7438 -7.0326,-2.2804 -9.5584,-2.7449 -10.6445,-1.9576 -0.5737,0.4159 -1.8744,0.7533 -2.8904,0.7498 -1.1191,0 -1.841,0.6427 -1.8314,1.6407 0.01,1.061 -0.5201,1.4473 -1.49,1.0857 -0.8282,-0.3087 -1.663,-0.1396 -1.8551,0.3757 -0.1921,0.5154 0.2832,1.1728 1.0562,1.461 2.1057,0.7849 1.1037,2.2114 -1.3766,1.9599 -1.2221,-0.1239 -2.1715,0.3898 -2.1798,1.1795 -0.01,0.7695 -0.9326,1.8973 -2.0545,2.5063 -1.8338,0.9955 -1.945,1.3454 -1.101,3.4662 1.2281,3.0861 -1.2564,6.8782 -4.1083,6.2703 -1.1297,-0.2408 -2.4692,0.081 -2.9767,0.7141 -0.6641,0.8291 -0.3078,1.2142 1.2717,1.3744 2.6371,0.2674 2.1048,2.7179 -1.0323,4.7523 -1.1157,0.7235 -2.1454,2.3058 -2.2883,3.5162 -0.1983,1.6794 -0.6544,2.0151 -1.925,1.4169 -1.1951,-0.5626 -2.0292,-0.069 -2.9549,1.7498 -1.1585,2.2755 -1.0637,2.503 0.9304,2.233 1.9528,-0.2644 2.0666,-0.071 0.9444,1.6064 -0.7018,1.0489 -1.9925,2.1492 -2.8681,2.445 -0.8756,0.2959 -2.4097,2.2318 -3.409,4.3019 -0.9994,2.0701 -2.8176,4.2828 -4.0405,4.917 -2.7924,1.4481 -3.5548,3.2943 -1.3517,3.2732 1.1489,-0.011 0.4983,0.8151 -2.0901,2.6543 -2.0671,1.4686 -3.8939,3.3795 -4.0598,4.2464 -0.402,2.1016 -5.6654,8.6096 -6.6624,8.238 -0.4329,-0.1614 -0.6106,-0.7667 -0.395,-1.3452 0.2709,-0.7266 -0.1768,-0.8531 -1.4483,-0.4092 -2.3767,0.8298 -2.8997,2.2328 -0.8249,2.2129 1.0236,-0.01 1.3998,0.5394 1.0366,1.5135 -0.6073,1.6291 -4.5505,2.0595 -10.0123,1.0927 -0.2753,-0.049 -0.035,0.5944 0.5344,1.4293 0.7789,1.1423 0.7013,1.5275 -0.3134,1.5566 -0.7417,0.021 -1.719,1.0327 -2.172,2.2478 -0.4529,1.215 -1.3507,2.3142 -1.9952,2.4427 -0.6444,0.1284 -1.0677,0.7549 -0.9407,1.3921 0.127,0.6372 -0.9501,1.7633 -2.3936,2.5024 -1.4435,0.7392 -3.26,2.1778 -4.0367,3.1971 -0.7767,1.0192 -1.8603,1.5758 -2.4081,1.2368 -0.5478,-0.3391 -1.3778,0.2017 -1.8445,1.2017 -1.477,3.1649 -12.177,11.0664 -13.7173,10.1297 -1.1912,-0.7243 -0.7022,-2.8314 3.3159,-14.2872 2.5922,-7.3908 4.3509,-13.5727 3.9082,-13.7377 -0.4427,-0.1651 -0.3855,-2.2875 0.1271,-4.7166 0.5126,-2.4292 0.6233,-7.0703 0.246,-10.3137 -0.6453,-5.5479 -0.2057,-7.5619 3.4546,-15.8263 0.9145,-2.0647 3.7138,-1.0723 2.9272,1.0378 -0.4294,1.152 -0.2047,1.4152 0.8117,0.9508 1.776,-0.8115 1.353,-5.5614 -0.463,-5.1994 -0.8077,0.161 -0.7049,-0.4202 0.3051,-1.724 3.0917,-3.9911 4.5653,-5.4451 5.7598,-5.6832 0.6732,-0.1342 1.624,-1.3169 2.1128,-2.6283 1.2519,-3.3583 11.5257,-16.4257 12.2157,-15.5373 0.3136,0.4037 0.9783,-1.0617 1.4771,-3.2565 0.4989,-2.1948 1.6798,-4.7562 2.6242,-5.6922 0.9444,-0.9359 2.6145,-2.6878 3.7113,-3.8931 1.0968,-1.2053 2.4249,-2.0309 2.9513,-1.8347 0.5264,0.1962 1.1326,-0.114 1.3471,-0.6895 0.2181,-0.585 -0.5168,-1.1382 -1.6667,-1.2548 -2.2121,-0.2243 -2.0989,-2.5375 0.146,-2.985 0.6938,-0.1383 1.4592,-1.4178 1.7009,-2.8434 0.2417,-1.4256 1.084,-3.3364 1.8719,-4.2464 0.7878,-0.91 2.169,-4.7297 3.0693,-8.4884 1.4997,-6.2613 1.4264,-7.2919 -0.8741,-12.2987 l -2.511,-5.4647 -5.9115,-1.3192 c -3.2513,-0.7257 -7.7984,-2.203 -10.1046,-3.283 -2.9648,-1.3884 -4.6933,-1.6764 -5.9007,-0.983 -0.9392,0.5393 -2.1043,0.8328 -2.589,0.6521 -0.4848,-0.1807 -4.0849,-0.031 -8.0004,0.3323 -3.9155,0.3634 -7.6601,0.1832 -8.3213,-0.4004 -0.662,-0.5844 -1.3943,-0.5485 -1.6297,0.08 -0.6319,1.6866 -33.5254,3.4388 -35.4687,1.8893 -1.0508,-0.8378 -1.2967,-0.8329 -0.732,0.014 0.6018,0.9032 -0.6113,1.4161 -4.1512,1.7549 -2.7508,0.2633 -5.5028,0.2919 -6.1155,0.063 -0.6127,-0.2284 -2.3315,-2.9909 -3.8195,-6.139 l -2.7055,-5.7236 -15.1984,-0.026 c -8.3591,-0.014 -15.0622,-0.391 -14.8957,-0.8376 0.1665,-0.4467 -0.3298,-1.0479 -1.1028,-1.336 -0.773,-0.2882 -1.5627,-0.1023 -1.7548,0.413 -0.1921,0.5154 -1.2175,0.6134 -2.2786,0.2178 -1.1288,-0.4207 -1.5182,-1.0386 -0.9385,-1.4889 0.547,-0.4248 0.1845,-1.3364 -0.8092,-2.0347 -1.3569,-0.9536 -1.4809,-1.7049 -0.5039,-3.0509 2.8573,-3.9361 4.969,-5.2191 7.213,-4.3826 1.3734,0.512 2.6856,0.2625 3.3179,-0.6308 1.3677,-1.9323 12.4769,-4.4719 13.9341,-3.1855 0.6205,0.5478 1.3213,0.4781 1.5572,-0.1547 0.5645,-1.5143 5.1859,-2.5379 7.5435,-1.6708 1.9908,0.7325 6.9271,-3.1773 8.279,-6.5571 1.0133,-2.5333 8.0601,-6.0377 10.3925,-5.1683 2.2222,0.8284 3.9948,-0.2318 2.5706,-1.5374 -1.3173,-1.2075 2.1276,-2.2315 3.5156,-1.0451 0.5277,0.4511 1.217,0.5344 1.5318,0.1851 0.6571,-0.7288 16.6926,-0.2796 18.86,0.5283 0.7912,0.2949 3.4311,0.2945 5.8664,-9e-4 2.7854,-0.3379 5.3281,0.01 6.8544,0.9358 1.6649,1.0106 2.7563,1.0992 3.4774,0.2823 0.578,-0.6547 1.5339,-1.0134 2.1241,-0.797 0.5901,0.2168 2.4497,0.2219 4.1321,0.012 1.7761,-0.2214 3.1488,0.069 3.2731,0.6931 0.3254,1.6323 1.9144,1.9014 2.4674,0.4179 0.2693,-0.7226 1.8908,-1.2839 3.6033,-1.2472 2.5952,0.055 3.0867,0.3546 2.9524,1.7966 -0.1316,1.4128 0.1035,1.3949 1.2822,-0.098 0.7939,-1.0053 2.3601,-1.7825 3.4805,-1.727 1.1204,0.056 3.989,-1.7469 6.3746,-4.0052 2.3857,-2.2584 4.603,-3.7645 4.9274,-3.3468 0.8299,1.0684 1.6599,-1.5234 0.9708,-3.0317 -0.6704,-1.4672 1.6841,-5.1701 2.9801,-4.687 0.9944,0.3707 0.5432,-0.8484 -4.1808,-11.2956 -2.3095,-5.1076 -7.0416,-11.8388 -16.1816,-23.018 -10.2619,-12.5513 -13.8676,-17.8124 -17.5386,-25.5908 -2.8295,-5.9954 -4.3401,-10.5448 -3.8965,-11.7348 1.8486,-4.959 -1.6005,-11.0534 -14.0505,-24.8272 -3.3947,-3.7556 -4.271,-6.1853 -3.2342,-8.9667 0.5466,-1.4662 0.5721,-2.823 0.057,-3.0151 -0.5154,-0.1921 -0.7799,-0.7709 -0.5878,-1.2863 0.5344,-1.4334 2.915,-0.183 3.9456,2.0725 0.5054,1.1063 1.4158,1.9124 2.0229,1.7914 0.6071,-0.121 1.2501,0.86 1.4288,2.18 0.2448,1.8075 0.6899,2.2333 1.803,1.7248 1.113,-0.5086 1.2174,-1.0306 0.4225,-2.1145 -0.7792,-1.0626 -0.4028,-1.0644 1.4381,-0.01 1.3714,0.7877 2.905,2.1489 3.4081,3.0249 0.7021,1.2228 1.342,1.4435 2.7549,0.9502 1.5375,-0.5368 1.7184,-0.3153 1.099,1.3463 -0.7832,2.1008 0.4447,3.2886 1.7396,1.6827 0.5298,-0.6571 1.3032,-0.2117 2.5299,1.4568 1.6512,2.246 2.1318,2.401 7.3451,2.3681 7.1779,-0.045 8.9827,0.6839 9.1819,3.7095 0.156,2.3703 0.229,2.3584 1.9661,-0.3221 2.07,-3.1942 3.9415,-3.9517 3.9641,-1.6044 0.01,0.8838 0.686,1.6004 1.5058,1.5925 0.8197,-0.01 1.9128,0.9102 2.429,2.0402 0.5163,1.1299 1.7027,2.3392 2.6365,2.6873 0.9338,0.348 1.6005,1.593 1.4815,2.7665 -0.1806,1.7815 0.1562,2.0832 2.0409,1.828 3.0709,-0.4158 3.7137,-0.057 2.4547,1.3688 -0.5848,0.6625 -0.6549,1.3567 -0.1557,1.5428 0.4992,0.1861 1.0737,-0.1071 1.2767,-0.6516 0.5892,-1.5806 4.9291,4.3267 5.1363,6.9912 0.1034,1.33 1.2429,3.2928 2.5321,4.3618 1.2893,1.0689 2.3513,2.6894 2.3601,3.6009 0.01,0.9116 0.6316,1.8869 1.3843,2.1675 0.942,0.3511 0.9653,1.025 0.075,2.1624 -0.742,0.9478 -0.867,1.8113 -0.2932,2.0251 0.5501,0.2051 1.2106,-0.149 1.4679,-0.7868 0.8683,-2.1526 2.5121,4.6176 1.6697,6.8772 -0.8186,2.196 0.083,3.0471 4.736,4.4728 0.9642,0.2954 0.9879,0.4674 0.072,0.5229 -2.2964,0.1391 -2.1375,1.7512 0.2607,2.6452 3.161,1.1783 4.8861,2.8729 4.3603,4.2832 -0.2452,0.6578 0.3536,1.7578 1.3306,2.4444 0.9771,0.6867 1.4151,1.5292 0.9733,1.8723 -0.4417,0.3431 -0.644,1.3806 -0.4495,2.3055 0.2897,1.3779 0.4437,1.4479 0.8523,0.3875 0.274,-0.7119 1.8602,1.4402 3.5241,4.7822 1.6639,3.3419 3.4407,6.2311 3.9484,6.4204 0.5078,0.1893 3.7899,-1.2286 7.2936,-3.1509 3.5037,-1.9222 6.9473,-3.2799 7.6525,-3.017 0.7051,0.2628 1.1924,0.028 1.0827,-0.5222 -0.2426,-1.2174 23.7661,-14.3367 24.8254,-13.5656 0.4131,0.3008 0.9575,-0.01 1.2096,-0.6832 0.2522,-0.6765 7.8253,-5.1772 16.829,-10.0017 9.0038,-4.8244 35.7679,-20.9909 59.4759,-35.9255 56.3152,-35.4751 77.6893,-46.8121 83.8953,-44.4986 1.1463,0.4273 4.0461,0.8115 6.4441,0.8538 2.398,0.042 9.6358,1.7232 16.0842,3.7354 l 11.7241,3.6584 11.6701,8.7747 c 6.4185,4.8261 11.6578,9.2371 11.6427,9.8022 -0.015,0.5652 0.5796,1.2538 1.3213,1.5303 0.7418,0.2765 3.975,3.5228 7.1852,7.2141 3.983,4.5801 5.5475,7.112 4.9266,7.973 -0.7051,0.9778 -0.614,1.0593 0.4047,0.362 1.0172,-0.6964 3.3904,1.4708 10.4956,9.5841 7.4302,8.4844 11.4636,14.4887 21.1483,31.482 8.4081,14.7535 13.4686,22.4911 17.0159,26.0181 4.8992,4.8708 9.5352,7.4823 12.1832,6.8626 2.1431,-0.5017 5.5595,-5.6678 9.1917,-13.8996 1.8904,-4.2846 2.6252,-6.4893 1.6327,-4.8994 -1.7389,2.7851 -1.8243,2.4809 -2.3439,-8.3443 -0.2966,-6.1792 -3.1277,-30.6632 -6.2914,-54.4088 l -5.7523,-43.174 -7.2356,-20.8984 c -3.9796,-11.4941 -10.2928,-29.0323 -14.0292,-38.9737 -3.7364,-9.9412 -7.9725,-23.3772 -9.4135,-29.8576 -2.3931,-10.7618 -3.5901,-13.5475 -13.8209,-32.1636 -9.7273,-17.6998 -12.2912,-23.516 -19.4872,-44.2051 -14.6814,-42.2102 -19.3975,-60.8161 -25.8124,-101.8358 -3.1562,-20.1814 -7.6145,-54.2112 -9.9074,-75.6217 -2.2929,-21.4104 -5.243,-46.8145 -6.5557,-56.4535 l -2.3868,-17.5253 5.0406,-23.6406 c 2.7724,-13.0024 8.2866,-40.72044 12.254,-61.59564 5.0539,-26.593 8.8225,-43.5582 12.5889,-56.6724 7.227,-25.1638 9.62,-40.7203 9.5357,-61.9899 -0.063,-16.0227 -1.0998,-27.9148 -2.6012,-29.8476 -0.3587,-0.4619 1.3703,-6.2655 3.8423,-12.8969 l 4.4946,-12.057 -5.6327,-9.0523 c -4.0515,-6.5111 -7.1522,-10.2229 -11.0457,-13.2222 l -5.413,-4.1699 -11.4296,-0.5737 c -6.2863,-0.3155 -23.2045,-2.317 -37.5962,-4.4475 -14.3916,-2.1305 -32.4033,-4.5356 -40.0259,-5.3445 -7.6225,-0.8089 -14.7622,-1.6249 -15.8659,-1.8134 -1.1036,-0.1886 -2.7356,-0.3198 -3.6265,-0.2917 -7.1694,0.2259 -59.8017,-8.3315 -71.9458,-11.6975 -3.724,-1.0322 -10.861,-3.1437 -15.86,-4.6924 -15.6684,-4.8538 -36.6752,-10.3121 -50.8381,-13.2094 l -13.6346,-2.7892 -12.0349,-6.7302 -12.035,-6.7301 -11.0281,-15.1414 c -6.0654,-8.3279 -12.981,-19.1782 -15.368,-24.1118 l -4.3401,-8.9702 -1.3799,-28.2622 c -0.7589,-15.5442 -2.7414,-39.8154 -4.4055,-53.9361 -1.664,-14.1206 -3.0588,-28.3277 -3.0995,-31.5712 -0.041,-3.2435 -0.2203,-7.8728 -0.3991,-10.2874 -0.751,-10.1401 -1.284,-29.1977 -0.8492,-30.3642 0.2584,-0.6931 0.1757,-1.3699 -0.1837,-1.5039 -0.3595,-0.134 -0.6602,-2.5272 -0.6682,-5.3183 -0.01,-2.7912 -1.0111,-14.4443 -2.229,-25.8961 -2.0092,-18.8914 -2.4975,-21.1901 -5.2683,-24.8017 -1.6796,-2.1894 -3.0607,-4.3917 -3.069,-4.8941 -0.01,-0.5024 -0.5148,-1.0995 -1.1252,-1.3271 -0.6105,-0.2276 -2.3154,-2.1126 -3.7888,-4.189 l -2.6789,-3.7753 -17.3909,-5.3188 c -9.565,-2.9252 -20.6504,-5.9863 -24.6343,-6.8023 l -7.2433,-1.4836 -10.6157,6.3105 c -5.8386,3.4708 -12.1596,7.4158 -14.0466,8.7668 -1.8871,1.3509 -4.3069,2.7508 -5.3772,3.1107 -1.0704,0.36 -2.0773,0.9451 -2.2376,1.3003 -0.2894,0.6411 -5.7195,5.0607 -7.8796,6.4133 -0.6197,0.3879 -1.9203,1.3439 -2.8903,2.1242 -0.97,0.7803 -2.0962,1.225 -2.5027,0.988 -0.4066,-0.2369 -5.1879,5.0645 -10.6252,11.7807 -6.262197,7.7351 -10.352897,12.0374 -11.159497,11.7367 -0.7401,-0.2758 -1.2671,0.1901 -1.2582,1.1125 0.01,0.9081 -3.2231,3.8894 -7.5522,6.9669 -6.3781,4.5341 -8.3408,5.386 -12.4883,5.4204 l -4.9208,0.041 0.9549,-1.9632 c 0.5251,-1.0797 0.5131,-1.3223 -0.027,-0.539 -0.5399,0.7833 -1.8364,1.7227 -2.8811,2.0873 -1.5656,0.5466 -1.9917,0.3359 -2.4239,-1.1987 -0.5239,-1.86 -0.9772,-2.3525 -2.7849,-3.0264 -0.5281,-0.1968 -0.968,-1.5523 -0.9775,-3.012 -0.011,-1.7514 -0.5702,-2.6489 -1.6432,-2.6385 -1.0893,0.01 -1.6321,-0.926 -1.6445,-2.8373 -0.028,-4.3025 0.7489,-5.3872 1.6877,-2.3565 l 0.8369,2.7013 1.3144,-2.8862 c 1.6012,-3.5161 4.244,-4.3775 4.2365,-1.3807 0,1.1489 0.3784,2.2319 0.8472,2.4067 1.4675,0.547 3.9484,-1.3859 3.9323,-3.0637 -0.01,-0.9087 0.7077,-1.611 1.6528,-1.6201 1.6564,-0.016 3.3106,-2.7667 2.5996,-4.3227 -0.2041,-0.4469 -1.3162,-0.6844 -2.4713,-0.528 -1.7112,0.2317 -1.9761,-0.048 -1.4306,-1.5114 0.7033,-1.8869 -1.9542,-6.7826 -6.2355,-11.4874 -2.5,-2.7472 -2.5026,-2.8647 -0.1598,-7.4215 1.3092,-2.5465 2.2257,-5.3191 2.0366,-6.1612 -0.5059,-2.2533 1.9138,-5.7033 3.8667,-5.5132 1.4779,0.1439 1.4897,0.073 0.093,-0.5552 -2.4542,-1.1048 -1.356,-2.3712 3.2758,-3.7775 2.3166,-0.7034 4.421,-1.8396 4.6765,-2.5249 0.587,-1.5749 6.9266,-4.8168 8.3682,-4.2794 0.5945,0.2216 1.3167,-0.2295 1.6049,-1.0026 0.2882,-0.773 1.6574,-1.2253 3.0428,-1.0052 1.8813,0.299 2.8544,-0.2595 3.8446,-2.2062 1.5934,-3.1324 5.3787,-6.0899 7.0142,-5.4803 0.6494,0.2421 1.8458,-0.6346 2.6588,-1.9482 1.687697,-2.7267 27.319097,-13.051 28.530197,-11.4919 0.3943,0.5077 1.2702,0.2584 1.9463,-0.5539 0.6762,-0.8124 3.348,-2.5135 5.9374,-3.7803 l 4.708,-2.3034 -3.1509,-5.8622 c -1.7329,-3.2242 -4.2106,-6.5618 -5.506,-7.4171 -1.2954,-0.8552 -2.2154,-1.9299 -2.0446,-2.3882 0.1708,-0.4582 -0.3938,-0.8264 -1.2547,-0.8181 -0.8609,0.01 -4.7158,-2.0027 -8.5666,-4.4688 -6.6507,-4.2593 -7.1697,-4.4537 -10.3628,-3.8833 -1.8488,0.3302 -4.7198,0.093 -6.3799,-0.5267 -1.6602,-0.62 -10.555597,-3.9456 -19.768297,-7.3884 l -16.7499,-6.261 -9.164,2.7729 c -5.0402,1.5252 -9.6329,2.7426 -10.2061,2.7056 -0.5732,-0.037 -2.7044,0 -4.7362,0.077 -9.8792,0.3851 -21.705,-2.6004 -32.9839004,-8.3267 -4.3846,-2.2262 -4.878,-2.8805 -7.5837,-10.0565 -2.29210004,-6.079 -2.68920004,-8.6258 -1.90960004,-12.2459 0.78250004,-3.6333 1.32330004,-4.5739 2.63680004,-4.5865 0.9088,-0.01 1.5001,0.3925 1.314,0.8917 -0.1861,0.4992 0.2942,1.1434 1.0672,1.4316 1.7019,0.6344 2.4369,-0.8366 1.0508,-2.1032 -0.5473,-0.5 0.1769,-0.5102 1.6093,-0.023 1.9981004,0.6798 2.4417004,1.323 1.9058,2.7607 -0.3881,1.0411 -0.074,2.1069 0.7069004,2.3979 0.773,0.2882 1.5801,0.056 1.7935,-0.5168 0.2134,-0.5725 0.7954,0.1729 1.2933,1.6563 0.8062,2.4019 1.3942,2.7769 5.3706,3.4251 3.4816,0.5675 5.2111,0.1896 7.8515,-1.7159 1.8625,-1.344 6.0562,-3.8497 9.3193,-5.5681 6.8412,-3.6028 14.4672,-8.9624 15.085,-10.6019 0.4563,-1.2098 10.3819,-2.178 10.8917,-1.0623 0.1685,0.3688 1.48,0.1944 2.9144,-0.3875 1.7355,-0.7042 5.4142,-0.4441 10.9953,0.7772 10.3988,2.2754 17.4812,4.0947 20.2097,5.1911 2.9479,1.1842 11.055297,4.1969 13.592297,5.0498 4.031,1.3555 13.4485,6.1835 14.3405,7.3519 1.0136,1.3277 18.1008,7.9554 18.4082,7.14 0.1099,-0.292 2.6913,-0.4025 5.7361,-0.2457 3.0448,0.1568 6.4115,0 7.4815,-0.3409 1.07,-0.3443 5.1295,-3.9109 9.0211,-7.9259 l 7.0757,-7.3 0.9413,-6.787 c 0.5177,-3.7329 1.086,-7.8375 1.2628,-9.1213 0.1768,-1.2838 -2.5647,-9.4096 -6.0922,-18.0573 -3.6695,-8.9957 -5.9717,-16.0663 -5.3807,-16.5253 0.5819,-0.452 0.5139,-0.6989 -0.1556,-0.5655 -1.3293,0.265 -14.7047,-38.395 -15.6546,-45.248 -0.3345,-2.4128 -0.9151,-11.2249 -1.2904,-19.5824 -0.5773,-12.8552 -0.3372,-16.4214 1.559,-23.1553 1.4482,-5.1429 2.6348,-7.9754 3.3528,-8.004 0.6113,-0.024 0.4706,-0.3211 -0.3125,-0.6594 -1.4172,-0.6126 -1.8856,-6.2528 -0.768,-9.2509 0.3225,-0.8652 0.2159,-1.7113 -0.2369,-1.8801 -1.1181,-0.4168 -1.2637,-6.4266 -0.1878,-7.7532 0.4755,-0.5862 0.5942,-2.8098 0.2637,-4.9412 -0.7549,-4.8689 2.1427,-10.6182 4.3147,-8.561 0.7327,0.6939 2.504,1.6277 3.9361,2.0751 1.9807,0.6189 2.3428,1.1091 1.5132,2.0488 -0.7801,0.8837 -0.1797,2.0992 2.109,4.2695 2.7066,2.5668 3.1275,3.6887 2.7324,7.2826 -0.3519,3.2008 0.166,5.0297 2.1002,7.417 1.412,1.7428 2.3262,3.8153 2.0315,4.6058 -0.2946,0.7904 -0.1425,1.5837 0.3381,1.7629 0.4807,0.1791 0.8272,1.2688 0.7701,2.4215 -0.094,1.9037 0.7265,2.407 8.9627,5.4947 l 9.0664,3.3989 1.6779,4.8034 c 0.9229,2.6418 1.557,5.1278 1.4091,5.5244 -0.1479,0.3967 0.4533,2.454 1.3358,4.5719 1.1245,2.6982 1.4654,8.8157 1.1393,20.4406 -0.256,9.1245 -0.019,18.0242 0.5266,19.7768 0.5456,1.7527 1.6422,5.0223 2.4368,7.2657 0.7946,2.2434 1.1246,4.5791 0.7332,5.1904 -0.3914,0.6114 -0.09,1.3759 0.6702,1.6991 0.7833,0.3336 1.0013,1.244 0.5031,2.1036 -0.5177,0.8932 -0.2843,1.7378 0.5678,2.0554 0.9323,0.3476 1.1245,1.4033 0.5407,2.9695 -0.6122,1.6422 -0.3575,2.8157 0.7853,3.619 0.9767,0.6864 1.3976,1.9767 0.9962,3.0536 -0.4745,1.2728 -0.1851,1.8601 0.9113,1.8496 0.9787,-0.01 1.4055,0.524 1.0936,1.3607 -0.2821,0.7568 0.016,2.5338 0.6625,3.9487 0.6465,1.415 0.9396,3.2051 0.6515,3.9782 -0.2882,0.773 0.1035,1.6394 0.8705,1.9253 0.9048,0.3373 1.1112,1.9297 0.5878,4.5351 -0.6183,3.0775 -0.3005,4.573 1.3605,6.4042 2.2501,2.4805 2.3686,3.9368 0.3532,4.3385 -1.1034,0.22 3.8951,11.4442 5.3846,12.0911 0.9937,0.4313 3.0485,5.1813 2.3747,5.4892 -0.3118,0.1424 -0.073,1.1118 0.5302,2.1541 0.9968,1.7218 1.1272,1.6297 1.4255,-1.0068 0.2162,-1.9101 0.5847,-2.5718 1.0784,-1.9362 0.4125,0.5311 0.4974,1.6435 0.1885,2.472 -0.3088,0.8285 -0.1927,1.3378 0.258,1.1319 0.4507,-0.2059 1.6384,0.7952 2.6392,2.2247 1.0008,1.4295 3.8612,4.4455 6.3564,6.7023 3.1645,2.8621 4.2343,4.4459 3.5369,5.2359 -0.5499,0.623 -0.5682,1.2935 -0.041,1.4902 0.5276,0.1967 1.2325,0.054 1.5664,-0.317 0.334,-0.3711 2.0987,0.097 3.9215,1.0393 3.1607,1.6343 3.2384,1.8365 1.6767,4.3598 -1.1656,1.8833 -1.2535,2.5695 -0.3049,2.3805 0.7331,-0.1462 1.6274,-1.0558 1.9873,-2.0213 0.7469,-2.0036 5.3027,-2.2555 5.2338,-0.2895 -0.033,0.9434 0.3745,1.0914 1.7161,0.6227 1.3987,-0.4884 1.8995,-0.1468 2.4427,1.6664 0.625,2.0861 0.738,2.1418 1.3244,0.6521 0.3526,-0.8958 1.0495,-1.4765 1.5487,-1.2904 0.4992,0.1861 0.9004,-0.413 0.8916,-1.3313 -0.01,-1.04 1.493,-2.3387 3.9852,-3.4436 2.2007,-0.9756 4.1869,-2.2719 4.4138,-2.8807 0.227,-0.6088 3.3207,-3.0327 6.8751,-5.3866 3.5544,-2.3539 9.3599,-6.8892 12.9012,-10.0786 3.5412,-3.1893 7.237,-6.0475 8.2128,-6.3515 0.9757,-0.3041 1.8103,-0.9535 1.8546,-1.4431 0.1386,-1.5335 3.0423,-4.5888 4.0161,-4.2258 0.511,0.1905 0.8414,-0.094 0.7341,-0.632 -0.1072,-0.538 0.9653,-1.5588 2.3835,-2.2684 1.4182,-0.7097 2.77,-1.804 3.0041,-2.4319 0.234,-0.6279 6.8368,-6.8073 14.6727,-13.732 7.8359,-6.9247 20.2698,-19.1338 27.6308,-27.1311 16.1508,-17.5471 29.0385,-29.8149 34.2863,-32.6372 2.1347,-1.1481 4.0872,-2.6399 4.3389,-3.3151 0.5493,-1.4735 4.5985,-3.2166 6.1385,-2.6426 1.5329,0.5715 -1.8164,9.0073 -6.0902,15.3389 -1.8993,2.8138 -4.3651,7.542 -5.4795,10.5069 -1.7531,4.6641 -1.806,5.9035 -0.3928,9.1918 0.8985,2.0905 2.115,3.9804 2.7034,4.1997 0.5884,0.2194 0.919,0.8034 0.7346,1.2979 -0.1843,0.4945 0.2973,2.2349 1.0704,3.8674 0.773,1.6327 1.4288,5.044 1.4572,7.5809 0.048,4.2608 -0.2274,5.0117 -3.6115,9.8496 -2.0147,2.8805 -4.0775,5.559 -4.5839,5.9524 -0.5064,0.3933 -1.2117,1.3354 -1.5674,2.0937 -2.3844,5.0833 -7.9032,11.6008 -13.9794,16.5092 -3.8954,3.1466 -8.7822,7.208 -10.8596,9.0253 -2.0774,1.8172 -4.3264,3.0993 -4.9978,2.849 -0.6714,-0.2503 -1.4404,0.3043 -1.7089,1.2324 -0.4953,1.7119 -17.5518,16.0307 -19.7744,16.6003 -0.6657,0.1707 -1.426,0.7277 -1.6896,1.2378 -0.2636,0.5102 -0.689,1.3296 -0.9456,1.8209 -0.2565,0.4914 -0.9057,0.7296 -1.4426,0.5295 -1.5702,-0.5854 -6.0738,1.6357 -6.3334,3.1234 -0.131,0.7501 -1.4683,2.6373 -2.9718,4.1938 -1.5035,1.5565 -3.4935,4.0075 -4.4222,5.4467 -1.0432,1.6168 -2.4914,2.5354 -3.7899,2.4037 -1.2861,-0.1303 -1.9963,0.3143 -1.8304,1.1464 0.149,0.7476 -0.4108,1.4953 -1.244,1.6613 -1.1724,0.2337 -1.6479,1.3049 -2.1032,4.738 -0.3236,2.4399 -1.321,5.4664 -2.2164,6.7255 -1.2484,1.7556 -1.2956,2.4135 -0.2021,2.8212 1.0844,0.4042 1.5006,-0.1369 1.7368,-2.2584 0.31,-2.783 0.3141,-2.7837 1.6227,-0.2605 0.9852,1.8999 0.9234,3.1318 -0.2484,4.9478 -1.7943,2.7809 -0.4006,4.0082 1.4926,1.3143 1.3874,-1.9742 3.1077,-0.6528 2.2268,1.7103 -0.3086,0.8278 0.8133,4.2599 2.4929,7.627 1.6797,3.3671 2.8709,6.6132 2.647,7.2137 -0.2238,0.6006 0.1148,1.3025 0.7526,1.5599 2.4093,0.9728 14.2952,42.8562 12.547,44.2141 -0.4185,0.3251 -0.142,1.2929 0.6143,2.1508 0.7564,0.8579 1.5992,3.4642 1.8729,5.7919 0.2737,2.3277 0.9267,5.336 1.4508,6.6854 0.5243,1.3493 0.5898,3.4279 0.1458,4.6192 -0.4582,1.2291 -0.2415,2.3767 0.5011,2.6536 0.7197,0.2683 2.0616,4.4904 2.9819,9.3825 2.2873,12.1586 2.3524,12.825 1.3291,13.6198 -0.4935,0.3834 -0.3323,1.1957 0.3581,1.8052 0.6905,0.6095 1.0209,1.7372 0.7343,2.506 -0.2866,0.7689 0.3327,3.1098 1.3762,5.2022 1.1438,2.2935 1.4753,4.2826 0.8347,5.0082 -0.6128,0.6941 -0.5405,1.3985 0.1707,1.6636 0.6784,0.2529 1.8316,7.5264 2.5628,16.1633 0.7312,8.6369 1.9122,17.1213 2.6244,18.8543 1.7515,4.2614 2.654,13.5106 1.7891,18.335 -0.3891,2.1704 -0.5558,5.2996 -0.3704,6.9537 0.1854,1.6541 0.033,3.8226 -0.3381,4.8188 -0.405,1.0863 0.084,2.352 1.2224,3.1622 2.916,2.0759 10.8694,4.8429 14.7968,5.148 2.3293,0.1809 4.7068,1.0851 7.0043,2.6633 2.9699,2.0407 6.65,2.872 25.1926,5.6911 46.2832,7.0367 49.6157,7.2166 75.8466,4.0961 12.8984,-1.5344 43.258,-4.3897 67.4658,-6.3451 24.2078,-1.9554 48.0599,-3.883 53.0045,-4.2836 l 8.9904,-0.7283 2.8304,-4.5963 c 1.5568,-2.528 4.8175,-7.9239 7.2461,-11.9908 2.4285,-4.067 5.3702,-8.7334 6.537,-10.3698 3.3154,-4.6499 4.2888,-18.8631 1.7035,-24.8749 -2.107,-4.8997 -2.1671,-11.0719 -0.1603,-16.4554 1.0073,-2.7022 1.9517,-3.4631 5.3284,-4.2933 l 4.1041,-1.0089 3.7094,-9.9306 c 4.4383,-11.8834 4.8345,-16.233 1.5882,-17.4431 -1.2449,-0.4641 -3.3105,-0.6338 -4.5901,-0.3771 -1.9079,0.3828 -2.3874,0.1658 -2.6651,-1.2059 -0.7675,-3.7918 2.1993,-14.9946 6.5738,-24.8231 6.7271,-15.114 6.9004,-22.5023 0.583,-24.8573 -2.8477,-1.0615 -3.0331,-1.4466 -2.347,-4.8769 1.4089,-7.044 1.4088,-7.9203 0,-11.3445 -0.7777,-1.8884 -1.1655,-4.1 -0.8619,-4.9144 0.3037,-0.8146 -0.4048,-3.423 -1.5745,-5.7965 -2.0647,-4.1902 -2.05,-4.5206 0.5057,-11.3767 2.3489,-6.3011 2.7875,-6.9384 4.0753,-5.9223 1.1318,0.8931 1.2359,0.8327 0.4824,-0.2795 -1.2611,-1.8617 0.8521,-4.2019 3.5474,-3.9286 1.2866,0.1304 2.7023,-0.7534 3.6443,-2.2755 0.8472,-1.3688 1.9093,-2.3512 2.3602,-2.1831 1.8087,0.6742 4.4979,-11.9772 3.2475,-15.278 -0.246,-0.6493 0.8245,-4.5919 2.3788,-8.7614 2.1887,-5.8714 2.9211,-9.7731 3.2478,-17.3014 0.232,-5.3462 0.657,-10.3511 0.9444,-11.122 0.2873,-0.7708 0.025,-2.6 -0.5823,-4.0648 -0.6076,-1.4648 -0.7503,-2.9386 -0.317,-3.2751 0.4333,-0.3366 0.3883,-0.761 -0.1002,-0.943 -0.4884,-0.1821 -0.5994,-1.9989 -0.2466,-4.0373 0.3528,-2.0384 0.216,-5.0357 -0.3039,-6.6606 -1.2105,-3.7828 -0.8856,-4.53 2.4856,-5.7165 1.8281,-0.6436 4.2747,-0.4218 7.2263,0.655 l 4.4623,1.6283 8.9696,-24.0616 c 4.9333,-13.2339 9.0717,-25.4983 9.1965,-27.2544 0.6947,-9.7747 2.0074,-16.4308 3.295,-16.7071 0.8676,-0.1861 0.7802,-0.4989 -0.2498,-0.8935 -1.2233,-0.4688 -1.2642,-1.4004 -0.1794,-4.0853 0.773,-1.913 2.1129,-6.9628 2.9775,-11.2218 1.6956,-8.3519 2.6616,-9.6667 6.9463,-9.4545 3.3184,0.1644 6.636,-2.1647 9.8396,-6.9079 1.5836,-2.3445 5.1183,-6.2774 7.8549,-8.7397 4.5314,-4.0772 5.3516,-5.3953 9.1857,-14.7611 4.1779,-10.206 4.2347,-10.2883 7.4663,-10.8237 1.7911,-0.2968 3.9317,-1.5208 4.7569,-2.72 0.8252,-1.1992 1.8343,-2.0559 2.2424,-1.9038 1.017,0.3792 5.0634,-5.9525 11.4727,-17.9524 5.1864,-9.7101 6.1579,-10.8812 26.2797,-31.6779 l 20.8942,-21.595003 32.8155,-23.1327 32.8155,-23.1328 31.8293,-13.415 31.8293,-13.4149 48.7427,-8.6172003 c 45.39428,-8.02539998 50.07008,-8.63509998 68.06558,-8.87729998 21.5113,-0.2895 48.6072,0.9303 49.6196,2.23369998 0.3619,0.4659 1.0873,0.5174 1.612,0.1145 1.3815,-1.0605 25.3939,0.42 26.3287,1.6234 0.433,0.5574 1.8598,0.9119 3.1708,0.7877 1.311,-0.1242 15.8806,3.5215 32.3769,8.1015003 29.937,8.3117 30.0703,8.3583 71.2917,24.9036 43.8524,17.6014 44.0188,17.6808 68.8394,32.8776 10.75,6.5819 16.2889,10.49 16.7216,11.7984 0.4591,1.3887 0.9569,1.7156 1.7152,1.1265 0.7706,-0.5984 9.3618,4.3071 30.8141,17.595103 26.094,16.1631 31.6842,20.0318 45.5356,31.5124 8.6844,7.1981 15.4673,13.3379 15.073,13.6442 -0.3941,0.3062 -0.08,0.5507 0.6982,0.5432 1.4044,-0.013 64.6167,51.7342 70.5526,57.7567 1.7035,1.7284 22.6203,22.2718 46.4817,45.652 41.4776,40.6413 44.6887,44.0428 73.0675,77.3982 16.3258,19.1887 43.6198,50.6925 60.6534,70.0085 17.0337,19.3159 31.3281,35.7232 31.7653,36.4606 0.4373,0.7375 3.8559,6.0129 7.597,11.7233 3.741,5.7103 12.1443,18.5964 18.6738,28.6358 6.5296,10.0394 21.0817,30.3781 32.3379,45.1973 21.0003,27.6473 39.8839,56.3126 38.2879,58.1205 -0.564,0.6391 -0.03,1.3229 1.469,1.8817 1.9506,0.7272 2.1349,1.1911 1.0734,2.7016 -0.8781,1.2494 -0.8614,1.7398 0.053,1.5576 0.8563,-0.1708 1.0739,0.5197 0.6072,1.927 -0.3996,1.2063 -1.1967,3.9391 -1.7705,6.0731 -0.6086,2.2635 -1.8142,4.3707 -2.8938,5.0578 z M 1176.4579,1902.5951 c -0.2273,-0.085 -0.5704,0.2677 -0.7625,0.783 -0.1921,0.5154 0.097,1.1035 0.643,1.3069 0.5458,0.2035 0.8889,-0.1489 0.7625,-0.7829 -0.1264,-0.6341 -0.4158,-1.2223 -0.643,-1.307 z M 1141.5085,1788.76 c -1.599,0.3188 -1.5663,0.9714 0.08,1.5849 0.8035,0.2995 1.3558,0.017 1.2273,-0.6271 -0.1284,-0.6444 -0.7165,-1.0754 -1.3068,-0.9578 z m -63.545,113.4044 c -0.5154,-0.1921 -1.1035,0.097 -1.3069,0.643 -0.2035,0.5458 0.1488,0.8889 0.7829,0.7625 0.6341,-0.1264 1.2222,-0.4158 1.307,-0.643 0.085,-0.2273 -0.2677,-0.5704 -0.783,-0.7625 z m -277.39008,255.7158 c 0.6542,-9.5793 -2.1716,-18.0149 -7.9605,-23.764 l -4.7843,-4.7513 -17.0904,-5.686 -17.0904,-5.686 -9.5059,2.5971 c -5.2282,1.4283 -11.5854,3.2984 -14.127,4.1556 -4.4497,1.5008 -17.3447,10.1286 -18.078,12.0957 -0.1961,0.5261 -3.1921,2.9569 -6.6577,5.4019 -11.5765,8.1668 -10.6627,6.7066 -20.189,32.2618 -8.762,23.5046 -9.2689,25.6083 -8.7505,36.3155 0.087,1.7933 0.1804,6.1504 0.2079,9.6825 0.075,9.564 2.0144,15.9394 6.8081,22.3752 5.3862,7.2315 8.454,9.4541 17.8499,12.9322 9.6904,3.5872 13.7708,4.0585 21.2171,2.4507 l 6.0839,-1.3135 -8.2321,-3.6525 c -10.6166,-4.7104 -20.6909,-13.3797 -26.0027,-22.3762 -5.4199,-9.1796 -5.0917,-13.5312 2.432,-32.2508 6.8243,-16.9792 11.9864,-27.095 18.4877,-36.2288 5.3145,-7.4667 7.7685,-9.9297 12.632,-12.6788 1.8377,-1.0388 4.7743,-3.4834 6.5257,-5.4327 6.0415,-6.7237 16.786,-14.3643 20.9169,-14.8744 7.4343,-0.918 32.1942,11.9916 35.8435,18.6878 0.5691,1.0444 1.0515,3.993 1.072,6.5526 0.026,3.2641 0.7288,5.2975 2.3537,6.8097 1.2741,1.1857 2.5848,2.9247 2.9129,3.8643 0.3281,0.9396 0.9949,1.8568 1.4818,2.0384 0.9432,0.3516 0.9856,0.1062 1.6434,-9.526 z m -38.6622,84.3056 c -0.1943,-0.072 -5.0481,2.3204 -10.7863,5.3174 -5.7382,2.9969 -9.3578,5.1408 -8.0437,4.7641 6.7309,-1.9292 9.9907,-3.361 14.2892,-6.2761 4.7826,-3.2435 5.1723,-3.57 4.5408,-3.8054 z M 1289.7143,802.88746 c -0.8034,-0.2995 -1.3574,-0.026 -1.231,0.6084 0.1264,0.634 0.6266,1.3008 1.1115,1.4815 0.485,0.1808 1.0389,-0.093 1.231,-0.6083 0.1922,-0.5154 -0.3081,-1.1821 -1.1115,-1.4816 z m -5.5751,-6.3471 c -0.5153,-0.1921 -1.1821,0.3081 -1.4816,1.1115 -0.2995,0.8035 -0.026,1.3574 0.6084,1.231 0.6341,-0.1264 1.3008,-0.6266 1.4815,-1.1115 0.1808,-0.485 -0.093,-1.0389 -0.6083,-1.231 z M 736.60102,2254.0634 c -1.2019,0.1628 -2.6442,0.6523 -3.205,1.088 -0.5609,0.4356 0.3565,0.4796 2.0386,0.098 3.5615,-0.8085 4.3577,-1.6179 1.1664,-1.1858 z M 1280.502,791.98286 c -0.5153,-0.1922 -1.1728,0.2832 -1.4609,1.0562 -0.2882,0.773 -0.1023,1.5627 0.413,1.7548 0.5154,0.1921 1.1728,-0.2832 1.461,-1.0562 0.2882,-0.7731 0.1023,-1.5627 -0.4131,-1.7548 z m -7.7247,-6.537 c -0.3811,-1.2731 -1.0708,-2.1422 -1.5327,-1.9312 -0.4618,0.2111 -0.5764,1.138 -0.2545,2.0598 0.3219,0.9219 0.2044,1.8503 -0.2611,2.063 -0.4655,0.2127 -0.1437,0.6487 0.7152,0.9688 1.8993,0.7081 2.2455,-0.1126 1.3331,-3.1604 z M 1031.895,1415.9474 c -0.634,0.1264 -1.2222,0.4158 -1.3069,0.643 -0.085,0.2273 0.2676,0.5704 0.783,0.7625 0.5154,0.1921 1.1035,-0.097 1.3069,-0.643 0.2035,-0.5458 -0.1489,-0.8889 -0.783,-0.7625 z M 733.29862,2178.164 c -3.6291,-1.3592 -5.6591,-0.4219 -7.0261,3.2453 -1.3811,3.705 -0.4433,5.7044 3.3366,7.1135 2.2359,0.8335 3.946,0.5918 6.6574,-0.9407 l 3.6485,-2.0623 -1.8801,-3.1429 c -1.034,-1.7286 -3.1654,-3.6244 -4.7363,-4.2129 z M 1218.249,798.65866 c -0.5153,-0.1921 -1.0942,0.072 -1.2863,0.5877 -0.1921,0.5154 0.072,1.0942 0.5877,1.2863 0.5154,0.1921 1.0942,-0.072 1.2863,-0.5877 0.1921,-0.5154 -0.072,-1.0942 -0.5877,-1.2863 z m -9.6555,-1.4649 c -0.8035,-0.2995 -1.3557,-0.017 -1.2272,0.6271 0.1284,0.6445 0.7165,1.0754 1.3067,0.9578 1.5991,-0.3187 1.5664,-0.9714 -0.079,-1.5849 z M 613.51672,2380.2485 c -0.3879,-0.8489 -2.0124,-2.0308 -3.61,-2.6263 -3.6781,-1.3712 -5.7035,-0.4458 -7.0747,3.2324 -1.3711,3.6782 -0.4457,5.7036 3.2325,7.0747 3.6781,1.3711 5.7035,0.4458 7.0747,-3.2324 0.5955,-1.5977 0.7654,-3.5994 0.3775,-4.4484 z m -40.4944,-11.0398 c -0.5154,-0.1922 -1.0942,0.072 -1.2864,0.5877 -0.1921,0.5153 0.072,1.0942 0.5878,1.2863 0.5153,0.1921 1.0942,-0.072 1.2863,-0.5877 0.1921,-0.5154 -0.072,-1.0942 -0.5877,-1.2863 z m -27.3198,-13.1724 c -0.3879,-0.849 -2.0124,-2.0308 -3.61,-2.6264 -3.6782,-1.3711 -5.7036,-0.4457 -7.0747,3.2325 -1.3711,3.6782 -0.4457,5.7035 3.2324,7.0747 3.6782,1.3711 5.7036,0.4457 7.0747,-3.2325 0.5956,-1.5976 0.7655,-3.5993 0.3776,-4.4483 z m -6.4833,-200.7857 c 0.4445,-19.3899 0.4101,-20.8724 -0.5796,-24.9269 -0.5439,-2.2282 -0.75,-4.6919 -0.4581,-5.4751 0.9087,-2.4375 -2.6096,-26.6997 -6.0861,-41.9707 -1.8252,-8.0176 -3.6355,-17.506 -4.0228,-21.0854 -0.6964,-6.4363 -1.6857,-8.7234 -6.6288,-15.3234 -5.5842,-7.4561 -15.6472,-13.5057 -19.1346,-11.5031 -0.936,0.5374 -4.3237,0.7713 -7.5281,0.5198 -8.6456,-0.6788 -9.7307,0 -12.6685,7.8768 -2.7733,7.4395 -2.4763,11.4394 0.9406,12.6693 3.0615,1.102 12.7911,-2.017 16.8497,-5.4017 3.4165,-2.8491 3.7287,-2.8929 8.3634,-1.1731 7.8354,2.9075 9.5004,5.2285 12.0807,16.8418 2.3141,10.4147 2.8826,17.6133 2.1751,27.5364 -0.2084,2.9224 0.2476,6.6943 1.0134,8.3819 0.9603,2.1166 1.1194,11.9055 0.5128,31.5556 -0.9915,32.117 -1.6944,35.5502 -8.715,42.5649 -4.051,4.0476 -5.9964,4.7785 -9.3706,3.5207 -3.5414,-1.3201 -4.9179,4.9973 -2.1422,9.8311 1.4973,2.6074 11.5823,5.1301 16.5498,4.1399 7.2604,-1.4472 9.391,-3.9541 14.2806,-16.8029 4.045,-10.6308 4.3456,-12.0619 4.5683,-21.7759 z m -44.4714,-60.4682 c -0.3879,-0.849 -2.0124,-2.0309 -3.61,-2.6264 -3.6782,-1.3711 -5.7036,-0.4458 -7.0747,3.2324 -1.3712,3.6782 -0.4457,5.7036 3.2324,7.0747 3.6782,1.3711 5.7036,0.4458 7.0747,-3.2324 0.5955,-1.5976 0.7654,-3.5994 0.3776,-4.4483 z M 1225.3255,46.771057 c -0.5153,-0.1921 -1.0942,0.072 -1.2863,0.5877 -0.1921,0.5154 0.072,1.0942 0.5877,1.2863 0.5154,0.1921 1.0942,-0.072 1.2863,-0.5877 0.1921,-0.5153 -0.072,-1.0942 -0.5877,-1.2863 z m -39.7159,-18.6516 c -0.4274,0.1953 0.043,0.6232 1.0464,0.9507 1.1084,0.3619 1.4131,0.2226 0.7772,-0.3551 -0.5756,-0.5229 -1.3961,-0.7909 -1.8236,-0.5955 z M 443.94902,1722.8045 c -0.4275,0.1953 0.043,0.6231 1.0463,0.9506 1.1084,0.362 1.4132,0.2227 0.7772,-0.355 -0.5755,-0.5229 -1.3961,-0.7908 -1.8235,-0.5956 z m 374.281,-1179.45164 c -0.6341,0.1264 -1.2222,0.4158 -1.3069,0.643 -0.085,0.2273 0.2676,0.5704 0.783,0.7625 0.5153,0.1921 1.1034,-0.097 1.3069,-0.643 0.2034,-0.5458 -0.1489,-0.8889 -0.783,-0.7625 z M 350.09392,1787.7141 c -0.5154,-0.1922 -1.0849,0.047 -1.2657,0.5324 -0.1808,0.4849 0,1.2995 0.3925,1.8101 0.3966,0.5106 0.9661,0.271 1.2657,-0.5324 0.2995,-0.8035 0.1229,-1.618 -0.3925,-1.8101 z m -51.8878,-51.3592 c -0.2273,-0.085 -0.5704,0.2677 -0.7625,0.783 -0.1921,0.5154 0.097,1.1035 0.643,1.3069 0.5458,0.2035 0.8889,-0.1489 0.7625,-0.7829 -0.1264,-0.6341 -0.4157,-1.2223 -0.643,-1.307 z m -25.1968,-16.8633 c -0.5458,-0.2034 -0.8889,0.1489 -0.7625,0.783 0.1264,0.6341 0.4158,1.2222 0.643,1.3069 0.2273,0.085 0.5704,-0.2676 0.7625,-0.7829 0.1921,-0.5154 -0.097,-1.1035 -0.643,-1.307 z m 11.8254,-146.07 c -0.5153,-0.1921 -1.1034,0.097 -1.3069,0.6431 -0.2034,0.5457 0.1489,0.8889 0.783,0.7625 0.6341,-0.1264 1.2222,-0.4158 1.3069,-0.6431 0.085,-0.2272 -0.2676,-0.5703 -0.783,-0.7625 z m -67.6614,-57.2391 c -0.2026,-0.076 -0.8468,0.4047 -1.4316,1.0672 -0.5848,0.6624 -0.6548,1.3567 -0.1557,1.5428 0.4992,0.186 1.1434,-0.2942 1.4316,-1.0672 0.2882,-0.7731 0.3582,-1.4673 0.1557,-1.5428 z m 432.998,-1207.83404 c -0.2272,-0.085 -0.6582,0.5034 -0.9577,1.3068 -0.2995,0.8035 -0.017,1.3558 0.6271,1.2273 1.0648,-0.2123 1.3196,-2.1654 0.3306,-2.5341 z m -348.7228,90.9196 c -0.2273,-0.085 -0.5704,0.2676 -0.7625,0.7829 -0.1921,0.5154 0.097,1.1035 0.643,1.307 0.5458,0.2034 0.8889,-0.1489 0.7625,-0.783 -0.1264,-0.6341 -0.4158,-1.2222 -0.643,-1.3069 z M 39.789223,364.16036 c -0.6341,0.1264 -1.2222,0.4158 -1.3069,0.643 -0.085,0.2273 0.2676,0.5704 0.783,0.7625 0.5153,0.1921 1.1035,-0.097 1.3069,-0.643 0.2035,-0.5458 -0.1489,-0.8889 -0.783,-0.7625 z M 1414.5757,725.91366 c -1.82,1.1992 -7.5937,-0.1274 -5.9868,-1.3756 1.3069,-1.0151 7.4501,-1.4931 7.6294,-0.5936 0.086,0.4311 -0.6532,1.3173 -1.6426,1.9692 z m -202.6362,109.8801 c -0.5457,-0.2034 -0.8351,-0.7915 -0.643,-1.3069 0.1921,-0.5153 0.5352,-0.8677 0.7625,-0.783 0.2272,0.085 0.5166,0.6729 0.643,1.307 0.1264,0.634 -0.2167,0.9864 -0.7625,0.7829 z m -0.4234,-3.3595 c -0.8634,-0.3218 -1.0623,-1.4128 -0.5218,-2.8625 0.4803,-1.2884 1.4138,-2.1411 2.0744,-1.8948 0.6606,0.2462 0.8954,1.5344 0.5218,2.8626 -0.4457,1.5839 -1.1594,2.2358 -2.0744,1.8947 z m -2.493,-23.3409 c -0.5153,-0.1921 -0.7012,-0.9818 -0.4131,-1.7548 0.2882,-0.7731 0.9456,-1.2484 1.461,-1.0563 0.5154,0.1921 0.7012,0.9818 0.4131,1.7548 -0.2882,0.7731 -0.9456,1.2484 -1.461,1.0563 z M 288.86832,1571.19 c -0.6341,0.1264 -0.9078,-0.4276 -0.6083,-1.231 0.2995,-0.8035 0.9662,-1.3037 1.4815,-1.1115 0.5154,0.1921 0.7891,0.746 0.6084,1.231 -0.1808,0.4849 -0.8475,0.9851 -1.4816,1.1115 z m -60.4167,-53.1823 c -0.5359,-0.4321 -0.9547,-1.3489 -0.9305,-2.0373 0.027,-0.7698 0.5334,-0.8195 1.3155,-0.1292 1.4595,1.2885 1.0919,3.3574 -0.385,2.1665 z m -4.3902,-5.5792 c -2.1576,-0.1292 -3.8084,-0.818 -3.9761,-1.6589 -0.1151,-0.5776 0.8697,-0.6479 2.1885,-0.1563 1.9073,0.711 3.0704,1.8921 1.7876,1.8152 z M 209.56812,309.52176 c -0.5153,-0.1921 -0.7798,-0.7709 -0.5877,-1.2863 0.1921,-0.5153 0.771,-0.7798 1.2863,-0.5877 0.5154,0.1921 0.7799,0.771 0.5877,1.2863 -0.1921,0.5154 -0.7709,0.7798 -1.2863,0.5877 z"
     id="path2987"
     inkscape:connector-curvature="0" />
</svg>
