<?xml version="1.0" standalone="no"?>
<!DOCTYPE svg PUBLIC "-//W3C//DTD SVG 20010904//EN"
 "http://www.w3.org/TR/2001/REC-SVG-20010904/DTD/svg10.dtd">
<svg version="1.0" xmlns="http://www.w3.org/2000/svg"
 width="1024.000000pt" height="717.000000pt" viewBox="0 0 1024.000000 717.000000"
 preserveAspectRatio="xMidYMid meet">
<metadata>
Created by potrace 1.15, written by Peter Selinger 2001-2017
</metadata>
<g transform="translate(0.000000,717.000000) scale(0.100000,-0.100000)"
fill="#000000" stroke="none">
<path d="M1450 7158 c0 -8 7 -23 15 -34 25 -33 16 -34 -35 -2 -28 17 -53 28
-56 25 -4 -3 3 -22 15 -42 27 -46 27 -54 -1 -28 -33 30 -64 44 -83 37 -14 -6
-12 -11 11 -35 l27 -28 -54 5 -54 6 49 -32 c26 -17 46 -34 43 -37 -3 -2 -31 3
-62 12 -64 18 -78 16 -40 -9 40 -26 30 -35 -42 -38 -67 -3 -67 -3 -33 -15 l35
-11 -45 -2 -45 -2 32 -11 c35 -13 70 -43 61 -52 -3 -3 -17 -1 -32 5 -33 12
-116 13 -116 1 0 -5 20 -12 45 -15 61 -10 68 -27 8 -19 -31 3 -60 0 -83 -9
l-35 -15 65 -8 c77 -9 59 -23 -33 -24 -36 -1 -56 -5 -52 -11 3 -5 16 -10 28
-10 12 -1 36 -7 52 -15 28 -13 24 -14 -54 -8 -82 6 -83 5 -76 -16 6 -19 3 -21
-28 -21 -44 0 -54 -11 -25 -27 l23 -12 -27 -1 c-19 0 -28 -5 -28 -16 0 -13 -7
-15 -35 -11 -39 6 -44 1 -17 -19 15 -12 11 -13 -30 -14 -51 0 -63 -12 -25 -26
17 -6 10 -8 -31 -11 -42 -3 -52 -7 -48 -19 3 -9 -1 -14 -14 -14 -28 0 -34 -17
-8 -26 13 -4 27 -7 31 -6 5 1 6 -2 3 -7 -3 -5 -25 -7 -48 -4 -36 5 -40 4 -35
-10 5 -14 0 -17 -23 -17 -33 0 -39 -14 -13 -29 15 -9 13 -10 -12 -11 -33 0
-58 -12 -55 -26 1 -5 -9 -12 -22 -15 -13 -3 -22 -11 -21 -17 2 -7 -8 -14 -22
-18 -29 -7 -33 -21 -8 -27 12 -2 4 -9 -25 -22 -25 -10 -39 -21 -33 -25 7 -4 1
-11 -16 -19 -19 -9 -23 -15 -14 -20 10 -7 8 -12 -9 -24 -12 -8 -23 -22 -24
-31 -1 -9 -11 -23 -22 -31 -12 -9 -14 -14 -6 -15 7 0 0 -11 -15 -25 -22 -19
-25 -27 -15 -33 11 -7 7 -14 -15 -30 -25 -19 -26 -21 -8 -22 17 0 16 -3 -7
-18 -31 -18 -38 -35 -11 -25 11 4 5 -9 -16 -35 -21 -26 -31 -47 -27 -57 4 -11
-3 -24 -20 -38 -22 -17 -25 -26 -20 -55 3 -19 0 -44 -6 -56 -15 -27 -29 -89
-33 -146 -2 -25 -6 -73 -10 -107 -3 -41 -2 -63 5 -63 6 0 3 -11 -6 -25 -14
-22 -15 -25 -1 -25 12 0 15 -9 12 -42 -1 -24 -6 -51 -10 -60 -4 -11 -3 -18 5
-18 8 0 10 -9 6 -24 -4 -15 -1 -26 7 -29 9 -3 9 -7 1 -18 -6 -8 -15 -24 -18
-36 -6 -18 -3 -23 9 -23 13 0 15 -6 10 -30 -4 -20 -3 -30 5 -30 8 0 10 -10 8
-25 -3 -14 -1 -25 4 -25 5 0 6 -10 3 -22 -6 -17 -4 -20 9 -15 13 5 15 0 9 -40
-5 -36 -3 -44 7 -38 10 6 12 1 8 -19 -4 -18 -1 -26 9 -26 10 0 11 -5 3 -19
-14 -28 -12 -44 5 -37 19 7 19 -3 0 -28 -20 -27 -19 -39 4 -33 16 4 18 -1 16
-44 -1 -27 2 -49 6 -49 5 0 7 -11 3 -25 -4 -16 -2 -25 6 -25 7 0 9 -8 5 -19
-3 -11 -1 -22 5 -26 7 -4 7 -12 0 -26 -9 -15 -7 -19 5 -19 13 0 14 -4 5 -20
-8 -14 -8 -20 0 -20 7 0 9 -8 5 -20 -4 -12 -1 -27 5 -35 7 -9 8 -20 2 -32 -5
-10 -7 -51 -5 -91 2 -42 0 -79 -6 -86 -6 -7 -13 -77 -17 -157 -4 -97 -11 -149
-20 -159 -17 -20 -39 -107 -49 -186 l-7 -60 59 -13 c86 -19 90 -19 102 -12 8
5 8 16 0 39 -8 24 -24 38 -65 58 -30 15 -54 33 -54 41 0 27 40 82 72 98 17 8
53 15 80 15 39 0 48 -3 49 -17 1 -28 35 76 82 247 l42 155 -3 560 c-4 599 2
712 39 771 l21 34 96 -51 c135 -71 133 -68 83 -125 -90 -102 -98 -121 -106
-253 -5 -98 -4 -130 11 -181 14 -51 15 -68 6 -94 -7 -18 -12 -40 -12 -50 0
-21 30 -67 39 -61 10 6 1 65 -10 65 -15 0 -10 19 12 50 21 27 21 31 6 77 -26
81 -29 117 -17 214 13 106 34 161 90 234 42 54 49 78 28 92 -7 4 -49 24 -94
44 -113 50 -163 87 -235 174 -34 42 -64 74 -66 71 -2 -2 11 -30 28 -63 l33
-59 -34 -72 c-37 -82 -33 -80 -129 -33 -122 59 -124 149 -7 410 29 66 72 147
95 181 23 33 39 66 35 72 -5 7 0 9 14 6 12 -4 20 -2 16 3 -3 5 -1 9 5 9 5 0
22 16 37 36 23 30 25 37 13 46 -11 8 -10 9 4 4 12 -4 29 4 50 24 18 16 38 30
46 30 8 0 11 3 8 7 -6 6 18 19 58 33 13 5 30 18 67 53 36 33 121 82 271 155
107 53 225 144 392 304 60 57 127 92 217 114 l67 17 -15 28 c-17 33 -29 36
-42 12 -8 -14 -12 -13 -27 10 -9 15 -24 27 -31 27 -17 0 -17 -5 -3 -32 9 -18
6 -17 -25 7 -25 19 -36 23 -36 13z m-1150 -1678 c14 -8 16 -17 9 -57 -4 -26
-5 -104 -2 -172 l6 -123 -43 7 c-23 4 -63 12 -88 19 l-46 11 -19 100 c-17 94
-19 197 -3 212 21 21 148 23 186 3z m2 -482 c3 -7 6 -40 7 -73 1 -33 4 -68 7
-77 3 -9 -5 -25 -17 -36 -20 -20 -19 -42 3 -42 6 0 17 -8 24 -17 11 -15 13 1
14 110 0 106 2 127 15 127 16 0 16 0 17 -136 1 -122 -11 -224 -25 -224 -35 0
-89 24 -103 45 -9 13 -24 55 -34 92 -10 37 -25 88 -34 112 -34 93 -14 131 69
131 33 0 55 -5 57 -12z m26 -484 c28 -8 28 -26 1 -115 -12 -39 -19 -73 -16
-76 10 -9 27 7 42 40 l15 32 -4 -50 c-3 -28 -10 -64 -17 -79 -12 -26 -16 -27
-54 -21 -22 3 -43 9 -46 13 -4 4 -10 57 -14 118 -6 96 -5 113 10 127 17 18 44
21 83 11z m-36 -404 c25 -131 35 -186 32 -192 -6 -11 -73 14 -91 34 -26 29
-31 152 -7 179 27 30 57 21 66 -21z"/>
<path d="M6605 7085 c-38 -13 -89 -29 -112 -35 -23 -6 -55 -22 -72 -35 -16
-14 -43 -28 -60 -31 -17 -4 -31 -9 -31 -13 0 -3 -19 -7 -41 -8 -44 -1 -95 -31
-93 -54 1 -8 4 -25 6 -39 3 -14 3 -19 1 -12 -3 6 -18 12 -34 12 -50 0 -169
-24 -169 -34 0 -5 -10 -21 -22 -34 -22 -23 -22 -24 -3 -19 151 45 223 48 258
13 18 -18 40 -26 83 -31 33 -4 120 -27 195 -51 120 -39 138 -47 143 -69 4 -14
20 -32 39 -42 37 -19 199 -35 208 -21 4 7 13 7 24 1 12 -7 14 -13 6 -17 -6 -4
-11 -2 -11 4 0 6 -4 8 -10 5 -24 -15 3 -85 33 -85 3 0 17 -4 30 -9 25 -10 25
-10 11 -68 -8 -32 -14 -92 -14 -135 l0 -76 -43 -25 c-24 -14 -56 -44 -72 -67
l-28 -41 -80 5 c-44 3 -88 1 -97 -4 -10 -5 -27 -29 -39 -53 -24 -49 -25 -57
-11 -57 6 0 10 6 10 14 0 24 17 27 47 9 24 -16 28 -24 25 -58 -2 -37 -1 -39
13 -21 8 10 16 23 18 29 1 5 57 15 122 22 122 14 190 38 263 95 35 28 42 25
42 -19 0 -34 10 -51 75 -130 50 -60 102 -109 151 -144 92 -64 310 -186 345
-193 23 -5 25 -10 25 -52 0 -40 22 -101 61 -173 4 -7 -66 -21 -117 -23 -19 -1
-46 -7 -60 -15 -17 -10 -25 -11 -28 -2 -4 13 -52 15 -52 2 0 -5 -3 -17 -7 -26
-5 -15 -3 -16 15 -6 15 8 22 8 22 1 0 -5 9 -10 21 -10 11 0 17 -4 14 -10 -3
-6 -49 -10 -101 -10 -70 0 -101 -4 -119 -16 -14 -9 -25 -19 -25 -23 0 -7 281
3 360 14 49 6 63 4 128 -25 53 -24 72 -38 72 -52 0 -20 -42 -68 -60 -68 -5 0
-10 -4 -10 -10 0 -5 12 -10 27 -10 19 0 40 14 72 49 46 48 46 48 125 55 86 7
126 25 126 57 0 12 -26 48 -58 82 -69 73 -92 105 -92 129 0 16 11 18 98 18 94
0 102 -2 180 -40 225 -108 408 -138 977 -156 211 -7 277 -20 384 -73 119 -60
191 -83 210 -68 14 10 14 10 3 -5 -11 -14 -10 -18 5 -26 13 -8 21 -6 31 6 12
15 12 15 3 -4 -8 -16 -5 -29 11 -55 25 -40 68 -172 68 -206 0 -38 -35 -79
-108 -127 -118 -76 -142 -81 -422 -81 -273 1 -316 7 -591 86 -77 22 -182 48
-235 59 -52 11 -137 31 -187 44 -204 54 -715 137 -857 139 -163 3 -393 -12
-523 -33 -65 -11 -123 -20 -128 -20 -6 0 -7 -4 -4 -10 3 -5 0 -7 -9 -4 -8 3
-75 -6 -148 -21 -153 -32 -218 -44 -236 -44 -7 -1 -11 -5 -8 -10 4 -5 -2 -7
-12 -4 -23 6 -195 -37 -277 -68 -86 -33 -47 -35 99 -5 69 14 141 26 160 26 28
0 162 23 336 57 162 31 259 48 450 78 263 42 649 -14 1200 -173 416 -121 897
-218 1125 -229 208 -9 317 31 459 169 74 73 86 90 101 142 40 137 -41 357
-176 478 -67 60 -189 144 -189 130 0 -4 -4 -2 -8 4 -4 6 -41 29 -82 52 -76 41
-205 84 -295 98 -31 4 -56 15 -67 28 -24 29 -22 46 6 46 13 0 26 -6 29 -12 4
-10 7 -10 18 -1 19 19 -25 53 -69 53 -20 0 -32 -3 -29 -6 10 -11 -42 -46 -61
-41 -13 4 -13 5 4 6 12 0 28 8 35 17 12 15 11 16 -9 10 -13 -4 -43 -8 -67 -8
-25 0 -47 -3 -50 -8 -3 -4 5 -6 17 -3 13 3 20 2 16 -2 -18 -19 -148 6 -148 28
1 35 -48 153 -73 179 -27 27 -30 28 -42 11 -7 -10 -11 -20 -9 -23 3 -2 9 2 14
10 5 8 13 11 17 6 8 -7 -23 -36 -38 -36 -4 0 -9 19 -11 43 -3 39 -6 43 -43 56
-22 7 -100 16 -172 19 l-133 5 -57 59 c-78 80 -265 229 -280 224 -7 -3 -12 0
-10 5 1 6 -10 13 -25 14 -20 3 -29 -2 -33 -16 -4 -10 -14 -19 -23 -19 -12 0
-14 2 -4 8 9 6 6 14 -12 31 l-23 22 0 -26 c0 -40 -18 -52 -43 -30 -22 20 -18
35 11 35 12 0 19 7 19 20 0 15 7 20 29 20 17 0 33 -4 36 -10 3 -5 11 -10 17
-10 6 0 0 8 -13 19 -30 23 -173 101 -185 101 -5 0 -3 -4 4 -8 9 -6 -3 -18 -37
-41 -33 -21 -48 -37 -44 -46 3 -8 8 -15 12 -15 4 0 17 -9 30 -21 23 -22 54
-19 45 4 -3 10 5 16 27 21 47 9 69 7 69 -6 0 -6 -3 -8 -7 -5 -3 4 -12 2 -20
-4 -7 -6 -21 -9 -32 -6 -14 3 -17 0 -14 -14 3 -11 9 -19 13 -19 12 0 60 -48
60 -60 0 -7 -10 -9 -27 -6 -16 3 -34 2 -42 -3 -9 -6 -19 -4 -29 5 -12 12 -12
17 0 31 11 15 11 16 -4 10 -20 -7 -34 8 -16 17 7 4 3 4 -9 2 -15 -3 -23 1 -23
9 0 8 -9 13 -21 12 -18 -1 -18 -3 -4 -13 14 -11 14 -12 -1 -18 -23 -9 -31 -7
-14 4 12 7 10 11 -9 18 -20 7 -21 10 -8 15 25 9 21 37 -5 38 -18 1 -19 2 -5 6
9 2 15 9 12 14 -4 5 0 9 8 9 19 0 47 33 39 46 -4 6 -17 13 -29 16 -23 6 -27 0
-24 -34 1 -9 -3 -19 -9 -23 -7 -4 -10 -1 -9 6 1 8 -1 22 -6 33 -5 11 -3 21 5
26 16 10 4 30 -17 30 -24 0 -83 -23 -83 -32 0 -14 -38 -9 -43 6 -7 18 43 42
53 25 10 -15 26 -5 33 21 4 16 -1 24 -19 32 -21 10 -24 18 -24 63 0 41 -5 56
-24 74 -28 26 -104 51 -156 51 -33 0 -37 -2 -33 -22 2 -13 1 -33 -4 -44 -6
-16 -13 -19 -28 -13 -19 8 -19 8 3 15 27 8 28 16 4 37 -24 22 -32 21 -32 -4 0
-19 -1 -19 -16 -4 -9 8 -14 22 -11 29 3 7 -19 39 -49 70 -30 31 -70 81 -89
111 -41 63 -54 74 -47 38 4 -23 2 -25 -21 -21 -44 9 -56 -8 -26 -37 24 -25 42
-32 80 -34 10 -1 23 -17 32 -39 8 -21 28 -48 45 -60 16 -13 35 -40 42 -62 7
-22 21 -42 31 -45 9 -3 20 -12 23 -20 3 -8 14 -15 25 -15 38 0 18 -34 -28 -48
-24 -7 -45 -11 -48 -8 -3 2 13 10 36 16 23 6 41 13 41 16 0 7 -45 45 -71 59
-10 6 -18 15 -18 20 -1 6 -7 10 -13 10 -7 0 -17 6 -21 13 -5 7 -28 12 -54 12
-62 0 -50 9 15 11 l51 2 -22 20 c-12 10 -21 23 -20 27 1 4 -3 7 -10 7 -7 -1
-29 3 -50 7 -32 7 -46 5 -78 -13 l-39 -22 0 31 c0 21 4 29 12 24 7 -4 8 -3 4
4 -4 6 -13 9 -21 6 -8 -4 -12 -10 -9 -15 3 -5 -1 -9 -9 -9 -16 0 -47 -31 -47
-49 0 -6 11 -16 25 -21 14 -5 25 -14 25 -20 0 -19 -23 -10 -51 19 l-27 29 48
41 c54 45 62 48 80 26 14 -17 53 -20 81 -4 26 13 15 29 -20 29 -19 0 -34 8
-45 24 -21 33 -74 34 -72 2 1 -16 -4 -20 -19 -18 -22 4 -37 21 -29 34 3 5 -2
11 -11 14 -9 4 -14 13 -11 21 3 8 -2 16 -12 19 -9 3 -26 10 -37 15 -11 5 -42
11 -70 12 -44 2 -50 4 -47 22 2 11 5 21 5 22 1 0 26 -4 55 -9 40 -8 65 -21
103 -55 27 -25 46 -49 43 -55 -3 -5 8 -2 25 6 40 21 39 37 -3 60 -19 10 -37
25 -40 32 -3 7 -23 25 -46 39 -48 31 -122 34 -237 12 -53 -11 -86 -12 -125 -5
-76 14 -73 19 8 13 72 -6 125 3 132 23 2 7 -8 16 -22 22 -20 7 -26 17 -26 39
0 24 5 29 30 33 44 7 57 -5 41 -36 -19 -35 -8 -56 31 -56 44 0 67 15 50 32
-15 15 -16 44 -1 53 16 10 59 -4 54 -18 -2 -6 24 -30 58 -53 44 -29 63 -48 65
-65 2 -15 15 -31 33 -42 46 -26 56 -22 61 24 l4 41 -90 59 c-134 88 -176 102
-331 105 -117 3 -137 1 -200 -21z"/>
<path d="M2099 7016 c32 -34 23 -68 -24 -90 -19 -10 -39 -15 -44 -12 -5 3 -33
-5 -62 -19 -30 -13 -74 -27 -99 -31 l-45 -7 29 32 c27 28 28 31 10 31 -11 0
-25 5 -31 11 -7 7 -25 9 -47 5 -39 -8 -40 -9 -26 -36 7 -13 4 -24 -11 -44 -11
-14 -25 -26 -31 -26 -6 0 -4 8 5 18 52 57 -16 95 -77 43 -13 -11 -20 -12 -23
-4 -2 6 -15 10 -28 7 -31 -5 -43 15 -19 33 16 12 20 12 30 -2 16 -21 21 -19
20 7 -2 33 -31 34 -71 3 -39 -29 -44 -45 -15 -45 14 0 20 -7 20 -21 0 -15 5
-19 15 -15 8 3 15 3 15 -1 0 -11 -51 -53 -65 -53 -8 0 -19 -8 -24 -17 -8 -17
-3 -18 64 -13 60 4 78 10 99 29 14 14 26 20 26 13 0 -25 -53 -52 -101 -52 -48
0 -122 -27 -114 -40 3 -4 23 -4 47 0 52 10 68 4 68 -25 0 -30 -24 -48 -55 -43
-14 3 -25 2 -25 -3 0 -15 23 -60 29 -56 43 23 109 47 125 45 32 -5 31 -28 -3
-34 -47 -10 -65 -36 -57 -84 6 -37 5 -40 -17 -40 -13 0 -29 6 -36 13 -11 10
-13 9 -9 -3 3 -8 14 -16 26 -18 15 -2 22 -13 27 -43 l7 -41 30 29 c16 15 52
74 79 130 33 68 60 110 81 127 118 91 186 137 208 143 28 7 99 53 119 77 20
24 3 19 -29 -8 -16 -13 -88 -49 -162 -79 -132 -56 -206 -78 -193 -57 3 5 1 10
-4 10 -6 0 -11 6 -11 13 0 18 94 63 160 76 62 13 229 69 248 84 6 5 12 24 12
42 0 33 -10 47 -45 59 -17 6 -17 4 4 -18z"/>
<path d="M3140 7016 c-56 -16 -95 -37 -136 -73 -42 -37 -91 -107 -99 -141 -5
-20 -28 -41 -92 -82 -102 -65 -229 -181 -271 -248 -33 -51 -95 -201 -112 -270
-9 -37 -17 -45 -60 -67 -27 -14 -58 -25 -70 -25 -29 0 -26 41 5 78 32 38 31
44 -1 31 -35 -13 -42 -4 -18 22 19 22 19 22 -3 10 -35 -18 -44 -14 -33 14 5
14 6 25 2 25 -5 0 -38 -29 -74 -64 -85 -82 -122 -155 -113 -220 4 -26 15 -57
25 -69 17 -21 25 -22 117 -18 54 2 116 4 137 5 l40 1 34 -78 c53 -124 53 -133
-8 -195 -29 -28 -84 -73 -124 -99 -122 -81 -244 -174 -260 -199 -9 -13 -16
-38 -16 -56 0 -18 -11 -53 -25 -77 -25 -43 -33 -81 -16 -81 5 0 26 7 47 16 22
9 73 21 114 26 121 14 165 42 329 204 l144 143 24 -19 c13 -10 58 -33 101 -51
76 -32 80 -33 285 -39 114 -4 209 -9 210 -11 2 -2 16 -25 32 -51 39 -63 55
-68 166 -58 52 5 137 10 190 10 82 0 100 3 123 21 14 11 26 29 26 39 0 9 7 23
15 30 34 28 14 36 -37 15 -14 -6 -18 -2 -18 17 0 13 -7 33 -15 45 -13 19 -22
21 -73 16 -55 -5 -59 -4 -65 17 -5 20 -9 21 -64 15 l-58 -8 51 35 c116 79 294
242 294 270 0 4 14 39 31 78 l31 69 37 -15 c20 -8 72 -24 116 -34 l80 -19 35
23 c36 24 83 104 95 161 l7 30 -22 -32 c-31 -47 -44 -41 -18 9 13 24 24 67 26
101 5 69 -6 70 -32 2 -10 -25 -21 -45 -25 -45 -4 0 -5 27 -3 60 4 52 2 59 -11
54 -11 -4 -21 4 -32 26 -12 23 -21 29 -35 25 -10 -3 -21 -1 -25 5 -13 21 -54
10 -78 -21 -28 -36 -47 -32 -47 10 0 40 -28 185 -47 240 -27 82 -102 187 -154
216 -26 13 -52 31 -59 40 -6 8 -37 24 -68 37 -51 20 -73 22 -207 21 -82 -1
-184 -6 -225 -12 -41 -5 -77 -8 -79 -5 -11 11 28 58 64 76 25 14 35 23 25 25
-45 13 -45 13 -30 23 8 6 25 10 38 10 13 0 22 6 22 15 0 8 9 15 20 15 11 0 20
5 20 10 0 13 -44 11 -100 -4z m20 -416 c-7 -14 -7 -20 0 -20 5 0 10 5 10 10 0
6 7 10 16 10 10 0 14 -6 10 -15 -4 -11 1 -15 19 -15 14 0 24 -3 24 -7 -3 -21
2 -24 18 -12 15 13 15 12 4 -8 -13 -26 -26 -29 -35 -10 -3 6 -3 2 0 -10 6 -25
-11 -37 -71 -47 -29 -6 -54 -21 -92 -59 -29 -28 -53 -57 -53 -65 0 -7 -18 -21
-40 -29 -30 -12 -42 -24 -50 -49 -12 -35 -73 -80 -92 -68 -6 4 -8 2 -5 -4 4
-5 3 -21 -2 -34 -9 -21 -10 -21 -11 -3 -4 44 3 81 21 118 11 21 17 42 14 48
-4 5 8 25 27 43 18 19 43 45 55 60 13 15 33 26 48 26 17 0 48 23 104 80 83 82
100 95 81 60z m208 -113 c36 -23 49 -36 43 -45 -7 -11 -19 -8 -59 12 -28 14
-53 22 -56 17 -3 -5 4 -11 15 -14 16 -4 19 -11 14 -29 -7 -23 -7 -23 10 -3 15
18 16 18 11 2 -3 -10 -6 -27 -6 -36 0 -25 -32 -58 -52 -53 -11 2 -22 -6 -29
-22 -9 -19 -20 -26 -40 -26 -20 0 -28 -6 -33 -24 -3 -14 -4 -31 -1 -39 8 -20
-18 -38 -56 -40 -28 -2 -36 -8 -56 -49 -15 -30 -36 -54 -56 -64 -42 -22 -89
-61 -105 -88 -13 -21 -13 -21 -7 2 4 13 2 22 -4 22 -6 0 -11 -8 -12 -17 0 -15
-2 -15 -9 2 -7 18 -9 18 -19 -10 -6 -16 -24 -41 -39 -53 -18 -16 -23 -26 -14
-29 14 -5 17 -43 3 -43 -8 0 -68 69 -85 97 -4 7 0 22 8 34 14 21 14 21 18 -7
2 -25 8 -29 32 -29 36 0 56 27 40 52 -6 10 -23 18 -38 18 -34 -1 -28 17 10 30
43 15 54 24 54 45 0 31 32 89 52 96 10 3 26 17 35 31 10 14 32 32 50 39 25 11
33 20 33 39 0 18 7 28 25 35 14 5 31 24 39 44 10 25 23 37 43 42 15 4 44 18
63 31 19 12 42 23 51 23 9 0 24 9 34 20 24 27 32 26 93 -13z m22 -137 c-5 -19
-5 -28 1 -25 5 4 9 13 9 21 0 8 5 12 10 9 6 -4 7 -11 4 -17 -4 -6 1 -17 11
-24 17 -13 17 -14 0 -41 -10 -15 -12 -23 -5 -16 7 6 18 10 24 9 6 -2 8 -1 3 1
-4 3 -4 9 -1 15 4 6 9 5 14 -3 7 -10 12 -10 27 2 17 13 17 13 4 -4 -8 -10 -29
-26 -46 -35 -32 -17 -115 -105 -115 -122 0 -5 -16 -14 -35 -20 -19 -6 -40 -20
-45 -31 -6 -10 -17 -19 -25 -19 -7 0 -24 -17 -36 -39 -15 -28 -36 -46 -72 -62
-28 -13 -57 -31 -65 -39 -13 -12 -14 -11 -8 8 6 17 4 21 -8 16 -15 -6 -56 12
-68 29 -9 15 30 47 58 47 12 0 34 4 48 10 21 8 26 16 26 43 0 41 30 82 65 91
22 6 57 53 54 73 -5 30 2 35 40 29 39 -6 39 -5 58 39 11 29 24 45 35 45 10 0
22 9 28 20 16 29 20 25 10 -10z m628 -107 c1 -29 -4 -56 -14 -71 -9 -13 -14
-25 -12 -27 8 -8 37 23 56 61 22 43 52 75 52 55 0 -21 -33 -96 -52 -117 -35
-40 -18 -36 28 6 25 23 48 40 50 37 3 -3 -11 -34 -31 -71 -19 -36 -32 -66 -29
-66 4 0 25 15 48 33 76 62 84 61 31 -3 -33 -39 -46 -80 -26 -80 4 0 20 10 35
21 42 33 40 18 -5 -44 -45 -64 -75 -76 -64 -27 6 28 5 30 -24 30 -21 0 -31 5
-31 15 0 8 -7 15 -15 15 -8 0 -15 9 -15 19 0 11 -9 23 -20 26 -11 3 -20 15
-20 25 0 10 -4 21 -9 24 -17 11 -4 114 19 150 30 50 45 46 48 -11z m-456 -43
c22 -18 23 -33 2 -51 -9 -8 -27 -30 -39 -49 -56 -89 -304 -313 -281 -255 6 18
-10 30 -17 13 -4 -10 -8 -10 -16 2 -5 8 -7 19 -4 25 3 5 0 5 -6 -1 -16 -15
-48 -7 -55 13 -7 18 11 43 31 43 14 0 69 47 122 103 14 15 33 27 43 27 10 0
27 13 39 29 12 16 34 31 49 35 16 3 31 14 35 25 7 24 52 61 68 58 6 -1 19 -9
29 -17z m80 -42 c-18 -18 -14 -32 5 -17 9 8 14 9 10 3 -3 -5 5 -23 18 -38 27
-32 40 -83 31 -120 -7 -28 -93 -81 -150 -91 -20 -4 -36 -11 -36 -15 0 -7 -59
-20 -100 -22 -8 0 -21 -5 -27 -11 -17 -12 -16 -7 2 30 9 17 31 43 50 58 19 14
45 45 56 68 23 45 78 98 93 89 5 -3 6 0 2 6 -8 13 32 72 48 72 6 0 5 -5 -2
-12z m-1158 -551 c9 -23 16 -46 16 -50 0 -3 -35 -31 -77 -62 -43 -30 -92 -66
-108 -80 -30 -24 -127 -55 -172 -55 -59 0 7 74 130 146 43 25 101 67 129 95
27 27 53 49 58 49 4 0 15 -19 24 -43z m1062 -113 c5 -21 11 -25 30 -21 38 7
28 -6 -29 -41 -59 -35 -72 -39 -64 -17 4 8 -14 -1 -39 -20 -32 -24 -56 -35
-80 -35 -65 0 -59 64 10 104 62 36 65 33 17 -19 -22 -24 -41 -47 -41 -50 0
-10 40 15 78 49 45 39 94 75 104 76 4 0 11 -12 14 -26z"/>
<path d="M1318 6669 c-21 -10 -42 -28 -48 -39 -10 -18 -7 -18 37 6 l48 25 -64
-60 c-60 -57 -101 -77 -101 -48 0 25 -17 39 -39 32 -23 -7 -27 -34 -10 -67 9
-17 5 -26 -27 -59 -39 -40 -126 -88 -131 -73 -2 5 -16 33 -31 63 -30 60 -58
82 -46 37 5 -21 3 -25 -10 -20 -21 8 -20 4 9 -67 30 -71 24 -93 -33 -108 -21
-6 -53 -22 -72 -36 l-35 -26 -28 33 c-16 18 -38 50 -49 71 -12 20 -25 37 -29
37 -16 0 -14 -56 3 -95 33 -76 25 -97 -51 -139 -42 -24 -77 -51 -105 -84 -31
-35 -3 -26 76 28 41 27 94 54 119 59 31 7 53 20 74 46 41 48 84 75 121 75 23
0 43 12 81 48 88 83 169 150 209 172 21 12 53 31 69 42 17 11 -1 -9 -40 -45
-38 -36 -67 -66 -63 -67 5 0 34 20 65 44 56 42 76 51 57 24 -6 -7 -11 -26 -13
-43 -4 -38 -15 -50 -49 -50 -22 0 -26 -4 -27 -30 0 -27 -3 -30 -27 -27 -23 3
-28 -1 -28 -17 0 -12 -9 -29 -20 -38 -11 -10 -20 -27 -20 -39 0 -49 -11 -56
-34 -21 -20 30 -69 55 -51 27 11 -18 8 -68 -6 -101 -13 -33 -21 -36 -39 -14
-26 31 -40 18 -33 -30 3 -25 2 -45 -2 -45 -4 0 -21 16 -38 35 -34 41 -44 43
-49 13 -3 -22 -4 -21 -21 6 -19 28 -19 28 9 57 15 16 43 34 63 40 46 15 112
63 180 132 92 94 51 85 -51 -11 -94 -89 -110 -98 -172 -104 -22 -2 -35 -12
-50 -41 -23 -40 -108 -97 -146 -97 -30 0 -54 -15 -106 -65 -28 -26 -43 -48
-39 -55 5 -7 -4 -6 -21 3 -20 10 -33 29 -44 63 -18 54 -42 76 -62 56 -9 -9 -4
-32 26 -104 28 -70 36 -105 35 -143 -1 -28 4 -59 11 -70 42 -64 212 -180 307
-209 22 -7 22 -7 6 33 -18 47 -76 92 -171 132 -86 36 -132 72 -132 105 0 32
42 74 73 74 25 0 83 -39 60 -40 -21 0 -15 -28 10 -41 12 -7 46 -32 75 -57 38
-32 51 -50 47 -63 -5 -14 4 -20 49 -33 59 -17 73 -36 57 -77 -5 -13 -6 -46 -4
-74 5 -46 1 -55 -36 -111 -23 -34 -48 -67 -56 -74 -8 -7 -15 -20 -15 -29 0 -9
-5 -22 -12 -29 -8 -8 -8 -15 2 -27 22 -26 -3 -89 -45 -115 -39 -24 -45 -40
-16 -40 31 0 35 -19 7 -30 -30 -11 -36 -34 -7 -25 21 6 38 -10 21 -20 -5 -3
-10 -13 -10 -22 0 -13 5 -12 25 7 27 26 32 46 13 53 -9 3 -6 10 8 23 24 21
142 267 170 354 22 70 22 135 0 182 -10 21 -54 73 -97 117 -43 43 -79 83 -79
89 0 5 -7 12 -15 16 -28 10 -15 24 38 41 69 23 229 107 295 157 29 21 79 73
112 113 32 41 60 69 63 62 2 -6 12 6 21 27 19 46 31 44 15 -3 -14 -39 4 -64
66 -92 57 -27 201 -25 275 2 30 11 64 23 76 26 23 5 129 -49 143 -74 7 -13 9
-13 14 1 10 26 -2 44 -49 71 -24 14 -44 28 -44 31 0 9 155 -9 161 -18 7 -11
21 20 14 32 -3 4 -21 11 -41 14 -29 6 -33 10 -24 22 10 12 7 14 -21 14 -33 1
-33 1 -14 17 19 15 19 15 -12 10 -18 -4 -35 -2 -38 3 -3 6 -30 10 -59 10 -39
0 -61 -6 -80 -21 -19 -15 -52 -23 -121 -32 -52 -6 -98 -7 -102 -4 -3 4 10 22
30 41 41 38 57 71 57 123 0 30 7 42 41 71 38 33 40 36 23 49 -10 7 -12 13 -6
13 10 0 10 5 1 22 -8 14 -14 18 -17 10 -2 -6 -11 -12 -19 -12 -13 0 -15 9 -10
50 5 43 3 51 -16 65 -29 21 -94 18 -139 -6z m41 -206 c-20 -60 -31 -224 -16
-240 13 -12 80 -11 172 3 181 28 179 28 171 16 -5 -8 2 -12 21 -13 21 -1 23
-3 8 -6 -11 -3 -26 -10 -32 -15 -16 -13 -86 -1 -77 13 3 6 -11 -1 -32 -14 -22
-14 -64 -33 -94 -41 -48 -14 -63 -14 -113 -2 -32 7 -66 21 -76 30 -16 15 -41
84 -41 113 0 5 25 46 55 92 30 46 55 90 55 99 0 8 3 13 6 9 3 -3 0 -23 -7 -44z"/>
<path d="M6231 6013 c-8 -8 -15 -27 -17 -41 -4 -38 -30 -55 -58 -37 -21 14
-22 14 -18 -19 4 -31 0 -36 -42 -61 -25 -15 -46 -31 -46 -37 0 -6 -14 -8 -31
-6 -29 5 -31 3 -25 -22 7 -35 0 -41 -33 -29 -25 9 -24 8 7 -18 38 -33 39 -39
10 -46 -13 -2 -31 -8 -40 -12 -15 -6 -18 -2 -18 20 0 27 -1 27 -18 12 -23 -21
-33 -22 -26 -2 4 10 0 15 -12 15 -11 0 -32 16 -47 35 -15 19 -32 35 -38 35
-17 0 1 -43 28 -68 14 -13 24 -25 22 -26 -2 -2 -22 -13 -44 -25 -36 -19 -41
-19 -62 -5 -53 34 -117 64 -139 64 -18 0 -23 6 -26 33 -2 24 -8 33 -24 35 -18
3 -21 -1 -17 -22 4 -21 -1 -28 -38 -47 -47 -23 -102 -41 -132 -40 -33 0 -102
-30 -129 -56 -35 -33 -36 -49 -3 -27 31 20 32 8 3 -23 -36 -39 0 -26 46 17 24
22 48 40 55 40 6 0 11 5 11 10 0 6 5 10 10 10 6 0 10 -9 10 -19 0 -32 -99 -96
-170 -110 -62 -12 -137 -40 -110 -41 8 0 47 6 85 13 71 14 120 35 164 68 31
25 50 23 86 -7 l30 -25 -23 -19 c-18 -15 -21 -25 -16 -47 7 -27 6 -27 -12 -11
-16 14 -25 15 -57 5 -42 -13 -43 -18 -22 -51 l16 -24 -46 17 c-35 12 -45 21
-45 38 0 36 -18 36 -22 1 -3 -28 -11 -38 -57 -65 -61 -36 -123 -53 -129 -34
-6 17 -22 13 -22 -6 -1 -25 -59 -90 -99 -111 -19 -9 -37 -24 -39 -32 -4 -12
-2 -13 9 -2 7 6 23 12 36 12 18 0 23 -6 24 -27 0 -21 6 -12 24 36 28 77 48 98
95 103 31 3 37 -1 52 -32 36 -72 14 -116 -75 -146 -38 -13 -51 -14 -62 -4 -12
10 -15 9 -15 -7 0 -26 -116 -91 -132 -75 -10 10 6 98 29 158 15 40 -27 -8 -48
-55 -38 -84 -82 -226 -81 -259 1 -26 -4 -35 -24 -42 -14 -6 -39 -10 -55 -10
-32 0 -57 -35 -46 -64 5 -12 11 -10 34 13 23 23 46 31 126 46 53 10 97 23 97
29 -1 6 -7 42 -14 79 l-13 69 60 29 c34 16 64 26 67 22 4 -5 15 -32 24 -61
l17 -54 -45 -48 c-46 -49 -59 -77 -31 -66 11 4 15 -2 15 -26 0 -17 9 -46 21
-64 25 -40 32 -44 19 -8 -14 36 -13 44 9 44 11 0 21 6 23 13 2 8 21 2 62 -19
56 -30 58 -32 37 -44 -18 -9 -27 -8 -47 5 -40 26 -50 12 -16 -23 19 -19 41
-32 57 -32 29 0 105 47 105 65 0 7 -21 18 -47 26 l-48 13 40 8 c68 12 75 10
75 -18 0 -37 29 -145 46 -171 8 -13 22 -23 32 -22 13 0 13 2 -4 9 -30 12 -44
60 -44 146 0 68 2 74 23 79 12 3 39 -1 59 -10 21 -8 46 -15 56 -15 21 0 37
-41 48 -127 l6 -51 -63 -15 c-62 -15 -63 -15 -22 -16 23 -1 54 4 69 9 19 8 30
8 38 0 18 -18 27 -10 12 13 -14 22 -36 120 -36 164 0 20 5 23 38 23 20 1 55 7
77 15 46 17 42 20 86 -85 17 -41 37 -81 45 -89 7 -8 5 3 -6 25 -28 57 -54 165
-47 194 6 23 37 48 97 77 24 11 22 12 -20 12 -41 1 -49 5 -93 53 -43 47 -46
49 -32 19 20 -40 23 -117 6 -134 -10 -9 -11 -5 -6 23 5 28 -1 48 -27 100 -31
60 -36 65 -78 76 -25 6 -53 15 -62 19 -13 5 -21 -4 -37 -41 -26 -58 -26 -68
-2 -54 33 17 46 12 25 -11 -19 -22 -19 -22 6 -15 23 7 22 4 -10 -23 -41 -36
-37 -38 25 -11 87 37 87 20 0 -24 -57 -29 -45 -33 38 -11 81 21 82 18 2 -20
-39 -19 -61 -35 -50 -35 19 -1 19 -1 2 -14 -18 -14 -18 -14 0 -19 11 -3 5 -5
-13 -6 -20 -1 -40 8 -58 24 -26 24 -27 26 -24 142 l3 117 87 20 c80 18 87 21
92 48 3 15 1 40 -4 54 -23 59 0 97 70 119 14 4 30 15 37 24 11 14 12 14 13 0
0 -13 53 -60 183 -160 15 -12 31 -18 35 -14 8 9 -157 165 -174 165 -17 0 -23
90 -7 106 30 29 122 66 151 59 28 -6 152 -117 152 -136 0 -21 -22 -6 -66 46
-53 61 -68 65 -35 10 20 -34 20 -35 1 -25 -10 5 -22 15 -25 20 -4 6 -11 8 -16
4 -5 -3 0 -18 11 -34 24 -34 25 -62 4 -96 -26 -38 -11 -38 40 1 41 31 61 36
38 9 -5 -5 -19 -27 -32 -49 l-23 -40 33 30 34 30 -22 -37 c-12 -21 -17 -38
-12 -38 6 0 10 3 10 8 1 4 17 25 37 47 29 33 33 35 18 10 -10 -16 -29 -45 -42
-62 -31 -42 -15 -43 26 -1 32 33 51 81 51 133 1 20 9 36 26 48 14 11 27 17 30
15 2 -3 -3 -25 -11 -50 -27 -77 16 -135 82 -109 l28 11 -32 -6 c-24 -4 -37 0
-52 15 -26 26 -27 55 -1 91 36 51 40 74 23 134 -15 54 -17 56 -34 40 -11 -10
-19 -15 -20 -13 -1 2 -2 17 -3 32 -2 16 -13 38 -25 50 l-22 22 6 -25 c4 -20 0
-29 -25 -45 -16 -11 -30 -25 -30 -31 0 -19 27 -36 52 -32 28 4 36 -27 14 -57
-14 -20 -15 -19 -48 11 -39 36 -104 78 -136 88 -34 11 -78 -2 -125 -38 -28
-21 -49 -31 -61 -26 -22 7 -17 24 9 28 11 1 22 7 23 12 2 6 23 24 47 40 37 26
45 28 55 15 14 -16 50 -20 50 -6 0 5 -11 23 -25 39 l-24 29 72 7 c40 4 89 8
109 9 20 0 35 4 32 9 -7 12 27 -2 59 -25 35 -24 43 -17 27 22 -7 17 -10 41 -6
54 5 22 18 31 79 56 22 9 26 15 22 34 -7 27 12 47 59 62 22 7 31 16 31 33 0
12 11 29 23 38 28 19 19 36 -14 28 -30 -8 -31 3 -2 33 15 16 17 23 7 23 -8 -1
-20 -8 -28 -17z m-660 -293 c26 -14 24 -30 -7 -55 -17 -14 -23 -26 -19 -38 10
-25 24 -21 62 19 43 47 60 35 38 -27 -9 -24 -13 -55 -10 -67 6 -23 4 -24 -37
-17 -24 4 -60 16 -80 26 -47 24 -108 77 -108 94 0 18 89 75 117 75 14 0 33 -5
44 -10z m-341 -345 c17 -9 29 -10 37 -4 24 20 103 -41 103 -79 0 -8 -20 -37
-45 -65 l-45 -52 61 -5 62 -5 -61 -18 c-91 -27 -127 -86 -103 -172 6 -21 8
-58 4 -81 l-6 -44 -54 0 c-81 0 -154 43 -153 92 0 7 27 32 59 55 45 32 59 48
63 72 6 38 -7 39 -44 4 l-28 -27 0 33 c0 23 7 39 25 53 14 11 25 26 25 34 0
19 5 18 69 -17 l56 -31 -47 44 c-46 43 -46 43 -51 122 -5 67 -3 82 11 93 21
16 31 16 62 -2z"/>
<path d="M9940 5933 c0 -6 6 -18 13 -25 12 -11 12 -16 -1 -28 -14 -13 -15 -12
-9 3 3 9 1 19 -5 23 -8 5 -9 -3 -3 -27 4 -19 11 -61 14 -93 4 -36 11 -60 19
-62 7 -1 8 0 2 3 -5 2 -10 23 -10 44 0 29 3 38 13 33 10 -6 10 -4 0 7 -16 16
-17 65 -2 75 9 5 10 -1 5 -20 -4 -18 -2 -32 9 -42 20 -20 19 -34 -2 -34 -15 0
-14 -2 3 -15 17 -13 17 -14 2 -15 -10 0 -18 -4 -18 -10 0 -5 6 -7 13 -4 7 2
19 -7 27 -20 7 -14 17 -23 23 -19 5 3 6 -4 3 -18 -7 -23 -7 -23 9 -4 8 11 13
25 10 33 -2 7 -1 10 4 7 5 -3 12 -1 16 5 8 13 25 13 25 -1 0 -6 10 -25 22 -42
13 -18 22 -41 20 -52 -2 -17 -1 -17 7 -4 11 18 4 59 -11 59 -5 0 -7 4 -4 9 3
5 -14 27 -37 49 -38 35 -57 72 -37 72 10 0 28 -23 28 -35 0 -5 5 -11 11 -13 6
-2 11 1 11 6 0 9 -92 92 -102 92 -2 0 -4 -9 -5 -21 -2 -16 1 -18 11 -10 10 8
16 7 25 -3 8 -10 9 -16 1 -21 -5 -3 -10 -1 -10 6 0 9 -4 9 -15 -1 -12 -10 -15
-7 -21 14 -3 13 -3 29 0 35 4 5 -7 24 -24 42 -16 19 -30 28 -30 22z"/>
<path d="M6205 5557 c-28 -46 -28 -47 -11 -47 22 0 20 -33 -4 -55 -11 -10 -20
-22 -20 -27 0 -5 9 -6 20 -3 18 6 20 2 20 -49 0 -39 4 -55 12 -53 9 1 15 -19
19 -63 5 -53 40 -171 55 -189 3 -3 10 4 17 14 13 16 14 16 20 1 7 -17 27 -22
27 -7 0 6 11 22 25 37 14 15 25 32 25 39 0 7 6 18 14 24 11 9 11 21 0 74 -8
34 -16 92 -20 130 -3 37 -9 67 -13 67 -11 0 -44 -39 -70 -82 -24 -40 -19 -47
13 -23 47 35 47 12 1 -48 -19 -25 -35 -48 -35 -52 0 -3 14 2 31 10 43 23 46
13 8 -29 -31 -36 -34 -61 -5 -36 9 6 21 10 27 8 7 -2 -4 -14 -24 -27 -51 -32
-63 -24 -69 45 -7 77 3 113 47 179 42 64 39 83 -5 40 -16 -16 -33 -26 -36 -22
-4 3 -9 26 -11 50 -4 32 -1 48 11 59 22 23 20 31 -5 18 -16 -9 -20 -8 -18 2 3
16 -11 48 -20 48 -3 0 -15 -15 -26 -33z"/>
<path d="M5550 5275 c-11 -33 -10 -40 9 -65 11 -16 18 -36 15 -44 -8 -20 5
-20 30 -1 11 8 30 15 43 15 29 0 31 -30 3 -55 -27 -25 -18 -30 19 -11 44 23
50 41 35 99 -17 65 -41 88 -97 94 -44 5 -45 5 -57 -32z"/>
<path d="M5731 5178 c-1 -52 -15 -72 -71 -96 -31 -14 -32 -16 -12 -20 23 -4
29 -16 12 -27 -17 -11 -11 -25 11 -25 11 0 18 -4 15 -9 -3 -5 14 -12 39 -15
41 -7 45 -9 39 -30 -3 -15 6 -53 25 -101 17 -42 31 -85 31 -96 0 -26 32 -25
56 2 19 21 19 22 -1 16 -30 -10 -40 1 -69 74 -33 82 -32 89 3 123 19 18 27 34
24 47 -3 10 -1 19 4 19 6 0 30 -40 54 -90 24 -49 47 -90 51 -90 4 0 12 9 18
20 8 15 8 20 -2 20 -13 1 -78 143 -78 172 0 27 11 48 26 48 23 0 36 -39 29
-88 -6 -41 -5 -45 9 -33 9 8 16 24 16 37 0 13 5 24 10 24 15 0 13 12 -12 68
l-23 51 -45 -30 -45 -30 -17 21 c-10 12 -18 27 -18 34 0 6 -10 20 -21 30 -21
18 -22 18 -17 -15 5 -33 3 -32 -29 18 -10 15 -12 11 -12 -29z"/>
<path d="M3938 5104 c-13 -13 -22 -15 -46 -6 -26 9 -33 7 -48 -9 -11 -12 -28
-19 -43 -17 -19 2 -29 -3 -36 -19 -5 -13 -18 -23 -28 -23 -11 0 -41 -20 -69
-45 -45 -41 -54 -44 -101 -44 -134 2 -478 -38 -659 -76 -38 -8 -92 -15 -119
-15 -47 0 -51 2 -60 30 l-11 30 -31 -40 c-18 -21 -40 -42 -50 -45 -9 -4 -21
-15 -27 -25 -9 -16 -6 -18 23 -14 57 9 198 32 348 58 149 26 289 39 574 55
152 9 165 11 248 46 51 21 95 34 106 30 11 -3 22 -1 26 5 12 19 83 10 148 -20
64 -30 97 -37 97 -22 0 29 -23 80 -34 76 -7 -3 -18 7 -24 22 -10 20 -16 24
-26 15 -10 -8 -17 -6 -31 9 -10 11 -28 20 -40 20 -12 0 -30 9 -40 20 -22 24
-26 25 -47 4z"/>
<path d="M710 4953 c0 -11 43 -51 85 -80 17 -12 48 -46 70 -77 43 -60 65 -74
40 -26 l-16 30 43 0 c23 0 66 -6 95 -12 48 -11 53 -15 53 -40 0 -34 15 -37 24
-5 14 55 9 65 -40 73 -25 3 -76 22 -112 42 -94 49 -96 51 -75 75 18 20 17 20
-60 13 -55 -5 -83 -3 -93 5 -8 6 -14 7 -14 2z"/>
<path d="M2108 4841 c-19 -15 -40 -20 -85 -19 -33 0 -68 -4 -79 -10 -16 -9 -8
-11 39 -12 57 0 177 -27 177 -40 0 -4 -12 -13 -27 -20 -27 -13 -26 -14 44 -23
63 -8 75 -7 89 8 13 13 14 19 5 25 -7 4 -12 11 -11 16 0 5 -36 16 -81 24 -84
15 -91 26 -31 44 12 4 20 12 17 17 -9 14 -30 11 -57 -10z"/>
<path d="M4164 4821 c24 -26 7 -33 -50 -21 -65 15 -150 -1 -140 -26 3 -8 -3
-23 -14 -34 -11 -11 -20 -27 -20 -36 0 -9 -25 -26 -62 -43 -49 -23 -66 -26
-80 -17 -39 24 -22 47 87 117 64 42 77 67 27 54 -15 -4 -72 -26 -127 -50 -55
-24 -120 -46 -145 -50 -57 -9 -113 -32 -106 -43 3 -5 31 -7 62 -5 31 2 64 1
73 -3 9 -4 22 -8 29 -10 23 -4 52 -36 52 -56 0 -10 5 -18 11 -18 5 0 8 -4 4
-9 -3 -5 -1 -12 4 -15 5 -4 12 -2 16 4 3 5 29 10 56 10 42 0 55 5 82 30 19 18
41 29 53 28 12 -2 29 3 37 11 14 11 27 10 83 -7 37 -11 62 -16 57 -11 -6 6
-48 20 -94 32 -98 26 -114 49 -39 57 32 4 40 7 27 12 -12 5 -17 16 -15 30 2
19 9 23 38 23 29 0 36 -4 38 -23 2 -13 -1 -29 -7 -36 -8 -10 -7 -17 4 -26 13
-11 14 -10 9 4 -5 12 0 16 19 16 32 0 76 18 99 41 16 16 16 18 -7 33 -17 11
-26 13 -31 4 -4 -7 -3 -8 4 -4 7 4 12 2 12 -3 0 -13 -27 -14 -35 -2 -3 5 -1
12 5 16 11 7 -9 45 -24 45 -5 0 -1 -9 8 -19z"/>
<path d="M2202 4683 c-16 -3 -22 -9 -18 -20 3 -8 9 -33 12 -56 4 -23 13 -54
20 -69 8 -15 14 -40 14 -56 0 -36 4 -40 34 -35 21 4 24 11 30 86 3 45 9 92 12
104 9 32 -46 56 -104 46z"/>
<path d="M3385 4682 c-24 -21 -109 -34 -273 -42 -237 -13 -297 -19 -361 -36
-72 -21 -61 -26 19 -9 84 18 134 18 168 1 31 -16 62 -51 62 -68 0 -6 3 -8 6
-5 7 7 40 -26 46 -45 2 -5 58 -14 124 -19 118 -10 124 -9 295 27 96 20 179 36
184 37 6 0 12 10 13 21 1 14 -2 16 -7 8 -5 -9 -13 -2 -26 21 -10 19 -27 39
-37 46 -17 11 -19 10 -17 -11 1 -13 -1 -31 -6 -40 -8 -20 -45 -24 -45 -5 0 6
-5 4 -11 -5 -5 -10 -17 -18 -25 -18 -8 0 -31 -9 -51 -20 -33 -17 -57 -20 -189
-20 -150 0 -150 0 -180 28 -33 31 -56 67 -47 76 4 3 46 6 95 6 l88 0 0 -40 c0
-53 25 -55 35 -2 8 43 23 65 38 55 6 -4 7 -1 2 7 -6 10 2 12 43 7 77 -9 92
-20 93 -70 1 -39 2 -38 10 17 8 57 27 85 57 86 6 0 12 5 12 10 0 12 -102 14
-115 2z"/>
<path d="M1930 4624 c-30 -9 -73 -20 -94 -25 l-39 -11 39 -22 c49 -27 107
-111 101 -146 -2 -14 -7 -33 -11 -42 -6 -13 -3 -15 13 -11 15 4 25 20 35 54
18 60 32 219 20 218 -5 0 -34 -7 -64 -15z"/>
<path d="M5541 4580 c-25 -17 -52 -28 -60 -26 -49 15 -71 17 -71 8 0 -5 14
-15 30 -22 47 -20 45 -28 -15 -46 -39 -13 -55 -23 -55 -35 0 -10 -6 -19 -12
-22 -10 -3 -8 -13 6 -38 14 -23 16 -34 8 -37 -17 -5 -15 -19 9 -51 12 -16 18
-34 15 -40 -11 -17 21 -13 64 9 22 11 40 27 40 34 0 8 -16 37 -36 66 -40 59
-39 80 6 80 45 0 86 25 120 72 56 77 30 102 -49 48z"/>
<path d="M1522 4489 l-64 -29 44 -43 c44 -42 88 -118 88 -150 0 -27 19 -20 31
11 18 46 -6 244 -29 241 -4 0 -36 -14 -70 -30z"/>
<path d="M1009 4227 l-36 -20 28 -26 c18 -16 33 -45 41 -76 7 -27 13 -52 15
-54 1 -2 21 8 43 23 l40 26 -20 51 c-10 28 -20 52 -22 53 -2 0 -14 10 -28 22
l-25 21 -36 -20z"/>
<path d="M697 3974 l-26 -37 77 -38 77 -38 24 23 c23 23 23 24 5 52 -36 58
-56 74 -94 74 -31 0 -41 -6 -63 -36z"/>
<path d="M2945 3949 c-19 -9 -19 -9 2 -5 13 2 42 -2 65 -9 41 -13 41 -14 13
-15 -27 -2 -26 -3 12 -11 47 -11 57 -21 67 -64 6 -28 5 -29 -9 -11 -8 10 -12
22 -10 26 7 12 -63 22 -96 15 -36 -8 -37 -18 -1 -34 15 -8 35 -17 44 -22 10
-5 25 -9 33 -9 8 0 15 -4 15 -10 0 -13 -6 -13 -33 1 -17 9 -16 5 8 -19 17 -17
40 -32 51 -32 27 0 48 24 40 45 -3 9 -2 13 4 10 6 -3 10 -13 10 -22 0 -15 2
-14 18 0 10 10 22 17 26 17 5 0 -2 -9 -15 -19 -21 -17 -22 -22 -11 -40 7 -12
8 -21 2 -21 -5 0 -12 11 -16 25 -6 24 -8 25 -23 10 -10 -8 -26 -15 -37 -15
-10 0 -26 -5 -34 -10 -13 -8 -12 -10 3 -10 9 0 17 -5 17 -11 0 -6 8 -8 19 -4
26 8 48 -3 55 -28 5 -21 4 -20 -14 3 -16 20 -20 22 -20 8 0 -23 -5 -22 -38 2
-20 15 -50 22 -109 27 -96 7 -124 -5 -144 -62 -14 -39 -23 -43 -37 -19 -8 13
-13 14 -31 4 -13 -6 -25 -9 -29 -6 -3 3 0 6 6 6 7 0 12 9 12 20 0 11 -5 20
-11 20 -13 0 -147 -72 -197 -106 -19 -13 -39 -24 -43 -24 -5 0 -9 -6 -9 -13 0
-10 27 -6 111 17 108 30 111 30 125 11 8 -10 14 -38 14 -61 0 -52 12 -62 35
-28 15 24 20 25 65 19 30 -4 50 -3 55 4 9 15 21 14 39 -5 9 -8 16 -10 16 -4 0
6 -7 13 -15 16 -8 4 -12 10 -10 15 13 20 137 64 158 56 6 -3 1 -6 -13 -7 -23
-1 -23 -2 -5 -10 11 -5 14 -9 7 -9 -7 -1 -40 -19 -73 -41 -33 -22 -62 -40 -65
-40 -16 0 -93 -44 -98 -56 -3 -9 -1 -12 4 -9 15 9 12 -204 -3 -235 -7 -13 -23
-30 -36 -36 -22 -12 -23 -12 -3 -18 11 -4 32 -4 46 0 28 7 38 -11 11 -19 -11
-4 -10 -4 2 -3 12 1 18 10 19 26 1 37 15 90 25 90 5 0 6 -6 3 -13 -4 -11 34
-13 210 -9 l214 5 12 -39 c39 -135 35 -343 -8 -466 -43 -122 -97 -163 -212
-163 -61 0 -85 5 -131 27 -58 29 -98 80 -100 129 -1 18 -2 20 -6 6 -3 -10 3
-37 12 -60 16 -41 16 -42 -5 -59 -12 -10 -19 -18 -14 -18 4 0 16 8 26 17 12
10 22 13 26 8 10 -15 52 -37 97 -52 37 -12 38 -13 8 -10 -18 2 -29 -1 -26 -6
3 -5 -5 -6 -18 -2 -19 5 -21 4 -9 -4 13 -9 13 -11 1 -11 -11 0 -12 -3 -4 -11
6 -6 39 -12 73 -13 40 -2 56 0 48 7 -9 6 -8 7 5 3 10 -3 24 -6 30 -7 7 0 1 -5
-12 -10 -13 -5 -40 -7 -60 -4 -29 4 -31 3 -11 -4 61 -22 262 2 245 29 -3 4 3
6 12 4 26 -7 114 74 147 137 53 97 68 175 73 378 l4 185 32 0 c18 1 38 -5 45
-11 19 -18 71 -16 79 2 3 9 22 24 42 34 57 30 76 56 63 86 -13 28 -32 31 -82
14 -39 -14 -50 -3 -50 54 0 101 -97 207 -188 207 -24 0 -32 7 -47 41 -23 51
-140 173 -156 163 -7 -4 -9 -3 -6 3 9 15 -39 57 -54 48 -7 -5 -10 -4 -5 3 9
14 -48 54 -68 46 -17 -7 -22 -34 -6 -34 6 0 10 -5 10 -12 0 -6 -9 -3 -21 8
l-21 19 22 17 21 17 -21 11 c-11 6 -26 8 -32 4 -7 -4 -8 -3 -4 4 4 7 -14 17
-51 28 -32 9 -62 18 -68 20 -5 1 -19 -2 -30 -7z m165 -500 c8 -13 17 -18 28
-14 9 3 13 3 9 -1 -8 -8 51 -74 67 -74 5 0 1 9 -8 19 -12 13 -14 21 -6 26 6 4
14 4 17 1 4 -3 0 -6 -8 -6 -8 0 2 -15 22 -33 19 -17 27 -26 17 -18 -10 8 -21
11 -25 7 -8 -7 38 -42 50 -38 5 1 6 -2 3 -7 -3 -5 1 -14 9 -21 27 -22 7 -28
-102 -29 -146 -1 -267 -12 -274 -23 -3 -5 -5 14 -3 44 3 38 2 47 -5 33 -9 -19
-10 -19 -10 3 -1 12 4 22 10 22 5 0 7 5 3 11 -3 6 8 24 25 40 35 31 52 39 31
13 -12 -13 -10 -14 14 -3 19 9 23 15 14 21 -9 5 -7 8 7 9 11 1 24 1 28 0 5 -1
24 4 43 11 23 8 30 15 21 20 -9 6 -9 8 0 8 7 0 17 -9 23 -21z m320 -349 c15
-30 20 -59 20 -124 0 -138 -29 -306 -64 -378 -9 -17 -13 -36 -9 -42 3 -6 3 -8
-1 -4 -5 4 -29 -6 -55 -22 -46 -29 -77 -26 -51 5 7 8 9 15 4 15 -5 0 1 7 13
15 12 8 33 36 47 61 50 90 59 136 62 329 4 209 3 185 9 185 2 0 14 -18 25 -40z"/>
<path d="M2389 3812 c-87 -49 -93 -54 -130 -120 -17 -31 -42 -67 -55 -79 -30
-27 -30 -27 1 -57 14 -14 25 -29 25 -34 0 -4 -14 -27 -31 -50 -23 -32 -39 -43
-67 -47 -32 -5 -143 -37 -179 -52 -7 -2 -13 -1 -13 4 0 4 24 21 54 37 30 16
52 34 50 40 -2 6 11 20 30 30 68 37 72 120 7 163 -19 13 -45 23 -58 23 -34 0
-77 -24 -90 -52 -6 -12 -21 -44 -33 -70 -12 -27 -26 -48 -31 -48 -5 0 -16 -11
-25 -25 -16 -24 -16 -27 1 -45 10 -11 30 -20 44 -19 23 1 23 2 -8 11 -24 6
-31 12 -23 20 6 6 8 17 5 24 -3 9 7 19 28 28 30 12 34 12 48 -5 9 -10 34 -22
56 -27 l39 -8 -36 -17 c-20 -9 -45 -17 -56 -17 -11 0 -22 -6 -25 -14 -3 -8
-16 -16 -28 -18 -28 -4 -36 -25 -12 -30 28 -5 122 8 191 26 70 19 133 23 203
11 31 -5 49 -4 53 4 4 6 1 11 -8 11 -19 0 -21 11 -4 28 15 15 80 16 96 0 9 -9
13 -7 18 7 5 13 -2 26 -24 47 -41 36 -63 35 -104 -2 -30 -28 -68 -40 -68 -22
0 4 18 24 40 45 46 43 44 57 -6 57 -19 0 -34 3 -34 7 0 16 46 72 78 93 19 13
48 40 66 59 17 20 48 52 69 73 61 62 44 65 -54 10z"/>
<path d="M5373 3697 c-36 -38 -63 -57 -94 -65 -55 -16 -119 -45 -119 -54 0 -4
19 -11 43 -17 l42 -11 -45 6 c-24 3 -49 9 -56 15 -8 7 -14 7 -19 -1 -3 -5 -14
-10 -24 -10 -10 0 -24 -11 -31 -25 -7 -14 -24 -32 -37 -40 -12 -9 -23 -22 -23
-30 0 -7 -9 -20 -21 -28 -26 -19 -12 -28 44 -29 34 0 38 -2 20 -9 -13 -5 -46
-4 -75 1 -43 8 -64 6 -111 -8 -59 -19 -65 -32 -15 -32 38 0 117 -20 124 -32 3
-5 -2 -21 -12 -36 -14 -20 -19 -47 -19 -105 0 -76 -1 -80 -32 -108 -57 -50
-105 -51 -124 -2 -11 30 3 78 27 87 18 7 18 -2 -1 -20 -8 -9 -15 -28 -15 -44
0 -23 5 -30 29 -35 24 -5 69 6 71 18 1 1 7 46 14 100 l12 97 -24 0 c-14 0 -44
-11 -68 -25 -23 -14 -66 -30 -96 -36 -29 -6 -61 -16 -70 -21 -21 -10 -24 -48
-6 -66 9 -9 2 -12 -33 -12 -25 0 -67 -6 -93 -14 -46 -14 -47 -14 -31 4 9 10
29 21 43 25 15 3 47 23 72 44 60 51 90 65 200 96 52 15 102 31 112 36 27 15
12 29 -31 29 -21 0 -62 4 -90 10 -47 9 -57 7 -104 -16 -75 -38 -122 -78 -152
-129 -28 -49 -39 -53 -66 -30 -20 19 -73 10 -65 -10 2 -7 0 -17 -5 -22 -6 -6
-5 -22 2 -42 18 -50 -2 -54 -82 -14 -80 39 -83 38 -126 -35 l-26 -45 28 -21
c16 -11 49 -33 74 -48 34 -20 40 -28 25 -28 -33 0 -87 22 -114 47 -13 12 -27
19 -31 15 -12 -12 -49 -143 -49 -172 0 -33 28 -60 62 -60 23 0 89 18 131 35
13 6 17 2 17 -15 0 -27 14 -23 82 23 28 19 46 38 43 45 -3 8 0 12 7 9 7 -2 29
6 48 18 45 28 69 37 81 29 5 -3 3 -12 -5 -19 -8 -8 -12 -24 -9 -35 7 -26 -13
-26 -28 1 -11 21 -12 21 -47 -14 -21 -19 -62 -52 -92 -72 -69 -48 -73 -55 -51
-80 11 -12 21 -43 24 -75 7 -62 58 -174 110 -239 38 -48 121 -107 219 -157 37
-19 70 -34 73 -34 3 0 -2 12 -12 26 -10 16 -49 42 -98 64 -62 29 -90 49 -126
91 -68 80 -73 93 -59 144 12 43 7 71 -11 60 -5 -4 -9 1 -9 9 0 9 9 16 20 16
13 0 20 -7 20 -19 0 -12 9 -21 25 -25 30 -8 34 -36 4 -36 -18 0 -20 -4 -14
-32 8 -37 24 -70 25 -50 0 15 27 16 32 0 3 -9 6 -9 12 0 4 7 2 12 -3 12 -6 0
-11 5 -11 10 0 16 19 12 41 -9 16 -15 17 -20 6 -29 -7 -6 -14 -25 -15 -43 -2
-24 1 -30 13 -25 8 3 15 1 15 -5 0 -17 52 -32 62 -17 6 10 10 10 18 -2 8 -12
14 -10 38 13 21 20 32 25 37 17 4 -7 -3 -22 -19 -36 -34 -33 -33 -65 3 -92 17
-12 32 -35 36 -54 11 -51 56 -182 66 -192 15 -16 10 63 -7 120 -21 66 -15 84
30 84 45 0 77 -33 119 -122 17 -38 35 -68 38 -68 4 0 9 12 12 26 5 30 -24 89
-89 181 -24 34 -44 69 -44 77 0 26 38 19 86 -16 47 -34 70 -32 38 3 -25 28
-136 83 -243 121 -47 16 -97 37 -111 45 -25 14 -25 14 10 9 19 -3 64 -12 100
-21 114 -26 233 -30 284 -11 61 24 96 66 96 118 0 51 -24 102 -55 116 -14 7
-25 16 -25 21 0 18 70 70 110 82 47 14 65 4 76 -44 9 -41 116 -154 169 -178
27 -13 64 -19 116 -19 70 0 77 -2 104 -30 15 -16 32 -27 37 -24 16 10 7 52
-18 79 -14 15 -24 28 -22 30 2 1 21 7 43 13 l40 10 -57 1 c-54 1 -75 12 -45
24 9 4 9 8 -2 15 -9 7 -10 12 -2 16 19 12 12 26 -13 26 -18 0 -27 -9 -41 -45
-18 -50 -38 -65 -83 -65 -43 0 -59 23 -44 64 17 47 15 66 -8 66 -11 0 -20 7
-20 15 0 8 6 12 14 9 8 -3 17 -1 20 4 3 6 -1 12 -9 16 -8 3 -15 18 -16 33 l-1
28 -8 -25 -8 -25 -1 26 c-2 44 -55 54 -73 14 -9 -20 -8 -28 5 -42 23 -26 26
-76 5 -81 -33 -7 -58 33 -58 92 0 30 5 58 10 61 15 9 12 42 -5 49 -8 3 -15 15
-15 26 0 14 -4 19 -12 14 -7 -5 -9 -1 -6 13 4 16 2 19 -13 16 -10 -3 -17 -8
-15 -12 2 -3 -10 -7 -27 -8 -22 -2 -39 5 -59 24 -25 24 -29 25 -45 11 -10 -9
-28 -19 -41 -22 -22 -7 -37 -27 -60 -81 l-12 -30 5 40 c2 22 7 54 10 70 4 19
-9 1 -35 -47 -55 -105 -74 -106 -46 -3 19 74 29 88 80 114 l46 22 0 67 c0 37
3 96 6 132 6 79 -4 100 -38 78 -24 -16 -30 -26 -69 -113 -19 -43 -23 -47 -27
-26 -6 34 24 103 58 136 29 28 73 36 91 18 12 -12 20 -281 8 -289 -5 -3 -9
-11 -9 -17 0 -7 7 -4 14 6 12 16 18 17 36 7 12 -7 36 -10 52 -8 24 4 31 0 39
-19 10 -27 26 -29 50 -7 17 15 17 19 4 45 -10 18 -11 30 -5 34 6 4 8 15 5 26
-5 14 -2 17 8 13 10 -3 22 12 40 50 29 61 70 97 89 78 9 -9 6 -24 -12 -59 -22
-45 -23 -48 -7 -76 23 -38 21 -55 -5 -77 l-22 -17 27 -32 c26 -32 37 -81 17
-81 -5 0 -7 6 -4 14 6 16 -29 31 -46 21 -13 -8 -13 -35 0 -35 6 0 10 5 10 10
0 6 5 10 10 10 6 0 10 -6 10 -12 0 -7 13 -20 29 -30 41 -23 46 -4 19 72 -21
58 -19 85 4 62 19 -19 32 -14 57 25 18 28 22 45 18 80 -4 40 -3 43 15 37 19
-6 19 -5 3 25 -8 17 -19 31 -23 31 -22 0 -41 64 -52 170 -11 118 -19 140 -50
140 -27 0 -79 -47 -98 -89 -15 -31 -24 -38 -72 -49 -30 -7 -60 -19 -66 -27 -6
-9 -15 -10 -24 -5 -10 6 8 19 63 44 65 29 81 42 105 80 15 24 37 49 50 55 55
26 102 3 102 -50 0 -35 27 -40 35 -6 11 53 10 61 -10 65 -30 6 -45 22 -45 48
0 28 23 37 110 39 36 1 74 5 85 10 26 10 15 0 -58 -55 -55 -41 -59 -46 -54
-77 3 -18 2 -33 -4 -33 -5 0 -9 -8 -9 -19 0 -10 -9 -29 -19 -43 -22 -28 -25
-69 -4 -61 7 3 13 12 13 19 0 12 5 11 28 -3 22 -14 25 -15 15 -2 -7 9 -12 35
-11 58 l1 41 22 -20 c19 -18 21 -31 22 -121 2 -112 12 -138 45 -115 49 34 72
111 47 157 -5 11 -8 30 -6 42 3 20 5 18 16 -10 7 -18 20 -33 28 -33 24 0 73
56 73 84 0 13 4 28 10 31 5 3 7 19 3 35 -6 33 11 42 20 10 3 -11 12 -20 21
-20 13 0 16 11 16 55 0 77 0 78 -293 135 -40 8 -65 20 -82 38 -31 33 -40 24
-40 -41 l0 -52 -37 -3 c-44 -4 -78 12 -78 36 0 10 16 42 35 71 20 30 34 55 32
57 -2 3 -27 -20 -54 -49z"/>
<path d="M9475 3565 c-27 -13 -61 -33 -75 -44 -21 -17 -23 -22 -11 -33 8 -7
11 -8 8 -2 -4 6 1 18 11 26 25 22 82 50 82 40 0 -5 15 -6 33 -4 17 3 29 1 26
-2 -4 -4 -25 -7 -48 -8 -23 0 -44 -4 -47 -9 -3 -5 0 -9 7 -9 8 0 8 -4 -1 -15
-7 -8 -17 -15 -22 -15 -6 0 -5 7 2 15 8 9 9 15 2 15 -12 0 -25 -18 -29 -39 -1
-8 -9 -18 -17 -23 -9 -5 -16 -14 -16 -19 0 -6 5 -7 11 -3 7 4 10 1 7 -7 -3 -8
-11 -13 -17 -11 -7 1 -10 -2 -6 -8 3 -6 10 -8 15 -5 4 3 6 -4 3 -16 -6 -20 -7
-20 -16 -3 -9 16 -11 16 -22 0 -12 -15 -13 -15 -18 3 -2 10 0 25 5 32 8 11 8
10 4 -4 -3 -11 -2 -16 5 -12 5 4 7 16 3 27 -4 15 -3 18 6 13 9 -6 11 -4 5 5
-4 7 -2 16 5 20 7 4 8 10 3 13 -10 6 -69 -103 -75 -138 -1 -11 -6 -22 -9 -25
-3 -3 -26 -48 -52 -100 -51 -104 -59 -115 -101 -148 -16 -12 -24 -22 -18 -22
27 0 115 108 126 153 4 16 11 25 17 21 6 -3 9 0 8 7 -5 23 12 63 34 82 11 9
15 17 9 17 -8 0 -8 9 0 31 l11 32 12 -23 13 -23 7 23 c6 17 9 20 16 9 12 -19
11 -32 -1 -24 -6 3 -7 -1 -4 -9 3 -8 -1 -30 -10 -47 -18 -37 -19 -39 -8 -39 5
0 15 19 22 43 21 72 77 173 112 202 30 25 37 27 93 21 80 -7 125 -21 168 -50
19 -13 38 -21 42 -18 3 4 3 -2 -1 -12 -4 -11 -3 -17 2 -14 16 10 15 -74 -1
-130 -9 -29 -13 -63 -10 -75 4 -15 3 -18 -3 -9 -7 11 -11 8 -15 -10 -17 -61 0
-177 23 -163 6 3 7 -1 4 -9 -3 -9 -1 -16 4 -16 6 0 13 8 16 18 3 10 4 8 3 -7
-2 -17 7 -28 33 -42 63 -34 73 -22 21 26 -27 25 -52 57 -55 71 -4 16 7 65 34
141 38 110 47 168 32 204 -14 34 -76 100 -89 95 -7 -3 -12 0 -10 6 1 7 -23 22
-53 35 -76 31 -176 31 -245 -2z"/>
<path d="M2620 3534 c-66 -17 -126 -57 -157 -103 -48 -71 -15 -77 67 -12 31
24 38 27 23 10 -13 -14 -23 -28 -23 -32 0 -4 24 -7 53 -7 48 0 55 3 65 25 7
14 12 37 12 50 0 26 17 42 30 29 15 -15 -5 -182 -24 -202 -23 -26 -20 -36 15
-49 27 -10 30 -16 25 -38 -5 -20 -3 -25 12 -25 10 0 23 5 30 12 9 9 12 6 12
-16 0 -27 2 -28 31 -22 17 3 36 6 41 6 13 0 2 47 -15 64 -8 9 -21 11 -42 5
-25 -8 -33 -5 -48 13 -12 16 -16 32 -11 53 10 54 19 189 14 220 -6 37 -30 41
-110 19z"/>
<path d="M6526 3308 c-10 -39 -7 -66 15 -129 20 -58 21 -81 4 -124 l-8 -20 23
20 c53 46 87 174 60 226 -10 18 -59 49 -78 49 -5 0 -12 -10 -16 -22z"/>
<path d="M2555 3170 c-44 -17 -113 -42 -152 -56 -64 -23 -72 -28 -63 -44 6
-10 10 -28 10 -39 0 -12 2 -21 4 -21 2 0 30 12 62 26 33 15 104 41 159 58 92
29 100 34 103 59 2 17 -1 27 -10 27 -9 0 -9 3 2 10 32 21 -36 9 -115 -20z"/>
<path d="M7350 3135 c0 -9 3 -14 8 -12 4 3 7 -60 7 -139 0 -152 -14 -204 -19
-69 -2 44 -4 105 -6 135 l-2 55 -14 -79 c-15 -80 -26 -100 -56 -102 -22 -2
-23 10 -3 40 16 24 11 61 -7 50 -6 -4 -6 -9 2 -14 10 -6 9 -13 -2 -29 -13 -18
-17 -19 -21 -7 -3 8 -1 16 6 19 16 5 -18 57 -38 57 -27 0 -27 -22 2 -58 16
-20 32 -45 36 -55 4 -11 12 -15 19 -11 7 5 9 2 6 -7 -6 -15 16 -54 30 -54 4 0
6 -3 5 -7 -4 -10 36 -88 55 -110 8 -10 13 -18 11 -19 -2 0 -12 -2 -22 -4 -9
-2 -15 1 -12 5 12 19 -16 19 -35 0 -24 -24 -28 -25 -52 -3 -18 16 -18 16 -12
0 3 -9 10 -17 16 -17 5 0 6 -5 2 -12 -5 -7 -2 -9 8 -6 11 5 14 0 10 -18 -3
-17 0 -24 11 -24 25 0 106 50 112 69 3 10 15 27 27 37 20 19 21 19 13 -6 -5
-17 -4 -22 3 -15 16 15 32 231 22 291 -8 51 -37 130 -44 123 -3 -2 2 -31 10
-64 15 -65 18 -186 5 -250 -6 -30 -9 -3 -12 100 -3 114 -8 147 -24 179 -21 42
-45 59 -45 31z"/>
<path d="M2218 3034 c-3 -3 -24 -7 -46 -9 -23 -2 -72 -18 -109 -36 l-68 -32
41 -18 c22 -9 49 -28 60 -43 l19 -26 78 46 c75 45 77 47 77 85 0 34 -3 39 -23
39 -13 0 -26 -3 -29 -6z"/>
<path d="M6730 2929 c0 -92 4 -100 73 -142 32 -20 36 -53 7 -62 -27 -9 -58 2
-102 37 l-37 29 5 -37 c2 -21 5 -38 7 -38 1 -1 21 -11 45 -23 40 -21 45 -21
85 -7 23 8 94 22 157 31 126 17 123 17 163 7 28 -7 33 1 18 25 -6 8 -18 12
-31 8 -26 -7 -54 15 -39 30 6 6 5 14 -5 22 -8 7 -13 18 -10 25 3 7 -2 19 -11
26 -14 12 -18 11 -26 -1 -6 -9 -4 -18 6 -25 9 -6 13 -18 10 -25 -10 -25 -112
-9 -176 29 -53 30 -101 78 -105 105 -1 7 -9 26 -18 42 -16 30 -16 29 -16 -56z"/>
<path d="M9069 2567 c-27 -20 -59 -80 -59 -109 0 -16 -5 -28 -11 -28 -5 0 -7
4 -4 10 3 6 -1 7 -9 4 -9 -3 -14 -10 -11 -14 7 -11 -20 -20 -56 -20 -22 0 -29
5 -29 20 0 11 -4 20 -10 20 -5 0 -7 -6 -4 -14 3 -9 -11 -33 -34 -58 -22 -24
-46 -62 -53 -86 -14 -49 -46 -74 -63 -50 -6 8 -17 13 -23 11 -8 -3 -13 4 -13
16 0 12 -4 21 -10 21 -5 0 -10 -11 -10 -25 0 -28 -15 -34 -24 -9 -9 24 -30 11
-36 -22 -4 -20 -12 -30 -28 -32 -12 -2 -22 -8 -22 -13 0 -6 -4 -8 -9 -4 -5 3
-12 2 -15 -3 -2 -4 -20 -9 -38 -10 -40 -3 -75 25 -83 66 -3 15 -10 39 -14 54
-5 16 -6 30 -2 33 12 7 21 -6 21 -28 0 -20 0 -20 19 -1 10 10 16 23 14 27 -3
4 5 23 16 42 11 19 16 35 12 35 -14 0 -131 -89 -131 -100 0 -5 -7 -10 -15 -10
-8 0 -15 -4 -15 -10 0 -5 -11 -20 -25 -34 -14 -14 -25 -32 -25 -41 0 -8 -6
-15 -13 -15 -7 0 -34 -28 -60 -62 -26 -35 -51 -68 -57 -75 -6 -8 -5 -13 3 -16
9 -3 9 -8 -2 -21 -12 -14 -12 -18 4 -30 10 -7 16 -19 13 -27 -3 -10 -9 -8 -23
9 -25 28 -41 28 -56 0 -7 -13 -15 -25 -20 -28 -4 -3 -11 -18 -15 -34 -6 -24
-4 -28 8 -23 9 3 25 -4 37 -17 21 -22 32 -24 101 -18 15 2 20 9 20 32 0 19 -5
30 -14 30 -16 0 -31 18 -23 27 3 2 21 -1 40 -8 25 -9 33 -17 30 -30 -6 -23 14
-59 34 -59 9 0 26 11 39 25 22 24 64 34 64 16 0 -5 -12 -19 -27 -30 -38 -31
-20 -38 28 -12 26 15 48 21 65 17 33 -9 30 8 -7 37 -35 27 -32 47 6 47 13 0
28 6 32 13 4 8 20 17 34 20 21 5 28 3 32 -12 4 -17 1 -19 -29 -14 -42 7 -45
-10 -4 -27 16 -7 29 -15 28 -19 -1 -3 2 -13 5 -21 3 -8 7 -24 9 -34 5 -30 26
-30 30 0 5 44 27 42 24 -3 -2 -37 -3 -38 -35 -35 -23 3 -32 0 -29 -9 5 -15 50
-20 59 -7 9 14 88 -2 83 -17 -6 -15 12 -29 20 -16 3 5 14 7 25 4 13 -3 20 2
25 19 5 14 9 18 13 11 2 -7 11 -13 19 -13 8 0 14 -7 14 -15 0 -8 4 -15 10 -15
13 0 50 41 50 57 0 20 -17 16 -34 -9 l-15 -21 -20 24 c-11 13 -20 28 -21 33 0
5 -8 2 -17 -6 -22 -19 -72 -33 -54 -15 16 16 14 54 -5 61 -29 11 -37 6 -20
-13 12 -13 14 -21 6 -26 -5 -3 -8 -11 -5 -16 4 -5 -4 -7 -17 -5 -13 3 -25 5
-27 5 -3 1 -1 5 5 11 18 18 4 80 -22 97 -19 12 -22 18 -13 29 8 10 15 11 24 4
10 -8 18 -4 33 15 11 14 27 25 35 25 9 0 19 5 22 10 4 6 16 8 27 5 12 -4 27 0
39 11 18 17 19 16 19 -14 0 -33 6 -38 27 -24 10 6 10 16 1 45 -9 30 -9 40 4
54 9 10 18 27 21 38 2 11 5 1 6 -22 0 -23 -3 -45 -9 -48 -5 -3 -10 -13 -10
-21 0 -11 6 -13 23 -8 12 4 25 11 28 17 4 5 16 0 28 -12 11 -11 28 -21 36 -21
8 0 15 -5 15 -11 0 -21 33 -39 48 -26 11 9 6 17 -25 44 -21 18 -45 33 -54 33
-23 0 -61 45 -57 67 2 11 24 26 58 40 l55 22 17 -22 17 -22 17 23 c13 18 22
22 44 17 23 -5 32 -2 42 14 7 12 23 21 35 21 12 0 24 4 28 9 3 5 30 19 59 30
56 21 160 80 153 87 -2 3 -40 -14 -84 -36 -44 -22 -97 -44 -119 -47 -21 -3
-41 -9 -44 -12 -10 -13 -95 -29 -110 -21 -9 5 -23 3 -35 -6 -33 -24 -54 -16
-24 9 33 28 42 57 34 107 -5 28 -13 41 -28 46 -20 6 -20 7 -2 20 16 12 20 11
36 -16 22 -35 48 -50 87 -50 34 0 82 34 82 57 0 14 -2 14 -18 0 -22 -20 -50
-24 -35 -4 6 6 10 20 10 29 0 13 -4 15 -19 7 -10 -6 -28 -7 -39 -4 -25 8 -53
50 -43 66 4 8 3 9 -4 5 -7 -4 -12 -1 -12 9 0 29 21 56 53 70 23 10 26 14 12
14 -11 0 -27 -5 -36 -12z"/>
<path d="M7204 2536 c-3 -9 -12 -12 -21 -9 -10 4 -14 2 -10 -4 4 -6 1 -11 -6
-10 -40 1 -59 -7 -93 -38 -33 -32 -65 -45 -189 -79 -5 -1 25 -6 68 -9 89 -8
122 2 180 53 48 41 102 110 88 110 -7 0 -14 -6 -17 -14z"/>
<path d="M9649 2255 c-21 -44 -24 -64 -24 -175 0 -110 4 -135 28 -205 16 -47
39 -93 57 -112 16 -17 40 -55 53 -85 28 -63 80 -144 158 -250 31 -42 59 -92
63 -111 3 -19 17 -62 31 -97 18 -47 25 -84 26 -149 2 -102 -12 -160 -49 -201
-75 -81 -87 -91 -104 -85 -8 3 -22 -3 -32 -14 -10 -11 -24 -17 -31 -15 -7 3
-25 -2 -40 -12 -23 -15 -28 -15 -36 -3 -7 12 -13 11 -40 -4 -26 -14 -34 -15
-40 -5 -7 10 -14 10 -38 -4 -28 -16 -30 -15 -43 3 -12 18 -17 19 -47 8 -29
-10 -35 -10 -43 5 -8 15 -18 16 -59 11 -46 -6 -48 -6 -55 19 -7 30 -7 30 -67
12 -45 -13 -47 -13 -47 6 0 17 -5 19 -32 14 -111 -21 -111 -21 -103 3 6 19 3
21 -29 21 -20 0 -36 -4 -36 -10 0 -5 -4 -10 -10 -10 -5 0 -10 12 -10 26 0 28
-2 28 -84 8 -26 -6 -27 -5 -17 14 6 11 11 24 11 28 0 7 -44 1 -89 -12 -24 -7
-24 -7 -8 17 9 13 17 27 17 30 0 4 -28 5 -62 2 -52 -5 -60 -4 -56 9 12 29 -7
42 -42 29 -52 -18 -63 -15 -56 15 7 27 7 27 -36 21 -24 -4 -54 -10 -68 -13
-24 -6 -24 -5 5 19 26 22 28 26 13 32 -9 4 -41 2 -69 -4 -55 -12 -70 -8 -51
11 35 35 3 39 -103 12 -27 -7 -28 -6 -22 25 7 36 6 36 -56 17 -52 -16 -59 -13
-51 20 6 23 4 24 -48 24 -42 0 -57 5 -71 20 -14 17 -25 19 -52 14 -65 -12 -70
-11 -70 16 -1 24 -3 25 -56 22 -52 -3 -56 -1 -55 20 1 22 -1 23 -77 20 -74 -4
-79 -3 -99 23 -19 24 -26 26 -82 25 -83 -3 -84 -3 -91 19 -7 24 -41 37 -59 22
-10 -9 -21 -8 -42 3 -16 8 -48 22 -72 32 -23 9 -47 23 -54 31 -6 8 -33 25 -60
39 -58 29 -120 31 -171 5 -48 -24 -133 -37 -151 -22 -7 6 -58 13 -114 15 -55
2 -105 6 -110 10 -6 3 -34 1 -62 -5 -42 -9 -54 -9 -61 2 -6 11 -17 11 -59 0
-38 -10 -55 -10 -63 -2 -15 15 -43 14 -78 -5 -24 -12 -34 -13 -45 -3 -8 7 -26
9 -46 4 -18 -4 -52 -6 -75 -6 -25 1 -58 -7 -80 -19 -36 -19 -39 -19 -50 -3
-12 16 -15 16 -48 0 -19 -9 -41 -14 -50 -11 -26 11 -60 -4 -84 -37 -20 -27
-21 -30 -5 -25 11 3 98 17 194 32 145 21 222 27 445 31 340 5 329 6 389 -12
28 -9 101 -22 163 -30 62 -9 125 -20 140 -27 15 -6 31 -11 35 -10 7 2 115 -25
138 -34 8 -4 29 -8 45 -10 38 -4 266 -61 273 -69 10 -9 -5 -16 -41 -18 -19 -1
-33 -5 -30 -9 2 -5 -2 -8 -10 -8 -10 0 -13 8 -9 26 5 27 5 27 -46 22 -37 -4
-52 -1 -56 9 -3 7 -21 13 -43 13 -28 0 -34 3 -23 10 10 7 11 10 2 10 -7 0 -15
-7 -19 -16 -3 -8 -12 -13 -19 -10 -8 3 -14 1 -14 -4 0 -6 -5 -10 -10 -10 -6 0
-8 11 -4 25 6 23 4 25 -29 25 -20 0 -47 -4 -61 -10 -24 -9 -26 -7 -26 15 0 29
-8 30 -100 10 -62 -13 -65 -13 -79 7 -13 19 -21 20 -87 14 -64 -6 -74 -5 -74
9 0 13 -4 14 -22 4 -22 -12 -22 -11 -5 8 41 47 8 56 -67 18 -59 -30 -59 -30
-46 -6 22 41 4 41 -73 1 -32 -16 -60 -30 -63 -30 -2 0 -2 11 2 25 8 32 -7 32
-67 1 l-46 -25 5 26 c5 24 3 25 -29 18 -19 -4 -48 -13 -66 -20 -27 -11 -32
-11 -37 1 -7 18 -29 18 -64 0 -55 -28 -72 -29 -72 -7 0 26 -22 27 -76 2 -40
-18 -40 -18 -40 3 1 27 -21 26 -99 -7 -56 -24 -61 -25 -78 -9 -16 14 -23 14
-65 2 -26 -8 -79 -15 -117 -15 -54 0 -83 -6 -123 -25 -61 -29 -67 -42 -14 -35
180 24 718 38 1016 25 l130 -5 -51 -28 c-61 -33 -78 -35 -63 -8 16 31 -9 31
-59 -1 -50 -31 -70 -36 -50 -12 23 28 -9 35 -65 13 -30 -11 -52 -15 -54 -9 -6
16 -50 11 -92 -10 -49 -25 -54 -25 -47 0 8 31 -6 32 -59 5 -57 -29 -58 -29
-51 -11 12 32 -15 34 -79 5 -66 -30 -94 -36 -94 -19 0 15 -46 12 -88 -6 -20
-9 -62 -16 -92 -16 -55 1 -170 -40 -170 -61 0 -4 8 -6 18 -3 34 11 400 45 547
52 83 4 285 7 450 8 262 1 320 -2 460 -22 148 -21 254 -39 365 -63 25 -5 57
-11 72 -14 14 -2 59 -10 100 -19 40 -8 106 -20 146 -26 67 -11 89 -29 39 -31
-20 -1 -20 -2 3 -8 22 -6 19 -8 -20 -14 -32 -4 -47 -2 -52 7 -6 11 -22 11 -84
1 -75 -12 -77 -11 -101 13 -23 23 -29 24 -99 19 -61 -6 -74 -4 -74 8 0 8 -9
19 -19 25 -25 13 -61 13 -61 0 0 -5 -4 -10 -10 -10 -5 0 -10 7 -10 15 0 18
-13 19 -56 3 -30 -11 -35 -9 -53 13 -19 24 -20 24 -49 7 -27 -16 -31 -16 -36
-2 -4 12 -14 14 -37 9 -23 -5 -34 -3 -44 11 -11 16 -17 16 -39 6 -32 -14 -92
-16 -101 -3 -6 10 -38 8 -87 -4 -17 -4 -28 -3 -28 3 0 15 -29 19 -68 11 -17
-4 -34 -4 -37 1 -2 4 -28 3 -56 -1 -29 -5 -59 -4 -69 1 -15 8 -63 1 -102 -15
-11 -4 -18 -3 -18 4 0 16 -44 14 -86 -4 -28 -11 -39 -12 -55 -2 -15 9 -28 9
-65 -5 -32 -11 -54 -14 -70 -8 -16 6 -34 5 -57 -5 -19 -8 -44 -11 -56 -8 -13
3 -43 -4 -72 -18 -43 -19 -52 -21 -59 -9 -8 13 -14 13 -42 1 -18 -7 -53 -17
-78 -21 -59 -10 -78 -18 -91 -42 -15 -28 -6 -32 43 -19 166 44 468 87 628 90
58 1 152 8 209 16 92 13 111 13 175 -1 39 -8 122 -18 184 -21 61 -3 112 -10
112 -15 0 -5 3 -7 8 -5 14 9 512 -77 542 -93 10 -6 2 -11 -29 -20 -38 -10 -43
-14 -38 -36 5 -29 -8 -33 -16 -4 -9 35 -30 24 -23 -12 5 -30 5 -32 -9 -14 -8
10 -16 23 -18 29 -2 6 -9 7 -16 3 -9 -6 -8 -14 5 -33 13 -21 14 -27 3 -34 -21
-13 -25 -11 -43 16 -9 14 -21 23 -27 19 -7 -4 -6 -10 0 -18 6 -7 8 -16 4 -19
-3 -4 0 -7 7 -7 7 0 10 -3 7 -7 -4 -3 -15 2 -26 11 -22 20 -40 4 -21 -19 14
-17 -1 -20 -17 -4 -6 6 -16 8 -22 5 -11 -7 -3 -37 13 -48 6 -4 7 -10 3 -14 -9
-9 -38 16 -31 27 3 5 -2 6 -10 3 -20 -8 -20 -28 -1 -44 8 -7 15 -18 15 -25 0
-8 6 -16 13 -18 8 -4 7 -6 -3 -6 -9 -1 -21 4 -27 10 -15 15 -22 -1 -16 -33 3
-15 10 -25 15 -21 6 3 9 0 6 -7 -7 -22 -25 -22 -31 0 -6 23 -27 27 -27 5 0
-11 -7 -14 -24 -9 -33 8 -43 -14 -12 -26 36 -13 33 -21 -5 -13 -25 5 -31 3
-27 -8 2 -8 14 -15 26 -17 14 -2 22 -11 22 -24 0 -18 -4 -19 -41 -13 -33 6
-40 4 -37 -6 3 -8 17 -15 31 -17 15 -2 27 -8 27 -14 0 -6 -10 -8 -25 -4 -18 5
-25 2 -25 -9 0 -8 7 -15 16 -15 8 0 12 -5 9 -11 -4 -6 -12 -8 -19 -6 -7 3 -12
-4 -12 -18 0 -13 3 -22 7 -19 4 2 10 0 14 -5 3 -6 13 -7 22 -4 11 5 14 3 9 -6
-5 -8 -18 -10 -32 -7 -17 5 -24 2 -24 -8 0 -8 16 -18 37 -23 20 -4 38 -14 41
-21 2 -7 -2 -10 -12 -6 -24 9 -20 -19 4 -34 12 -7 26 -10 32 -6 6 4 9 1 6 -7
-3 -8 -14 -14 -26 -14 -27 0 -30 -19 -3 -23 32 -5 46 -29 30 -49 -13 -16 -12
-17 3 -5 13 10 22 11 38 2 18 -10 24 -8 36 7 7 10 14 26 14 35 0 9 5 20 10 23
6 3 10 11 10 17 0 7 -6 6 -15 -2 -8 -7 -15 -8 -15 -2 0 14 25 33 33 25 4 -3 7
10 7 30 0 28 -5 37 -22 43 -20 6 -21 7 -4 20 12 8 15 17 10 26 -5 7 -7 21 -6
31 2 9 -4 20 -12 23 -9 3 -16 13 -16 21 0 13 3 13 15 3 12 -10 15 -9 15 8 0
11 -6 23 -12 25 -8 3 -6 6 5 6 9 1 17 6 17 12 0 5 -4 7 -10 4 -5 -3 -10 -2
-10 3 0 5 9 12 20 15 13 3 18 1 13 -6 -4 -7 8 3 26 21 20 19 31 38 27 47 -3 8
-1 15 4 15 6 0 10 -8 10 -17 1 -11 10 -1 22 22 12 22 21 47 19 57 -3 22 19 34
30 17 7 -11 9 -9 9 7 0 12 11 26 25 34 14 8 21 16 16 20 -6 3 -14 16 -19 29
-7 19 -4 29 10 43 22 22 29 23 22 3 -4 -8 -2 -15 4 -15 6 0 12 5 14 11 2 6 12
7 28 1 l24 -9 -22 -19 c-27 -22 -28 -31 -4 -38 12 -4 18 -17 18 -45 1 -38 0
-39 -38 -45 -39 -6 -44 -26 -7 -26 35 0 10 -20 -34 -27 l-42 -6 39 -11 38 -11
-31 -22 c-43 -32 -59 -29 -67 12 -3 19 -11 38 -17 42 -7 4 -8 0 -4 -11 17 -42
19 -66 7 -66 -10 0 -10 -3 0 -15 7 -8 17 -12 23 -8 5 3 26 8 46 10 19 2 36 5
36 6 0 1 19 39 43 85 23 46 42 94 42 106 0 34 7 36 58 19 59 -20 58 -19 40
-40 -16 -18 -50 -89 -63 -131 -4 -13 -21 -30 -38 -37 -31 -14 -31 -14 -7 -15
39 0 65 24 90 85 16 40 26 53 33 46 6 -6 26 -11 44 -11 37 0 43 -14 13 -32
-11 -7 -20 -20 -20 -30 0 -9 -5 -18 -11 -20 -16 -5 1 -38 21 -38 9 0 24 8 32
18 16 17 48 101 48 125 0 7 4 18 9 26 7 11 16 10 47 -9 22 -13 41 -25 43 -27
7 -5 -53 -53 -69 -54 -9 0 -6 -4 8 -11 32 -16 27 -30 -18 -61 -18 -13 -20 -17
-8 -17 30 0 66 19 72 37 5 15 15 17 66 15 65 -4 73 -13 35 -38 -14 -9 -25 -20
-25 -25 0 -14 56 -10 69 4 12 16 37 112 45 177 l5 45 -19 -40 c-11 -22 -20
-49 -20 -60 -1 -18 -2 -18 -10 3 -8 18 -17 22 -50 22 -48 0 -57 14 -40 65 11
34 15 36 44 31 17 -3 62 -8 99 -12 91 -9 120 -36 75 -69 -19 -12 -20 -17 -9
-24 8 -5 11 -16 8 -24 -3 -8 0 -20 6 -26 16 -16 1 -25 -38 -24 -42 1 -44 -4
-7 -19 27 -12 27 -12 -18 -17 -44 -6 -44 -6 -17 -18 37 -17 34 -29 -10 -40
l-38 -10 38 -8 c23 -4 42 -3 50 4 10 7 24 7 50 -1 26 -8 33 -14 25 -20 -9 -5
-4 -8 14 -8 32 0 53 19 70 65 12 35 13 35 55 29 40 -6 43 -5 54 22 6 16 13 24
15 18 7 -18 -25 -83 -46 -94 -11 -6 -20 -17 -20 -25 0 -8 -4 -15 -10 -15 -5 0
-7 -7 -3 -16 4 -10 16 -14 37 -12 33 3 31 0 74 148 6 20 14 25 40 25 18 0 37
7 42 15 7 12 28 9 138 -18 71 -18 137 -32 146 -32 10 0 16 -9 16 -25 0 -19 8
-28 36 -40 48 -20 51 -19 68 13 l14 27 143 -2 144 -2 3 -27 c3 -25 2 -26 -30
-20 -68 14 -72 13 -78 -19 -5 -27 -8 -29 -55 -32 -109 -5 -155 -14 -166 -34
-14 -28 -3 -39 38 -39 l36 0 -21 -23 c-29 -31 -28 -39 5 -35 20 2 29 10 33 28
4 18 14 26 32 28 23 3 27 -1 30 -29 l3 -31 46 64 c43 60 48 64 80 60 26 -3 39
2 53 17 23 25 54 27 63 5 11 -28 -10 -48 -53 -48 -35 -1 -39 -4 -39 -26 0 -34
40 -38 94 -11 49 25 67 26 79 5 8 -14 14 -9 35 27 26 45 51 145 26 104 -17
-27 -29 -35 -59 -35 -40 0 -52 18 -35 51 14 27 15 27 122 27 85 0 119 4 158
20 61 24 165 84 202 117 l28 24 27 -26 c35 -34 45 -26 97 80 98 199 107 409
25 596 -13 29 -24 60 -24 67 0 8 -4 14 -10 14 -5 0 -10 11 -10 24 0 18 -6 25
-22 28 -20 3 -23 10 -26 52 -3 44 -4 47 -17 30 -13 -17 -14 -16 -15 19 0 38
-8 45 -28 25 -12 -12 -17 -4 -24 37 -3 15 -10 19 -27 17 -19 -3 -22 0 -17 16
9 26 -3 52 -20 45 -9 -3 -14 2 -14 15 0 30 -11 52 -25 52 -8 0 -25 24 -38 53
-14 29 -37 65 -51 80 -14 15 -26 32 -26 38 0 5 -4 9 -10 9 -5 0 -10 6 -10 13
0 8 -9 24 -20 37 -12 14 -18 31 -14 42 3 11 1 24 -4 31 -6 7 -15 46 -21 88 -7
42 -16 89 -20 105 l-9 29 -23 -50z m316 -1529 c17 -13 16 -15 -19 -50 -20 -21
-42 -35 -49 -33 -7 2 -25 -7 -41 -22 -16 -14 -26 -20 -22 -13 10 18 -2 15 -41
-9 -29 -18 -37 -19 -44 -8 -7 12 -14 11 -40 -4 -25 -14 -34 -15 -40 -6 -5 9
-13 8 -33 -4 -32 -22 -46 -21 -45 1 0 18 84 65 229 129 82 36 116 40 145 19z"/>
<path d="M747 2240 c-63 -19 -74 -60 -32 -122 39 -58 178 -150 288 -192 26
-10 52 -26 57 -36 6 -10 10 -72 10 -138 0 -82 6 -149 21 -218 22 -104 29 -258
13 -273 -5 -6 -32 -4 -69 5 -33 8 -134 18 -225 22 -91 4 -171 11 -177 15 -19
12 -16 31 17 99 74 157 35 242 -130 284 -101 26 -290 10 -290 -25 0 -18 81
-40 186 -52 113 -11 164 -24 164 -41 0 -5 -13 -29 -30 -53 -72 -105 -98 -252
-55 -311 36 -48 80 -57 312 -63 116 -3 215 -10 220 -14 12 -13 -52 -64 -212
-171 -171 -115 -259 -194 -325 -292 -64 -97 -94 -192 -94 -299 0 -138 56 -216
179 -254 183 -57 367 -65 612 -26 254 40 431 49 726 36 141 -6 321 -18 399
-27 208 -23 288 -17 382 29 90 45 159 116 180 185 29 99 -16 236 -104 315 -70
63 -122 77 -294 77 -287 0 -626 -57 -968 -164 -27 -8 -48 -13 -48 -10 0 3 24
35 54 72 120 150 156 304 98 419 -34 65 -138 152 -165 137 -13 -8 6 15 61 77
95 105 123 162 156 318 37 173 36 275 -3 356 -64 134 -213 230 -456 295 -166
43 -383 62 -458 40z m245 -59 c65 -21 76 -29 136 -101 39 -46 66 -166 52 -225
-16 -60 -40 -206 -40 -239 0 -15 17 -62 38 -104 34 -69 37 -83 36 -152 -1 -41
-8 -92 -15 -112 -13 -35 -14 -30 -14 80 0 115 -1 118 -33 167 -56 86 -60 101
-51 200 4 50 11 133 14 185 l6 95 -43 80 c-39 70 -48 80 -74 82 -16 1 -55 11
-87 23 -72 25 -107 19 -107 -19 0 -34 16 -51 50 -52 23 0 23 -1 5 -9 -39 -17
-64 -10 -100 27 -40 41 -42 49 -19 82 16 22 21 23 98 18 45 -3 111 -15 148
-26z m407 -90 c10 -6 25 -28 35 -49 10 -22 29 -45 42 -50 12 -6 30 -25 39 -41
8 -17 29 -38 45 -46 37 -19 38 -37 4 -64 -27 -21 -44 -20 -44 3 0 7 -16 27
-35 45 -22 19 -35 41 -35 56 0 14 -19 46 -50 81 -46 52 -54 74 -29 74 6 0 18
-4 28 -9z m-40 -324 c13 -11 13 -24 -6 -149 -4 -29 2 -53 25 -103 17 -36 33
-65 35 -65 2 0 21 25 42 56 30 46 36 62 30 88 -3 17 -8 46 -12 64 -16 92 90
160 152 97 20 -19 25 -34 25 -77 0 -79 -33 -140 -123 -225 -90 -85 -130 -109
-161 -95 -26 12 -164 268 -171 320 -8 48 20 104 55 112 28 7 87 -6 109 -23z
m41 -753 c56 -51 70 -100 46 -168 -22 -62 -87 -161 -176 -270 -37 -45 -74 -95
-83 -113 -16 -30 -19 -31 -102 -38 -123 -11 -370 -2 -388 13 -35 29 13 88 191
240 70 59 196 167 281 240 84 72 162 132 172 132 11 0 37 -16 59 -36z m1250
-400 c97 -32 130 -59 130 -104 0 -169 -311 -260 -685 -201 -66 11 -160 24
-210 31 -49 6 -99 13 -109 17 -17 5 -17 6 -3 14 9 5 75 5 159 -1 79 -5 175
-12 213 -15 l70 -4 -90 19 c-49 11 -105 19 -122 20 -48 0 -40 16 11 23 24 4
92 18 152 33 119 29 187 35 204 18 6 -6 14 -31 17 -54 5 -35 2 -46 -13 -58
-17 -13 -15 -14 26 -10 95 10 290 115 290 156 0 38 -120 94 -262 122 -100 20
-83 34 33 28 76 -4 127 -13 189 -34z m-2007 -179 c-4 -36 -2 -60 6 -69 19 -23
91 -29 178 -17 43 6 155 22 248 35 303 44 389 50 466 37 38 -7 69 -16 69 -20
0 -4 -46 -8 -102 -9 -57 -1 -266 -22 -465 -47 -200 -24 -371 -42 -380 -38 -10
3 -30 17 -45 31 -37 34 -37 79 -2 121 14 17 27 31 29 31 2 0 1 -25 -2 -55z"/>
<path d="M2611 2132 c-11 -21 -27 -44 -35 -51 -26 -22 -19 -29 37 -37 28 -5
57 -9 62 -10 6 -1 33 -2 61 -3 53 -1 109 -30 175 -92 36 -34 36 -34 55 -14 17
16 44 10 44 -11 0 -8 -10 -14 -26 -14 -21 0 -24 -3 -15 -13 6 -8 23 -12 40 -9
29 4 47 -10 36 -28 -4 -7 -13 -7 -26 0 -15 9 -19 7 -19 -5 0 -8 3 -15 8 -15
17 0 42 -65 42 -111 0 -27 5 -68 12 -93 10 -37 9 -49 -5 -79 -9 -19 -17 -41
-17 -49 0 -19 -78 -138 -90 -138 -25 0 -51 23 -91 80 -23 33 -44 58 -47 56
-10 -11 96 -142 127 -158 l34 -17 -34 -20 c-19 -12 -37 -21 -41 -21 -11 0 -10
-28 1 -34 5 -4 21 -2 35 4 20 7 26 6 26 -5 0 -24 19 -26 40 -5 20 20 23 20 39
6 28 -25 33 -19 25 29 -3 25 -3 52 0 61 5 14 7 14 22 0 21 -21 31 -20 45 6 10
18 9 24 -8 37 -18 14 -18 18 -4 71 8 30 19 58 23 61 11 7 12 53 3 112 l-8 48
29 -7 c32 -7 65 -34 95 -76 19 -26 19 -27 0 -60 -11 -18 -26 -57 -34 -86 -13
-54 -35 -72 -29 -25 4 29 -16 47 -35 31 -15 -12 -17 -44 -5 -52 5 -3 7 -19 4
-37 -4 -30 -3 -32 22 -27 14 3 26 4 26 3 0 -1 -5 -16 -10 -32 -8 -22 -21 -33
-51 -43 -55 -18 -58 -30 -10 -30 47 0 52 -11 15 -30 -28 -16 -43 -39 -50 -77
-5 -25 -4 -24 37 11 54 45 67 46 39 1 -26 -42 -41 -91 -33 -111 8 -21 23 -7
23 22 0 26 56 86 110 118 l32 18 -2 -28 c-5 -76 13 -72 51 11 21 48 40 73 72
95 98 70 127 97 142 133 18 45 20 184 3 222 -15 33 -52 33 -101 -1 -21 -14
-39 -24 -40 -22 -49 96 -78 142 -87 140 -6 -1 -9 2 -6 7 8 12 -18 33 -29 23
-5 -4 -5 -2 -1 5 8 15 -66 76 -125 102 -53 25 -95 27 -107 5 -7 -13 -16 -8
-50 32 -31 36 -38 51 -30 61 5 7 14 10 19 7 5 -3 4 6 -3 20 -6 15 -31 37 -56
51 l-45 25 -20 -20 c-10 -12 -26 -19 -34 -16 -8 3 -21 6 -29 6 -7 0 -21 11
-29 24 -20 31 -6 63 30 72 14 3 25 11 25 16 0 16 -61 0 -85 -22 -30 -28 -56
-25 -87 10 -35 40 -54 38 -77 -8z"/>
<path d="M8429 1746 c8 -10 6 -19 -9 -39 -11 -14 -20 -30 -20 -35 0 -18 -67
-52 -103 -52 -32 0 -37 -4 -57 -45 -12 -25 -26 -45 -31 -45 -13 0 -11 13 7 39
15 21 15 24 0 39 -14 15 -18 14 -44 -11 -33 -31 -50 -34 -68 -9 -11 14 -15 15
-23 3 -5 -8 -16 -11 -25 -8 -18 7 -21 23 -6 32 24 15 9 35 -25 35 -19 0 -35 5
-35 11 0 5 -13 2 -30 -7 l-29 -18 27 -18 c64 -43 283 -128 330 -128 7 0 12 13
12 28 0 26 2 28 35 24 35 -4 45 -15 25 -27 -20 -13 -10 -27 15 -21 21 5 33 0
58 -26 18 -17 31 -36 29 -41 -3 -10 16 -27 31 -27 5 0 6 8 3 18 -5 14 12 24
94 55 55 21 128 42 163 47 l62 9 -77 -4 c-63 -3 -78 -1 -78 11 0 8 4 13 9 11
5 -1 10 2 10 7 1 6 -5 11 -14 12 -8 1 -15 -1 -15 -5 0 -5 -12 -6 -27 -3 -16 3
-24 1 -20 -4 5 -5 13 -10 18 -10 5 -1 14 -2 19 -3 6 0 10 -5 10 -11 0 -16 -62
-12 -81 6 -16 14 -18 14 -29 -5 -7 -14 -21 -21 -40 -21 -36 0 -39 13 -7 28 19
10 16 11 -23 9 -36 -2 -45 1 -45 15 0 9 -3 20 -7 23 -10 10 2 35 17 35 16 0
26 61 12 78 -7 9 -7 16 1 24 8 8 7 14 -3 24 -18 18 -31 18 -16 0z"/>
<path d="M2659 1532 c-10 -2 -16 -14 -17 -34 0 -17 -5 -34 -11 -38 -7 -4 -8
-17 -2 -38 6 -20 6 -30 0 -27 -11 7 -69 -32 -69 -46 0 -5 7 -9 16 -9 9 0 12 5
8 13 -5 9 -3 9 7 -1 8 -7 14 -18 14 -25 0 -20 30 -18 54 4 l22 21 23 -21 c29
-28 60 -28 51 -1 -5 16 -2 20 19 20 36 0 32 16 -12 45 -37 24 -65 66 -80 115
-4 16 -13 24 -23 22z"/>
<path d="M4441 1283 c-12 -10 -36 -40 -54 -68 -30 -47 -35 -50 -90 -59 -57 -9
-78 -25 -34 -27 18 -1 17 -2 -8 -10 -16 -5 -54 -14 -84 -19 -60 -10 -81 -24
-65 -40 7 -7 26 -4 60 11 27 12 66 21 86 20 21 -1 51 5 67 14 17 8 41 15 55
15 29 0 46 25 46 66 0 32 71 107 96 102 9 -2 23 -13 31 -25 14 -21 12 -23 -27
-50 -23 -15 -56 -40 -73 -55 l-32 -27 33 -1 c18 0 49 9 70 19 47 24 122 89
122 105 0 15 -95 46 -142 46 -20 0 -45 -8 -57 -17z"/>
<path d="M4565 1083 c-29 -7 -104 -56 -110 -72 -9 -24 1 -23 56 6 59 31 109
35 173 13 37 -12 38 -14 33 -47 -11 -63 -28 -73 -133 -73 -88 0 -93 -1 -111
-26 l-19 -26 -33 27 -32 28 -40 -18 c-34 -16 -45 -17 -74 -7 -34 13 -34 13
-130 -28 -22 -9 -52 -20 -67 -24 -15 -3 -32 -15 -38 -25 -7 -14 -26 -22 -65
-26 -39 -5 -55 -12 -55 -22 0 -12 3 -13 14 -4 11 9 15 8 20 -5 5 -13 9 -14 21
-4 13 11 15 8 16 -16 l1 -29 8 30 c4 17 8 22 9 12 1 -24 21 -11 21 13 0 13 14
27 40 40 22 11 40 18 40 14 0 -4 7 -1 15 6 24 20 37 2 30 -44 l-6 -41 22 40
c37 68 84 88 143 60 33 -16 41 -16 113 0 43 9 88 23 99 30 12 8 30 11 41 9 11
-3 46 2 77 11 45 13 77 15 150 10 105 -8 126 -2 156 48 20 32 27 77 13 77 -64
2 -195 24 -258 44 -79 25 -101 28 -140 19z"/>
<path d="M6878 975 c-2 -3 -24 -7 -47 -10 -23 -3 -60 -14 -81 -25 -49 -25 -53
-25 -38 0 21 34 -1 35 -66 2 -36 -18 -67 -32 -70 -32 -4 0 -4 11 0 25 8 32 -8
32 -65 0 -52 -30 -54 -30 -46 -5 5 16 2 20 -20 20 -14 0 -42 -7 -62 -15 -33
-14 -37 -14 -48 2 -12 16 -16 15 -70 -5 -69 -27 -65 -26 -65 -2 0 11 -7 20
-15 20 -9 0 -33 -9 -55 -20 -43 -22 -54 -25 -46 -11 4 5 3 16 0 24 -4 12 -12
13 -36 7 -16 -5 -35 -13 -41 -18 -7 -5 -29 -15 -49 -21 -32 -11 -40 -10 -54 3
-21 22 -52 20 -120 -5 -54 -20 -58 -21 -70 -5 -17 24 -66 17 -79 -11 -5 -13
-20 -23 -35 -25 -14 -2 -25 -9 -25 -18 0 -8 -17 -23 -37 -32 -26 -12 -38 -24
-38 -37 0 -27 34 -45 52 -28 7 7 21 16 31 20 9 3 17 16 17 27 0 11 6 20 14 20
8 0 21 7 29 15 31 31 345 40 1240 37 307 -1 562 0 567 3 4 2 10 16 12 30 4 20
1 26 -19 31 -22 6 -23 7 -6 20 17 13 17 14 -2 7 -11 -3 -22 -9 -25 -12 -3 -3
-20 -14 -38 -23 -27 -15 -32 -15 -32 -2 0 27 -30 27 -64 0 -43 -32 -44 -32
-38 0 5 25 3 26 -24 20 -16 -4 -36 -14 -45 -22 -22 -20 -27 -18 -21 11 5 30
-1 30 -53 5 -42 -20 -70 -26 -61 -12 2 4 1 14 -4 22 -8 13 -16 12 -49 -7 -47
-27 -51 -28 -51 -9 0 26 -18 27 -59 6 -50 -25 -59 -25 -36 0 10 11 24 20 31
20 7 0 16 5 19 10 6 10 2 14 -7 5z"/>
<path d="M5130 963 c-41 -8 -44 -20 -9 -39 l34 -17 -28 -8 c-15 -4 -57 -28
-93 -54 l-65 -47 -95 27 c-138 39 -165 41 -222 17 -27 -12 -87 -32 -133 -45
-76 -22 -80 -25 -52 -31 23 -5 43 -1 80 18 75 40 134 47 228 29 44 -8 99 -18
123 -22 56 -10 60 -17 26 -43 -16 -12 -54 -49 -85 -80 -31 -32 -60 -58 -65
-59 -5 0 -18 -2 -29 -4 -99 -19 -200 -22 -315 -9 -148 16 -266 18 -275 4 -4
-6 7 -10 25 -10 17 0 83 -9 147 -21 108 -19 127 -20 253 -9 103 10 149 10 190
1 29 -6 55 -9 57 -7 3 2 -9 7 -26 11 -27 6 -45 25 -23 25 4 0 38 27 75 60 38
33 72 60 78 60 5 0 -2 -22 -16 -50 -14 -27 -21 -50 -16 -50 14 0 30 24 56 86
l25 59 -5 -60 -5 -60 15 50 c9 28 23 65 33 84 l17 35 3 -47 c2 -25 -2 -56 -8
-68 -9 -17 -9 -23 1 -30 10 -6 10 -10 0 -23 -8 -9 -19 -16 -26 -16 -12 0 -28
-50 -18 -60 14 -14 92 143 93 188 1 9 7 31 15 47 l14 30 -2 -45 c-2 -25 -7
-51 -12 -59 -5 -10 -4 -16 3 -19 8 -2 6 -12 -8 -29 -11 -14 -17 -30 -14 -35 3
-5 -1 -17 -9 -26 -7 -9 -17 -26 -21 -36 -6 -16 -4 -17 10 -6 29 25 61 104 79
199 15 80 20 91 27 70 7 -16 6 -35 -2 -57 -7 -19 -9 -36 -6 -39 3 -4 1 -12 -5
-19 -6 -8 -9 -20 -6 -28 3 -8 -1 -20 -9 -27 -8 -6 -12 -20 -9 -29 3 -11 -8
-31 -30 -55 -40 -44 -41 -47 -19 -38 22 8 102 120 109 152 5 25 8 26 59 23 48
-3 55 -1 75 24 28 35 24 52 -16 69 -32 13 -33 13 -63 -26 -18 -21 -36 -39 -41
-39 -5 0 -9 33 -9 73 l0 72 54 1 c61 2 129 30 134 57 5 23 -19 22 -68 -3 -22
-11 -47 -20 -57 -19 -11 0 -6 6 15 15 17 8 32 16 32 19 0 6 -134 4 -170 -2z"/>
<path d="M5670 809 c-30 -6 -54 -18 -70 -37 -14 -16 -36 -36 -50 -44 -14 -9
-34 -38 -44 -64 -29 -72 -56 -95 -56 -49 0 14 8 29 20 35 16 9 19 20 17 65 -2
57 -11 71 -20 34 -5 -17 -11 -20 -30 -15 -15 3 -42 -2 -69 -14 -35 -15 -48
-29 -66 -67 -41 -88 -54 -97 -167 -112 -43 -6 -81 -14 -84 -17 -3 -4 55 -3
129 1 191 11 257 10 320 -7 58 -14 134 -50 145 -68 3 -5 18 -10 33 -10 31 0
22 13 -28 38 -48 24 -75 65 -74 112 2 44 -2 48 -22 23 -11 -15 -13 -15 -13 -3
-1 26 78 139 107 154 15 7 46 17 70 21 26 4 41 12 39 18 -5 15 -31 17 -87 6z"/>
<path d="M7090 797 c-19 -5 -56 -18 -82 -28 -56 -23 -58 -23 -58 -4 0 24 -25
28 -59 11 -34 -18 -77 -21 -86 -6 -4 6 -16 5 -33 -4 -39 -19 -85 -29 -77 -16
15 25 -8 29 -58 10 -67 -26 -77 -25 -77 5 0 30 -9 31 -52 5 -39 -24 -49 -25
-42 -5 8 19 -9 19 -61 1 -28 -10 -42 -11 -47 -3 -4 7 -19 6 -48 -6 -44 -17
-70 -14 -70 9 0 17 -44 18 -107 3 -36 -10 -47 -9 -53 2 -12 18 -120 -15 -127
-40 -2 -9 -18 -22 -35 -29 -25 -9 -29 -14 -19 -26 9 -11 20 -12 44 -5 45 13
47 12 47 -20 0 -71 131 -125 158 -66 7 14 12 28 12 30 0 7 -86 52 -132 69 -80
29 -67 36 104 51 73 7 105 -3 147 -49 14 -14 35 -26 48 -26 13 0 39 -16 62
-39 23 -23 59 -45 90 -56 28 -9 51 -19 51 -22 0 -3 -10 -13 -22 -23 -21 -17
-21 -18 -2 -23 10 -4 48 -11 83 -16 35 -6 66 -13 69 -16 3 -3 -3 -13 -12 -24
-20 -22 -15 -27 37 -36 31 -6 36 -5 31 8 -3 10 2 20 15 27 31 16 25 30 -11 30
-60 0 -78 10 -72 35 6 26 -18 45 -55 45 -12 0 -38 17 -60 39 -21 21 -61 49
-89 62 -39 18 -51 29 -52 47 0 12 -7 25 -16 29 -27 10 5 22 35 13 14 -5 79
-14 144 -20 112 -12 118 -14 134 -40 8 -15 29 -35 44 -44 16 -10 29 -26 29
-36 0 -13 14 -23 51 -35 34 -12 53 -24 59 -40 9 -24 36 -35 87 -35 38 0 63 9
63 22 0 12 -63 38 -95 38 -27 0 -33 18 -12 39 15 16 0 28 -110 83 -46 23 -83
45 -83 49 0 4 25 11 56 15 120 15 274 -36 323 -106 13 -19 21 -26 17 -15 -6
16 -5 18 5 8 23 -23 46 -15 51 17 3 17 1 30 -3 30 -4 0 -11 9 -14 21 -4 11
-21 29 -38 40 l-32 19 45 1 c61 2 80 5 113 18 39 15 35 35 -6 28 -18 -3 -51
-2 -72 2 -22 4 -56 3 -75 -2z"/>
<path d="M5770 721 c0 -20 -25 -35 -41 -25 -5 3 -17 0 -26 -5 -14 -8 -9 -10
25 -11 30 0 42 -4 42 -15 0 -10 -12 -15 -37 -17 -37 -1 -37 -1 -5 -5 24 -3 32
-9 32 -24 0 -12 -7 -19 -20 -19 -11 0 -20 -4 -20 -10 0 -5 7 -10 15 -10 20 0
19 -27 -1 -38 -13 -7 -13 -10 -1 -21 10 -8 17 -9 22 -1 9 15 25 12 25 -5 0 -8
-3 -15 -8 -15 -4 0 -13 -10 -21 -22 -12 -19 -11 -23 4 -34 14 -10 16 -22 12
-50 -7 -44 -8 -45 -33 -38 -16 4 -19 12 -16 41 3 25 1 34 -7 29 -6 -4 -11 -18
-11 -32 0 -15 -6 -24 -16 -24 -11 0 -13 6 -9 19 3 11 1 22 -5 26 -5 3 -10 -1
-10 -9 0 -9 -7 -16 -15 -16 -8 0 -15 7 -15 15 0 8 -4 15 -9 15 -13 0 -21 -27
-15 -45 7 -17 -4 -19 -25 -6 -7 5 -11 13 -8 18 3 5 2 15 -2 22 -6 8 -11 -4
-15 -33 -5 -30 -12 -46 -22 -46 -8 0 -14 7 -14 16 0 25 -17 7 -24 -27 -7 -38
-31 -34 -32 7 -1 21 7 37 30 57 l31 29 -38 -21 c-49 -27 -66 -26 -111 4 -57
38 -66 29 -16 -15 31 -28 52 -39 67 -37 20 4 22 1 16 -22 -3 -14 -14 -37 -25
-50 -22 -28 -24 -48 -3 -31 17 14 39 4 31 -16 -6 -16 10 -19 19 -3 4 6 14 7
24 4 39 -16 73 -16 91 0 17 15 19 15 29 -2 8 -14 13 -15 19 -5 5 7 16 10 24 7
11 -4 18 1 23 14 7 23 35 29 35 7 0 -11 5 -12 24 -3 14 7 20 15 14 18 -17 11
1 29 28 29 15 0 23 4 19 11 -4 6 2 13 14 16 21 5 30 23 12 23 -10 0 -3 39 11
57 6 7 19 9 39 3 26 -8 29 -6 29 16 0 17 -7 25 -25 30 -14 3 -25 12 -25 19 0
11 8 11 32 4 42 -12 43 -12 28 6 -7 8 -21 15 -31 15 -10 0 -21 5 -24 10 -3 6
3 10 14 10 12 0 21 5 21 10 0 6 -7 10 -15 10 -8 0 -15 7 -15 15 0 8 5 15 10
15 23 0 8 19 -20 25 -20 4 -30 13 -30 25 0 13 5 17 20 13 11 -3 20 0 20 6 0 6
-9 11 -20 11 -11 0 -20 7 -20 15 0 8 6 12 14 9 8 -3 17 -1 21 5 3 6 -1 11 -9
11 -8 0 -19 7 -24 16 -6 11 -11 13 -16 5 -13 -21 -26 -11 -20 14 4 15 2 25 -5
25 -6 0 -11 -9 -11 -19z"/>
<path d="M8709 551 c-6 -18 -20 -32 -34 -35 -37 -9 -87 -106 -55 -106 17 0 11
-18 -7 -23 -10 -3 -1 -5 19 -6 20 0 40 4 43 9 3 6 15 10 25 10 20 0 54 41 63
78 4 18 0 26 -18 34 -20 9 -22 14 -14 35 11 31 11 33 -2 33 -5 0 -15 -13 -20
-29z"/>
<path d="M8841 488 c-5 -13 -17 -44 -26 -71 -9 -26 -25 -52 -36 -57 -26 -14
-24 -27 6 -32 29 -6 45 10 55 55 4 18 12 31 19 29 7 -1 33 -5 58 -9 51 -7 63
3 63 55 0 26 -5 34 -26 42 -37 15 -42 13 -76 -22 l-30 -33 7 33 c8 37 -1 43
-14 10z"/>
</g>
</svg>
